<?xml version="1.0" encoding="utf-8"?>
<!-- Generator: Adobe Illustrator 14.0.0, SVG Export Plug-In . SVG Version: 6.00 Build 43363)  -->
<!DOCTYPE svg PUBLIC "-//W3C//DTD SVG 1.1//EN" "http://www.w3.org/Graphics/SVG/1.1/DTD/svg11.dtd">
<svg version="1.1"
	 id="svg2178" sodipodi:docbase="C:\CodeBlocks" inkscape:version="0.45.1" sodipodi:docname="logo_template.svg" sodipodi:version="0.32" xmlns:dc="http://purl.org/dc/elements/1.1/" xmlns:cc="http://web.resource.org/cc/" xmlns:rdf="http://www.w3.org/1999/02/22-rdf-syntax-ns#" xmlns:svg="http://www.w3.org/2000/svg" xmlns:sodipodi="http://sodipodi.sourceforge.net/DTD/sodipodi-0.dtd" xmlns:inkscape="http://www.inkscape.org/namespaces/inkscape" inkscape:output_extension="org.inkscape.output.svg.inkscape"
	 xmlns="http://www.w3.org/2000/svg" xmlns:xlink="http://www.w3.org/1999/xlink" x="0px" y="0px" width="640px" height="480px"
	 viewBox="0 0 640 480" enable-background="new 0 0 640 480" xml:space="preserve">
<sodipodi:namedview  id="base" inkscape:window-y="-4" inkscape:window-x="-4" inkscape:window-height="994" inkscape:window-width="1680" inkscape:document-units="px" inkscape:current-layer="layer1" inkscape:pageshadow="2" inkscape:pageopacity="0.0" inkscape:cy="240" inkscape:cx="320" inkscape:zoom="0.77472527" borderopacity="1.0" bordercolor="#666666" pagecolor="#ffffff">
	</sodipodi:namedview>
<g id="layer1" inkscape:groupmode="layer" inkscape:label="Layer 1">
	<g id="Foreground">
		<g>

				<linearGradient id="SVGID_1_" gradientUnits="userSpaceOnUse" x1="132.3911" y1="258.1052" x2="293.5806" y2="258.1052" gradientTransform="matrix(0.9962 -0.0872 -0.0872 -0.9962 22.2245 498.0082)">
				<stop  offset="0.0056" style="stop-color:#8BAED8"/>
				<stop  offset="0.073" style="stop-color:#39557E"/>
				<stop  offset="0.5" style="stop-color:#E8EDF6"/>
				<stop  offset="0.618" style="stop-color:#C8D6EC"/>
				<stop  offset="0.6655" style="stop-color:#C4D3EB"/>
				<stop  offset="0.7129" style="stop-color:#B8CCE7"/>
				<stop  offset="0.7601" style="stop-color:#A4BFE0"/>
				<stop  offset="0.807" style="stop-color:#88ADD6"/>
				<stop  offset="0.809" style="stop-color:#87ACD6"/>
				<stop  offset="1" style="stop-color:#224F6A"/>
			</linearGradient>
			<path fill="url(#SVGID_1_)" d="M252.39,29.061c0.07,0.053,0.141,0.107,0.211,0.162c88.157,67.831,77.282,123.492,8.237,195.352
				c-42.56,44.294-53.352,109.135-41.018,186.748c-61.921-48.122-68.711-155.364-3.016-215.972
				C270.75,135.111,303.784,98.431,252.39,29.061z"/>
		</g>
		<linearGradient id="SVGID_2_" gradientUnits="userSpaceOnUse" x1="252.7266" y1="293.6873" x2="372.263" y2="271.6837">
			<stop  offset="0.038" style="stop-color:#89AF23"/>
			<stop  offset="0.168" style="stop-color:#8BB026"/>
			<stop  offset="0.2629" style="stop-color:#91B52F"/>
			<stop  offset="0.3467" style="stop-color:#9CBC3F"/>
			<stop  offset="0.4235" style="stop-color:#ACC755"/>
			<stop  offset="0.4888" style="stop-color:#BDD36F"/>
			<stop  offset="0.5312" style="stop-color:#A9C05F"/>
			<stop  offset="0.6326" style="stop-color:#7E993E"/>
			<stop  offset="0.7241" style="stop-color:#607C26"/>
			<stop  offset="0.8017" style="stop-color:#4D6A17"/>
			<stop  offset="0.856" style="stop-color:#466412"/>
		</linearGradient>
		<path fill="url(#SVGID_2_)" d="M301.41,276.211c55.228-58.832,62.857-94.251,43.761-126.187
			c39.513,54.576,32.147,88-27.958,140.779c-36.269,32.086-57.102,70.762-70.604,130.658
			C245.552,388.88,241.822,335.894,301.41,276.211z"/>

			<linearGradient id="SVGID_3_" gradientUnits="userSpaceOnUse" x1="255.9326" y1="137.9089" x2="384.8516" y2="137.9089" gradientTransform="matrix(0.9962 -0.0872 -0.0872 -0.9962 22.2245 498.0082)">
			<stop  offset="0.0056" style="stop-color:#8BAED8"/>
			<stop  offset="0.073" style="stop-color:#39557E"/>
			<stop  offset="0.5" style="stop-color:#E8EDF6"/>
			<stop  offset="0.618" style="stop-color:#C8D6EC"/>
			<stop  offset="0.6655" style="stop-color:#C4D3EB"/>
			<stop  offset="0.7129" style="stop-color:#B8CCE7"/>
			<stop  offset="0.7601" style="stop-color:#A4BFE0"/>
			<stop  offset="0.807" style="stop-color:#88ADD6"/>
			<stop  offset="0.809" style="stop-color:#87ACD6"/>
			<stop  offset="1" style="stop-color:#224F6A"/>
		</linearGradient>
		<path fill="url(#SVGID_3_)" d="M330.346,340.724c44.857-35.737,61.811-62.181,52.604-92.481
			c23.876,55.028,9.744,98.06-42.856,128.977c-25.203,13.998-46.806,27.126-64.41,39.916
			C289.883,382.6,308.61,358.781,330.346,340.724z"/>
	</g>
	<g>

			<image overflow="visible" opacity="0.75" width="277" height="419" xlink:href="89B1A512.png"  transform="matrix(1 0 0 1 132.3599 24.9451)">
		</image>
		<g>
			<g>

					<linearGradient id="SVGID_4_" gradientUnits="userSpaceOnUse" x1="259.5059" y1="137.8611" x2="383.0703" y2="137.8611" gradientTransform="matrix(0.9962 -0.0872 -0.0872 -0.9962 22.2245 498.0082)">
					<stop  offset="0.0056" style="stop-color:#8BAED8"/>
					<stop  offset="0.073" style="stop-color:#39557E"/>
					<stop  offset="0.5" style="stop-color:#E8EDF6"/>
					<stop  offset="0.618" style="stop-color:#C8D6EC"/>
					<stop  offset="0.6655" style="stop-color:#C4D3EB"/>
					<stop  offset="0.7129" style="stop-color:#B8CCE7"/>
					<stop  offset="0.7601" style="stop-color:#A4BFE0"/>
					<stop  offset="0.807" style="stop-color:#88ADD6"/>
					<stop  offset="0.809" style="stop-color:#87ACD6"/>
					<stop  offset="1" style="stop-color:#224F6A"/>
				</linearGradient>
				<path fill="url(#SVGID_4_)" d="M349.283,339.3c36.424-31.137,42.136-66.33,33.844-91.107
					c-6.865,23.409-26.275,48.882-58.23,76.418c-27.506,24.414-43.167,53.284-49.238,92.66
					C302.146,362.484,322.024,362.422,349.283,339.3z"/>

					<linearGradient id="SVGID_5_" gradientUnits="userSpaceOnUse" x1="119.5586" y1="255.7537" x2="311.6055" y2="255.7537" gradientTransform="matrix(0.9962 -0.0872 -0.0872 -0.9962 22.2245 498.0082)">
					<stop  offset="0.0056" style="stop-color:#8BAED8"/>
					<stop  offset="0.073" style="stop-color:#39557E"/>
					<stop  offset="0.5" style="stop-color:#E8EDF6"/>
					<stop  offset="0.618" style="stop-color:#C8D6EC"/>
					<stop  offset="0.6655" style="stop-color:#C4D3EB"/>
					<stop  offset="0.7129" style="stop-color:#B8CCE7"/>
					<stop  offset="0.7601" style="stop-color:#A4BFE0"/>
					<stop  offset="0.807" style="stop-color:#88ADD6"/>
					<stop  offset="0.809" style="stop-color:#87ACD6"/>
					<stop  offset="1" style="stop-color:#224F6A"/>
				</linearGradient>
				<path fill="url(#SVGID_5_)" d="M177.34,180.032c74.589-75.114,97.515-123.123,78.535-146.394
					c45.213,65.581,33.587,90.977-37.448,168.024c-58.316,59.074-61.237,159.695,1.361,209.501
					C144.773,387.76,107.883,257.161,177.34,180.032z"/>

					<linearGradient id="SVGID_6_" gradientUnits="userSpaceOnUse" x1="228.9175" y1="187.6023" x2="359.9873" y2="187.6023" gradientTransform="matrix(0.9962 -0.0872 -0.0872 -0.9962 22.2245 498.0082)">
					<stop  offset="0.0056" style="stop-color:#8BAED8"/>
					<stop  offset="0.073" style="stop-color:#39557E"/>
					<stop  offset="0.5" style="stop-color:#E8EDF6"/>
					<stop  offset="0.618" style="stop-color:#C8D6EC"/>
					<stop  offset="0.6655" style="stop-color:#C4D3EB"/>
					<stop  offset="0.7129" style="stop-color:#B8CCE7"/>
					<stop  offset="0.7601" style="stop-color:#A4BFE0"/>
					<stop  offset="0.807" style="stop-color:#88ADD6"/>
					<stop  offset="0.809" style="stop-color:#87ACD6"/>
					<stop  offset="1" style="stop-color:#224F6A"/>
				</linearGradient>
				<path fill="url(#SVGID_6_)" d="M297.131,285.743c55.124-54.931,72.252-97.943,48.217-135.771
					c-3.846,23.291-27.621,58.807-71.322,106.541c-30.582,40.13-39.651,95.058-27.229,164.948
					C244.499,368.008,260.25,324.582,297.131,285.743z"/>
			</g>
		</g>
	</g>
</g>
<text transform="matrix(1 0 0 1 37.5 40.4998)"><tspan x="0" y="0" font-family="'MyriadPro-Regular'" font-size="12">http://www.jtpc.de</tspan><tspan x="0" y="14.4" font-family="'MyriadPro-Regular'" font-size="12">Prototype 1.5</tspan></text>
<text transform="matrix(1 0 0 1 13.2583 451.3992)" font-family="'MyriadPro-Regular'" font-size="14.4">Colorscheme: Steelblue- Green</text>
<text transform="matrix(1 0 0 1 274.5 448.4998)" font-family="'MyriadPro-Regular'" font-size="12">Copyright:  libsiege.org &amp;&amp; jtpc.de</text>
</svg>
