<?xml version="1.0" encoding="UTF-8" standalone="no"?>
<!DOCTYPE svg PUBLIC "-//W3C//DTD SVG 1.1//EN"
 "http://www.w3.org/Graphics/SVG/1.1/DTD/svg11.dtd">
<!-- Generated by graphviz version 2.26.3 (20100126.1600)
 -->
<!-- Title: SIEGE Pages: 1 -->
<svg width="910pt" height="706pt"
 viewBox="0.00 0.00 910.38 706.30" xmlns="http://www.w3.org/2000/svg" xmlns:xlink="http://www.w3.org/1999/xlink">
<g id="graph1" class="graph" transform="scale(1 1) rotate(0) translate(4 702.303)">
<title>SIEGE</title>
<polygon fill="white" stroke="white" points="-4,5 -4,-702.303 907.38,-702.303 907.38,5 -4,5"/>
<!-- C++ -->
<g id="node2" class="node"><title>C++</title>
<ellipse fill="lightblue" stroke="lightblue" cx="30" cy="-350.551" rx="28.8453" ry="18"/>
<text text-anchor="middle" x="30" y="-345.951" font-family="Times New Roman,serif" font-size="14.00">C++</text>
</g>
<!-- CSiege -->
<g id="node8" class="node"><title>CSiege</title>
<ellipse fill="lightgrey" stroke="lightgrey" cx="533.298" cy="-350.551" rx="37.0651" ry="18"/>
<text text-anchor="middle" x="533.298" y="-345.951" font-family="Times New Roman,serif" font-size="14.00">CSiege</text>
</g>
<!-- C++&#45;&gt;CSiege -->
<g id="edge5" class="edge"><title>C++&#45;&gt;CSiege</title>
<path fill="none" stroke="black" d="M59.2349,-350.551C142.801,-350.551 383.264,-350.551 485.924,-350.551"/>
<polygon fill="black" stroke="black" points="486.002,-354.051 496.002,-350.551 486.002,-347.051 486.002,-354.051"/>
</g>
<!-- D -->
<g id="node3" class="node"><title>D</title>
<ellipse fill="lightblue" stroke="lightblue" cx="579.738" cy="-679.303" rx="27" ry="18"/>
<text text-anchor="middle" x="579.738" y="-674.703" font-family="Times New Roman,serif" font-size="14.00">D</text>
</g>
<!-- D&#45;&gt;CSiege -->
<g id="edge7" class="edge"><title>D&#45;&gt;CSiege</title>
<path fill="none" stroke="black" d="M577.175,-661.16C569.484,-606.713 546.561,-444.44 537.272,-378.687"/>
<polygon fill="black" stroke="black" points="540.717,-378.05 535.853,-368.638 533.786,-379.03 540.717,-378.05"/>
</g>
<!-- CPython -->
<g id="node4" class="node"><title>CPython</title>
<ellipse fill="lightblue" stroke="lightblue" cx="437.978" cy="-668.59" rx="43.7767" ry="18"/>
<text text-anchor="middle" x="437.978" y="-663.99" font-family="Times New Roman,serif" font-size="14.00">CPython</text>
</g>
<!-- CPython&#45;&gt;CSiege -->
<g id="edge9" class="edge"><title>CPython&#45;&gt;CSiege</title>
<path fill="none" stroke="black" d="M443.376,-650.58C459.268,-597.553 505.968,-441.739 525.041,-378.101"/>
<polygon fill="black" stroke="black" points="528.441,-378.948 527.959,-368.364 521.735,-376.938 528.441,-378.948"/>
</g>
<!-- Squirrel -->
<g id="node5" class="node"><title>Squirrel</title>
<ellipse fill="lightblue" stroke="lightblue" cx="303.934" cy="-590.607" rx="40.2492" ry="18"/>
<text text-anchor="middle" x="303.934" y="-586.007" font-family="Times New Roman,serif" font-size="14.00">Squirrel</text>
</g>
<!-- Squirrel&#45;&gt;CSiege -->
<g id="edge11" class="edge"><title>Squirrel&#45;&gt;CSiege</title>
<path fill="none" stroke="black" d="M320.062,-573.727C360.134,-531.787 464.311,-422.754 510.581,-374.326"/>
<polygon fill="black" stroke="black" points="513.114,-376.742 517.492,-367.094 508.053,-371.906 513.114,-376.742"/>
</g>
<!-- Other bindings? -->
<g id="node6" class="node"><title>Other bindings?</title>
<ellipse fill="lightblue" stroke="lightblue" cx="212.265" cy="-435.245" rx="69.9366" ry="18"/>
<text text-anchor="middle" x="212.265" y="-430.645" font-family="Times New Roman,serif" font-size="14.00">Other bindings?</text>
</g>
<!-- Other bindings?&#45;&gt;CSiege -->
<g id="edge13" class="edge"><title>Other bindings?&#45;&gt;CSiege</title>
<path fill="none" stroke="black" stroke-dasharray="1,5" d="M261.373,-422.29C323.97,-405.776 431.172,-377.494 490.555,-361.827"/>
<polygon fill="black" stroke="black" points="491.587,-365.175 500.363,-359.24 489.801,-358.407 491.587,-365.175"/>
</g>
<!-- SDL -->
<g id="node10" class="node"><title>SDL</title>
<ellipse fill="lightyellow" stroke="lightyellow" cx="212.265" cy="-265.857" rx="28.8453" ry="18"/>
<text text-anchor="middle" x="212.265" y="-261.257" font-family="Times New Roman,serif" font-size="14.00">SDL</text>
</g>
<!-- CSiege&#45;&gt;SDL -->
<g id="edge15" class="edge"><title>CSiege&#45;&gt;SDL</title>
<path fill="none" stroke="black" d="M500.749,-341.964C440.651,-326.109 312.64,-292.337 249.317,-275.632"/>
<polygon fill="black" stroke="black" points="249.928,-272.173 239.366,-273.007 248.143,-278.942 249.928,-272.173"/>
</g>
<!-- GLFW -->
<g id="node11" class="node"><title>GLFW</title>
<ellipse fill="lightyellow" stroke="lightyellow" cx="274.473" cy="-142.598" rx="38.2368" ry="18"/>
<text text-anchor="middle" x="274.473" y="-137.998" font-family="Times New Roman,serif" font-size="14.00">GLFW</text>
</g>
<!-- CSiege&#45;&gt;GLFW -->
<g id="edge17" class="edge"><title>CSiege&#45;&gt;GLFW</title>
<path fill="none" stroke="black" d="M513.844,-334.921C468.202,-298.25 354.148,-206.613 301.673,-164.452"/>
<polygon fill="black" stroke="black" points="303.787,-161.661 293.8,-158.126 299.403,-167.118 303.787,-161.661"/>
</g>
<!-- OpenGL -->
<g id="node12" class="node"><title>OpenGL</title>
<ellipse fill="lightyellow" stroke="lightyellow" cx="395.318" cy="-48.5636" rx="43.7767" ry="18"/>
<text text-anchor="middle" x="395.318" y="-43.9636" font-family="Times New Roman,serif" font-size="14.00">OpenGL</text>
</g>
<!-- CSiege&#45;&gt;OpenGL -->
<g id="edge19" class="edge"><title>CSiege&#45;&gt;OpenGL</title>
<path fill="none" stroke="black" d="M525.08,-332.565C501.833,-281.686 435.497,-136.501 407.753,-75.7805"/>
<polygon fill="black" stroke="black" points="410.832,-74.0967 403.493,-66.4557 404.465,-77.0058 410.832,-74.0967"/>
</g>
<!-- OpenAL -->
<g id="node13" class="node"><title>OpenAL</title>
<ellipse fill="lightyellow" stroke="lightyellow" cx="550.871" cy="-19" rx="43.1021" ry="18"/>
<text text-anchor="middle" x="550.871" y="-14.4" font-family="Times New Roman,serif" font-size="14.00">OpenAL</text>
</g>
<!-- CSiege&#45;&gt;OpenAL -->
<g id="edge21" class="edge"><title>CSiege&#45;&gt;OpenAL</title>
<path fill="none" stroke="black" d="M534.268,-332.253C537.178,-277.343 545.852,-113.688 549.367,-47.3756"/>
<polygon fill="black" stroke="black" points="552.869,-47.4126 549.904,-37.2413 545.879,-47.042 552.869,-47.4126"/>
</g>
<!-- DevIL -->
<g id="node14" class="node"><title>DevIL</title>
<ellipse fill="lightyellow" stroke="lightyellow" cx="694.279" cy="-60.1719" rx="34.8827" ry="18"/>
<text text-anchor="middle" x="694.279" y="-55.5719" font-family="Times New Roman,serif" font-size="14.00">DevIL</text>
</g>
<!-- CSiege&#45;&gt;DevIL -->
<g id="edge23" class="edge"><title>CSiege&#45;&gt;DevIL</title>
<path fill="none" stroke="black" d="M543.126,-332.824C570.414,-283.601 647.231,-145.037 679.603,-86.6448"/>
<polygon fill="black" stroke="black" points="682.792,-88.1102 684.58,-77.6672 676.67,-84.7162 682.792,-88.1102"/>
</g>
<!-- Freetype -->
<g id="node15" class="node"><title>Freetype</title>
<ellipse fill="lightyellow" stroke="lightyellow" cx="805.178" cy="-159.983" rx="43.1021" ry="18"/>
<text text-anchor="middle" x="805.178" y="-155.383" font-family="Times New Roman,serif" font-size="14.00">Freetype</text>
</g>
<!-- CSiege&#45;&gt;Freetype -->
<g id="edge25" class="edge"><title>CSiege&#45;&gt;Freetype</title>
<path fill="none" stroke="black" d="M554.632,-335.597C602.518,-302.033 718.708,-220.592 774.406,-181.552"/>
<polygon fill="black" stroke="black" points="776.626,-184.27 782.806,-175.664 772.608,-178.538 776.626,-184.27"/>
</g>
<!-- SndFile -->
<g id="node16" class="node"><title>SndFile</title>
<ellipse fill="lightyellow" stroke="lightyellow" cx="861.88" cy="-302.921" rx="39.0774" ry="18"/>
<text text-anchor="middle" x="861.88" y="-298.321" font-family="Times New Roman,serif" font-size="14.00">SndFile</text>
</g>
<!-- CSiege&#45;&gt;SndFile -->
<g id="edge27" class="edge"><title>CSiege&#45;&gt;SndFile</title>
<path fill="none" stroke="black" d="M568.774,-345.408C628.159,-336.8 747.717,-319.469 814.324,-309.814"/>
<polygon fill="black" stroke="black" points="815.147,-313.231 824.542,-308.333 814.143,-306.304 815.147,-313.231"/>
</g>
<!-- Chipmunk -->
<g id="node17" class="node"><title>Chipmunk</title>
<ellipse fill="lightyellow" stroke="lightyellow" cx="846.128" cy="-461.781" rx="49.1393" ry="18"/>
<text text-anchor="middle" x="846.128" y="-457.181" font-family="Times New Roman,serif" font-size="14.00">Chipmunk</text>
</g>
<!-- CSiege&#45;&gt;Chipmunk -->
<g id="edge29" class="edge"><title>CSiege&#45;&gt;Chipmunk</title>
<path fill="none" stroke="black" d="M563.293,-361.216C618.423,-380.818 736.133,-422.671 800.969,-445.725"/>
<polygon fill="black" stroke="black" points="799.926,-449.068 810.521,-449.121 802.271,-442.473 799.926,-449.068"/>
</g>
<!-- Other modules? -->
<g id="node18" class="node"><title>Other modules?</title>
<ellipse fill="lightyellow" stroke="lightyellow" cx="734.404" cy="-614.731" rx="69.9366" ry="18"/>
<text text-anchor="middle" x="734.404" y="-610.131" font-family="Times New Roman,serif" font-size="14.00">Other modules?</text>
</g>
<!-- CSiege&#45;&gt;Other modules? -->
<g id="edge31" class="edge"><title>CSiege&#45;&gt;Other modules?</title>
<path fill="none" stroke="black" stroke-dasharray="1,5" d="M546.184,-367.479C580.416,-412.448 673.801,-535.122 714.735,-588.894"/>
<polygon fill="black" stroke="black" points="711.996,-591.073 720.838,-596.91 717.565,-586.833 711.996,-591.073"/>
</g>
</g>
</svg>
