<?xml version="1.0" encoding="UTF-8" standalone="no"?>
<!DOCTYPE svg PUBLIC "-//W3C//DTD SVG 1.1//EN"
 "http://www.w3.org/Graphics/SVG/1.1/DTD/svg11.dtd">
<!-- Generated by graphviz version 2.26.3 (20100126.1600)
 -->
<!-- Title: SIEGE Pages: 1 -->
<svg width="964pt" height="378pt"
 viewBox="0.00 0.00 964.00 378.00" xmlns="http://www.w3.org/2000/svg" xmlns:xlink="http://www.w3.org/1999/xlink">
<g id="graph1" class="graph" transform="scale(1 1) rotate(0) translate(4 374)">
<title>SIEGE</title>
<polygon fill="white" stroke="white" points="-4,5 -4,-374 961,-374 961,5 -4,5"/>
<g id="graph2" class="cluster"><title>clusterGameCraft</title>
<polygon fill="orange" stroke="orange" points="465,-310 465,-362 585,-362 585,-310 465,-310"/>
</g>
<g id="graph3" class="cluster"><title>clusterBindings</title>
<polygon fill="none" stroke="lightblue" points="205,-200 205,-276 603,-276 603,-200 205,-200"/>
<text text-anchor="middle" x="404" y="-259.4" font-family="Times New Roman,serif" font-size="14.00">Bindings</text>
</g>
<g id="graph4" class="cluster"><title>clusterFrontend</title>
<polygon fill="none" stroke="lightgrey" points="354,-104 354,-180 536,-180 536,-104 354,-104"/>
<text text-anchor="middle" x="445" y="-163.4" font-family="Times New Roman,serif" font-size="14.00">Frontend</text>
</g>
<g id="graph5" class="cluster"><title>clusterModules</title>
<polygon fill="none" stroke="lightyellow" points="8,-8 8,-84 948,-84 948,-8 8,-8"/>
<text text-anchor="middle" x="478" y="-67.4" font-family="Times New Roman,serif" font-size="14.00">Modules</text>
</g>
<!-- GameCraft -->
<g id="node2" class="node"><title>GameCraft</title>
<ellipse fill="yellow" stroke="yellow" cx="525" cy="-336" rx="51.8257" ry="18"/>
<text text-anchor="middle" x="525" y="-331.4" font-family="Times New Roman,serif" font-size="14.00">GameCraft</text>
</g>
<!-- TinyPy -->
<g id="node6" class="node"><title>TinyPy</title>
<ellipse fill="lightblue" stroke="lightblue" cx="399" cy="-226" rx="38.2368" ry="18"/>
<text text-anchor="middle" x="399" y="-221.4" font-family="Times New Roman,serif" font-size="14.00">TinyPy</text>
</g>
<!-- GameCraft&#45;&gt;TinyPy -->
<g id="edge6" class="edge"><title>GameCraft&#45;&gt;TinyPy</title>
<path fill="none" stroke="black" stroke-dasharray="5,2" d="M498.765,-320.384C489.392,-314.407 478.945,-307.27 470,-300 451.814,-285.219 433.56,-266.075 420.115,-250.962"/>
<polygon fill="black" stroke="black" points="422.393,-248.251 413.171,-243.034 417.127,-252.863 422.393,-248.251"/>
<text text-anchor="middle" x="495.5" y="-287.4" font-family="Times New Roman,serif" font-size="14.00">One of...</text>
</g>
<!-- Other bindings? -->
<g id="node7" class="node"><title>Other bindings?</title>
<ellipse fill="lightblue" stroke="lightblue" cx="525" cy="-226" rx="69.9366" ry="18"/>
<text text-anchor="middle" x="525" y="-221.4" font-family="Times New Roman,serif" font-size="14.00">Other bindings?</text>
</g>
<!-- GameCraft&#45;&gt;Other bindings? -->
<g id="edge8" class="edge"><title>GameCraft&#45;&gt;Other bindings?</title>
<path fill="none" stroke="black" stroke-dasharray="5,2" d="M525,-317.836C525,-300.559 525,-274.309 525,-254.292"/>
<polygon fill="black" stroke="black" points="528.5,-254.191 525,-244.191 521.5,-254.191 528.5,-254.191"/>
</g>
<!-- CSiege -->
<g id="node9" class="node"><title>CSiege</title>
<ellipse fill="lightgrey" stroke="lightgrey" cx="399" cy="-130" rx="37.0651" ry="18"/>
<text text-anchor="middle" x="399" y="-125.4" font-family="Times New Roman,serif" font-size="14.00">CSiege</text>
</g>
<!-- GameCraft&#45;&gt;CSiege -->
<g id="edge10" class="edge"><title>GameCraft&#45;&gt;CSiege</title>
<path fill="none" stroke="black" stroke-dasharray="1,5" d="M557.08,-321.794C575.317,-311.836 596.544,-296.608 607,-276 622.284,-245.878 629.373,-225.305 607,-200 582.974,-172.825 477.259,-196.587 445,-180 433.804,-174.243 423.947,-164.595 416.26,-155.301"/>
<polygon fill="black" stroke="black" points="418.976,-153.092 410.083,-147.332 413.443,-157.38 418.976,-153.092"/>
<text text-anchor="middle" x="633.5" y="-221.4" font-family="Times New Roman,serif" font-size="14.00">GUI</text>
</g>
<!-- C++ -->
<g id="node4" class="node"><title>C++</title>
<ellipse fill="lightblue" stroke="lightblue" cx="242" cy="-226" rx="28.8453" ry="18"/>
<text text-anchor="middle" x="242" y="-221.4" font-family="Times New Roman,serif" font-size="14.00">C++</text>
</g>
<!-- C++&#45;&gt;CSiege -->
<g id="edge12" class="edge"><title>C++&#45;&gt;CSiege</title>
<path fill="none" stroke="black" d="M261.552,-212.247C267.428,-208.216 273.927,-203.857 280,-200 308.526,-181.881 341.725,-162.488 365.798,-148.72"/>
<polygon fill="black" stroke="black" points="367.593,-151.725 374.548,-143.733 364.127,-145.643 367.593,-151.725"/>
</g>
<!-- D -->
<g id="node5" class="node"><title>D</title>
<ellipse fill="lightblue" stroke="lightblue" cx="316" cy="-226" rx="27" ry="18"/>
<text text-anchor="middle" x="316" y="-221.4" font-family="Times New Roman,serif" font-size="14.00">D</text>
</g>
<!-- D&#45;&gt;CSiege -->
<g id="edge14" class="edge"><title>D&#45;&gt;CSiege</title>
<path fill="none" stroke="black" d="M329.706,-210.148C342.802,-195 362.734,-171.947 377.864,-154.447"/>
<polygon fill="black" stroke="black" points="380.543,-156.699 384.436,-146.846 375.248,-152.121 380.543,-156.699"/>
</g>
<!-- TinyPy&#45;&gt;CSiege -->
<g id="edge16" class="edge"><title>TinyPy&#45;&gt;CSiege</title>
<path fill="none" stroke="black" d="M399,-207.943C399,-194.086 399,-174.686 399,-158.708"/>
<polygon fill="black" stroke="black" points="402.5,-158.302 399,-148.302 395.5,-158.302 402.5,-158.302"/>
</g>
<!-- Other bindings?&#45;&gt;CSiege -->
<g id="edge18" class="edge"><title>Other bindings?&#45;&gt;CSiege</title>
<path fill="none" stroke="black" stroke-dasharray="1,5" d="M492.024,-209.979C476.996,-201.956 459.391,-191.505 445,-180 435.689,-172.556 426.561,-163.197 418.922,-154.595"/>
<polygon fill="black" stroke="black" points="421.543,-152.275 412.363,-146.985 416.24,-156.845 421.543,-152.275"/>
</g>
<!-- SDL -->
<g id="node12" class="node"><title>SDL</title>
<ellipse fill="lightyellow" stroke="lightyellow" cx="139" cy="-34" rx="28.8453" ry="18"/>
<text text-anchor="middle" x="139" y="-29.4" font-family="Times New Roman,serif" font-size="14.00">SDL</text>
</g>
<!-- CSiege&#45;&gt;SDL -->
<g id="edge20" class="edge"><title>CSiege&#45;&gt;SDL</title>
<path fill="none" stroke="black" d="M363.019,-125.656C308.365,-118.545 207.547,-103.263 177,-84 167.593,-78.068 159.65,-68.9254 153.497,-60.0724"/>
<polygon fill="black" stroke="black" points="156.304,-57.9662 147.953,-51.4456 150.415,-61.7505 156.304,-57.9662"/>
</g>
<!-- GLFW -->
<g id="node13" class="node"><title>GLFW</title>
<ellipse fill="lightyellow" stroke="lightyellow" cx="54" cy="-34" rx="38.2368" ry="18"/>
<text text-anchor="middle" x="54" y="-29.4" font-family="Times New Roman,serif" font-size="14.00">GLFW</text>
</g>
<!-- CSiege&#45;&gt;GLFW -->
<g id="edge22" class="edge"><title>CSiege&#45;&gt;GLFW</title>
<path fill="none" stroke="black" d="M362.4,-127.333C293.136,-121.805 145.813,-107.6 101,-84 89.749,-78.0747 79.7097,-68.3987 71.8275,-59.1296"/>
<polygon fill="black" stroke="black" points="74.4592,-56.8164 65.4798,-51.1933 68.9927,-61.1888 74.4592,-56.8164"/>
</g>
<!-- OpenGL -->
<g id="node14" class="node"><title>OpenGL</title>
<ellipse fill="lightyellow" stroke="lightyellow" cx="534" cy="-34" rx="43.7767" ry="18"/>
<text text-anchor="middle" x="534" y="-29.4" font-family="Times New Roman,serif" font-size="14.00">OpenGL</text>
</g>
<!-- CSiege&#45;&gt;OpenGL -->
<g id="edge24" class="edge"><title>CSiege&#45;&gt;OpenGL</title>
<path fill="none" stroke="black" d="M423.332,-116.203C430.321,-112.252 437.958,-107.946 445,-104 460.967,-95.0523 466.229,-94.8083 481,-84 491.528,-76.2967 502.174,-66.686 511.135,-57.9547"/>
<polygon fill="black" stroke="black" points="513.614,-60.4262 518.227,-50.8884 508.673,-55.4677 513.614,-60.4262"/>
</g>
<!-- OpenAL -->
<g id="node15" class="node"><title>OpenAL</title>
<ellipse fill="lightyellow" stroke="lightyellow" cx="333" cy="-34" rx="43.1021" ry="18"/>
<text text-anchor="middle" x="333" y="-29.4" font-family="Times New Roman,serif" font-size="14.00">OpenAL</text>
</g>
<!-- CSiege&#45;&gt;OpenAL -->
<g id="edge26" class="edge"><title>CSiege&#45;&gt;OpenAL</title>
<path fill="none" stroke="black" d="M387.201,-112.837C377.034,-98.0489 362.211,-76.4886 350.635,-59.6514"/>
<polygon fill="black" stroke="black" points="353.469,-57.5955 344.92,-51.338 347.701,-61.5613 353.469,-57.5955"/>
</g>
<!-- DevIL -->
<g id="node16" class="node"><title>DevIL</title>
<ellipse fill="lightyellow" stroke="lightyellow" cx="747" cy="-34" rx="34.8827" ry="18"/>
<text text-anchor="middle" x="747" y="-29.4" font-family="Times New Roman,serif" font-size="14.00">DevIL</text>
</g>
<!-- CSiege&#45;&gt;DevIL -->
<g id="edge28" class="edge"><title>CSiege&#45;&gt;DevIL</title>
<path fill="none" stroke="black" d="M420.573,-115.233C428.001,-110.863 436.575,-106.566 445,-104 472.505,-95.6236 677.282,-96.8562 703,-84 713.928,-78.5374 723.33,-69.0669 730.605,-59.8274"/>
<polygon fill="black" stroke="black" points="733.595,-61.6674 736.67,-51.5286 727.944,-57.5368 733.595,-61.6674"/>
</g>
<!-- Freetype -->
<g id="node17" class="node"><title>Freetype</title>
<ellipse fill="lightyellow" stroke="lightyellow" cx="229" cy="-34" rx="43.1021" ry="18"/>
<text text-anchor="middle" x="229" y="-29.4" font-family="Times New Roman,serif" font-size="14.00">Freetype</text>
</g>
<!-- CSiege&#45;&gt;Freetype -->
<g id="edge30" class="edge"><title>CSiege&#45;&gt;Freetype</title>
<path fill="none" stroke="black" d="M366.58,-121.161C341.915,-113.562 307.77,-101.112 281,-84 269.953,-76.9386 259.245,-67.2911 250.446,-58.3535"/>
<polygon fill="black" stroke="black" points="252.965,-55.9228 243.539,-51.0852 247.891,-60.745 252.965,-55.9228"/>
</g>
<!-- SndFile -->
<g id="node18" class="node"><title>SndFile</title>
<ellipse fill="lightyellow" stroke="lightyellow" cx="433" cy="-34" rx="39.0774" ry="18"/>
<text text-anchor="middle" x="433" y="-29.4" font-family="Times New Roman,serif" font-size="14.00">SndFile</text>
</g>
<!-- CSiege&#45;&gt;SndFile -->
<g id="edge32" class="edge"><title>CSiege&#45;&gt;SndFile</title>
<path fill="none" stroke="black" d="M405.395,-111.943C410.429,-97.7298 417.528,-77.6843 423.267,-61.4814"/>
<polygon fill="black" stroke="black" points="426.594,-62.5707 426.634,-51.9759 419.996,-60.2337 426.594,-62.5707"/>
</g>
<!-- Chipmunk -->
<g id="node19" class="node"><title>Chipmunk</title>
<ellipse fill="lightyellow" stroke="lightyellow" cx="645" cy="-34" rx="49.1393" ry="18"/>
<text text-anchor="middle" x="645" y="-29.4" font-family="Times New Roman,serif" font-size="14.00">Chipmunk</text>
</g>
<!-- CSiege&#45;&gt;Chipmunk -->
<g id="edge34" class="edge"><title>CSiege&#45;&gt;Chipmunk</title>
<path fill="none" stroke="black" d="M421.139,-115.271C428.463,-111.013 436.834,-106.771 445,-104 505.353,-83.5171 528.954,-110.319 587,-84 600.315,-77.9627 612.893,-67.8859 622.911,-58.3541"/>
<polygon fill="black" stroke="black" points="625.429,-60.7854 630.042,-51.2473 620.488,-55.8273 625.429,-60.7854"/>
</g>
<!-- Other modules? -->
<g id="node20" class="node"><title>Other modules?</title>
<ellipse fill="lightyellow" stroke="lightyellow" cx="870" cy="-34" rx="69.9366" ry="18"/>
<text text-anchor="middle" x="870" y="-29.4" font-family="Times New Roman,serif" font-size="14.00">Other modules?</text>
</g>
<!-- CSiege&#45;&gt;Other modules? -->
<g id="edge36" class="edge"><title>CSiege&#45;&gt;Other modules?</title>
<path fill="none" stroke="black" stroke-dasharray="1,5" d="M420.533,-115.1C427.958,-110.722 436.542,-106.452 445,-104 518.971,-82.5527 717.804,-107.958 791,-84 808.757,-78.1878 826.518,-67.4934 840.688,-57.4824"/>
<polygon fill="black" stroke="black" points="843.014,-60.118 849.016,-51.3873 838.879,-54.4694 843.014,-60.118"/>
</g>
<!-- DSiege -->
<g id="node10" class="node"><title>DSiege</title>
<ellipse fill="lightgrey" stroke="lightgrey" cx="491" cy="-130" rx="37.0651" ry="18"/>
<text text-anchor="middle" x="491" y="-125.4" font-family="Times New Roman,serif" font-size="14.00">DSiege</text>
</g>
<!-- DSiege&#45;&gt;SDL -->
<g id="edge38" class="edge"><title>DSiege&#45;&gt;SDL</title>
<path fill="none" stroke="black" d="M469.439,-115.194C462.012,-110.822 453.435,-106.532 445,-104 416.4,-95.414 203.19,-98.3428 177,-84 166.999,-78.5233 158.828,-69.1772 152.66,-60.037"/>
<polygon fill="black" stroke="black" points="155.6,-58.137 147.366,-51.4698 149.646,-61.8166 155.6,-58.137"/>
</g>
<!-- DSiege&#45;&gt;GLFW -->
<g id="edge40" class="edge"><title>DSiege&#45;&gt;GLFW</title>
<path fill="none" stroke="black" d="M469.473,-115.078C462.048,-110.698 453.464,-106.433 445,-104 408.204,-93.4215 135.502,-100.598 101,-84 89.5412,-78.4874 79.4673,-68.88 71.6155,-59.5505"/>
<polygon fill="black" stroke="black" points="74.2423,-57.2288 65.3085,-51.5334 68.7407,-61.5569 74.2423,-57.2288"/>
</g>
<!-- DSiege&#45;&gt;OpenGL -->
<g id="edge42" class="edge"><title>DSiege&#45;&gt;OpenGL</title>
<path fill="none" stroke="black" d="M498.887,-112.392C505.332,-98.0029 514.55,-77.4237 521.924,-60.9608"/>
<polygon fill="black" stroke="black" points="525.124,-62.3784 526.018,-51.8214 518.735,-59.5169 525.124,-62.3784"/>
</g>
<!-- DSiege&#45;&gt;OpenAL -->
<g id="edge44" class="edge"><title>DSiege&#45;&gt;OpenAL</title>
<path fill="none" stroke="black" d="M468.049,-115.879C460.823,-111.748 452.713,-107.427 445,-104 419.312,-92.587 409.055,-98.5427 385,-84 373.78,-77.2167 363.041,-67.6199 354.265,-58.6449"/>
<polygon fill="black" stroke="black" points="356.787,-56.2177 347.388,-51.3277 351.686,-61.0116 356.787,-56.2177"/>
</g>
<!-- DSiege&#45;&gt;DevIL -->
<g id="edge46" class="edge"><title>DSiege&#45;&gt;DevIL</title>
<path fill="none" stroke="black" d="M526.927,-124.981C579.287,-117.203 673.535,-101.32 703,-84 713.38,-77.8988 722.595,-68.4889 729.876,-59.4713"/>
<polygon fill="black" stroke="black" points="732.739,-61.488 735.996,-51.4063 727.163,-57.2563 732.739,-61.488"/>
</g>
<!-- DSiege&#45;&gt;Freetype -->
<g id="edge48" class="edge"><title>DSiege&#45;&gt;Freetype</title>
<path fill="none" stroke="black" d="M468.892,-115.18C461.569,-110.917 453.191,-106.695 445,-104 375.25,-81.048 347.323,-115.513 281,-84 268.804,-78.2051 257.658,-68.4231 248.84,-59.0401"/>
<polygon fill="black" stroke="black" points="251.267,-56.5013 242.009,-51.3485 246.033,-61.1496 251.267,-56.5013"/>
</g>
<!-- DSiege&#45;&gt;SndFile -->
<g id="edge50" class="edge"><title>DSiege&#45;&gt;SndFile</title>
<path fill="none" stroke="black" d="M480.362,-112.392C471.532,-97.7771 458.844,-76.7762 448.822,-60.1888"/>
<polygon fill="black" stroke="black" points="451.738,-58.2455 443.571,-51.4963 445.746,-61.8653 451.738,-58.2455"/>
</g>
<!-- DSiege&#45;&gt;Chipmunk -->
<g id="edge52" class="edge"><title>DSiege&#45;&gt;Chipmunk</title>
<path fill="none" stroke="black" d="M519.781,-118.587C539.426,-110.235 565.655,-97.9587 587,-84 598.589,-76.4213 610.349,-66.7328 620.222,-57.9058"/>
<polygon fill="black" stroke="black" points="622.681,-60.4004 627.697,-51.0682 617.956,-55.2355 622.681,-60.4004"/>
</g>
<!-- DSiege&#45;&gt;Other modules? -->
<g id="edge54" class="edge"><title>DSiege&#45;&gt;Other modules?</title>
<path fill="none" stroke="black" stroke-dasharray="1,5" d="M527.376,-126.309C596.291,-119.008 743.256,-101.873 791,-84 808.246,-77.5437 825.722,-66.9897 839.837,-57.2381"/>
<polygon fill="black" stroke="black" points="842.042,-59.9645 848.159,-51.3138 837.983,-54.2619 842.042,-59.9645"/>
</g>
</g>
</svg>
