<?xml version="1.0" encoding="UTF-8" standalone="no"?>
<!DOCTYPE svg PUBLIC "-//W3C//DTD SVG 1.1//EN"
 "http://www.w3.org/Graphics/SVG/1.1/DTD/svg11.dtd">
<!-- Generated by graphviz version 2.26.3 (20100126.1600)
 -->
<!-- Title: SIEGE Pages: 1 -->
<svg width="775pt" height="575pt"
 viewBox="0.00 0.00 775.32 574.82" xmlns="http://www.w3.org/2000/svg" xmlns:xlink="http://www.w3.org/1999/xlink">
<g id="graph1" class="graph" transform="scale(1 1) rotate(0) translate(4 570.82)">
<title>SIEGE</title>
<polygon fill="white" stroke="white" points="-4,5 -4,-570.82 772.323,-570.82 772.323,5 -4,5"/>
<!-- C++ -->
<g id="node2" class="node"><title>C++</title>
<ellipse fill="lightblue" stroke="lightblue" cx="34.5542" cy="-397.396" rx="28.8453" ry="18"/>
<text text-anchor="middle" x="34.5542" y="-392.796" font-family="Times New Roman,serif" font-size="14.00">C++</text>
</g>
<!-- CSiege -->
<g id="node7" class="node"><title>CSiege</title>
<ellipse fill="lightgrey" stroke="lightgrey" cx="386.38" cy="-285.505" rx="37.0651" ry="18"/>
<text text-anchor="middle" x="386.38" y="-280.905" font-family="Times New Roman,serif" font-size="14.00">CSiege</text>
</g>
<!-- C++&#45;&gt;CSiege -->
<g id="edge5" class="edge"><title>C++&#45;&gt;CSiege</title>
<path fill="none" stroke="black" d="M60.4248,-389.169C120.974,-369.912 272.299,-321.786 345.477,-298.513"/>
<polygon fill="black" stroke="black" points="346.798,-301.766 355.267,-295.399 344.676,-295.095 346.798,-301.766"/>
</g>
<!-- D -->
<g id="node3" class="node"><title>D</title>
<ellipse fill="lightblue" stroke="lightblue" cx="28" cy="-209.397" rx="27" ry="18"/>
<text text-anchor="middle" x="28" y="-204.797" font-family="Times New Roman,serif" font-size="14.00">D</text>
</g>
<!-- D&#45;&gt;CSiege -->
<g id="edge7" class="edge"><title>D&#45;&gt;CSiege</title>
<path fill="none" stroke="black" d="M53.7738,-214.871C114.398,-227.745 266.604,-260.068 342.264,-276.136"/>
<polygon fill="black" stroke="black" points="341.905,-279.638 352.414,-278.292 343.36,-272.79 341.905,-279.638"/>
</g>
<!-- TinyPy -->
<g id="node4" class="node"><title>TinyPy</title>
<ellipse fill="lightblue" stroke="lightblue" cx="121.963" cy="-93.09" rx="38.2368" ry="18"/>
<text text-anchor="middle" x="121.963" y="-88.49" font-family="Times New Roman,serif" font-size="14.00">TinyPy</text>
</g>
<!-- TinyPy&#45;&gt;CSiege -->
<g id="edge9" class="edge"><title>TinyPy&#45;&gt;CSiege</title>
<path fill="none" stroke="black" d="M142.711,-108.188C189.533,-142.261 303.499,-225.193 357.32,-264.358"/>
<polygon fill="black" stroke="black" points="355.583,-267.422 365.728,-270.476 359.701,-261.762 355.583,-267.422"/>
</g>
<!-- Other bindings? -->
<g id="node5" class="node"><title>Other bindings?</title>
<ellipse fill="lightblue" stroke="lightblue" cx="153.106" cy="-500.96" rx="69.9366" ry="18"/>
<text text-anchor="middle" x="153.106" y="-496.36" font-family="Times New Roman,serif" font-size="14.00">Other bindings?</text>
</g>
<!-- Other bindings?&#45;&gt;CSiege -->
<g id="edge11" class="edge"><title>Other bindings?&#45;&gt;CSiege</title>
<path fill="none" stroke="black" stroke-dasharray="1,5" d="M172.196,-483.328C214.164,-444.566 314.443,-351.946 361.367,-308.607"/>
<polygon fill="black" stroke="black" points="363.982,-310.956 368.954,-301.6 359.233,-305.813 363.982,-310.956"/>
</g>
<!-- SDL -->
<g id="node10" class="node"><title>SDL</title>
<ellipse fill="lightyellow" stroke="lightyellow" cx="456.141" cy="-523.018" rx="28.8453" ry="18"/>
<text text-anchor="middle" x="456.141" y="-518.418" font-family="Times New Roman,serif" font-size="14.00">SDL</text>
</g>
<!-- CSiege&#45;&gt;SDL -->
<g id="edge13" class="edge"><title>CSiege&#45;&gt;SDL</title>
<path fill="none" stroke="black" d="M391.623,-303.357C403.722,-344.551 433.659,-446.475 448.098,-495.634"/>
<polygon fill="black" stroke="black" points="444.755,-496.674 450.932,-505.283 451.472,-494.702 444.755,-496.674"/>
</g>
<!-- GLFW -->
<g id="node11" class="node"><title>GLFW</title>
<ellipse fill="lightyellow" stroke="lightyellow" cx="676.969" cy="-444.278" rx="38.2368" ry="18"/>
<text text-anchor="middle" x="676.969" y="-439.678" font-family="Times New Roman,serif" font-size="14.00">GLFW</text>
</g>
<!-- CSiege&#45;&gt;GLFW -->
<g id="edge15" class="edge"><title>CSiege&#45;&gt;GLFW</title>
<path fill="none" stroke="black" d="M411.155,-299.042C463.137,-327.444 583.666,-393.299 642.885,-425.656"/>
<polygon fill="black" stroke="black" points="641.39,-428.827 651.844,-430.55 644.746,-422.684 641.39,-428.827"/>
</g>
<!-- OpenGL -->
<g id="node12" class="node"><title>OpenGL</title>
<ellipse fill="lightyellow" stroke="lightyellow" cx="721.823" cy="-318.824" rx="43.7767" ry="18"/>
<text text-anchor="middle" x="721.823" y="-314.224" font-family="Times New Roman,serif" font-size="14.00">OpenGL</text>
</g>
<!-- CSiege&#45;&gt;OpenGL -->
<g id="edge17" class="edge"><title>CSiege&#45;&gt;OpenGL</title>
<path fill="none" stroke="black" d="M422.917,-289.134C482.353,-295.037 600.226,-306.746 668.854,-313.562"/>
<polygon fill="black" stroke="black" points="668.722,-317.066 679.019,-314.572 669.414,-310.101 668.722,-317.066"/>
</g>
<!-- OpenAL -->
<g id="node13" class="node"><title>OpenAL</title>
<ellipse fill="lightyellow" stroke="lightyellow" cx="367.783" cy="-433.856" rx="43.1021" ry="18"/>
<text text-anchor="middle" x="367.783" y="-429.256" font-family="Times New Roman,serif" font-size="14.00">OpenAL</text>
</g>
<!-- CSiege&#45;&gt;OpenAL -->
<g id="edge19" class="edge"><title>CSiege&#45;&gt;OpenAL</title>
<path fill="none" stroke="black" d="M384.099,-303.695C380.921,-329.054 375.126,-375.283 371.367,-405.272"/>
<polygon fill="black" stroke="black" points="367.853,-405.159 370.082,-415.517 374.799,-406.03 367.853,-405.159"/>
</g>
<!-- DevIL -->
<g id="node14" class="node"><title>DevIL</title>
<ellipse fill="lightyellow" stroke="lightyellow" cx="470.941" cy="-19" rx="34.8827" ry="18"/>
<text text-anchor="middle" x="470.941" y="-14.4" font-family="Times New Roman,serif" font-size="14.00">DevIL</text>
</g>
<!-- CSiege&#45;&gt;DevIL -->
<g id="edge21" class="edge"><title>CSiege&#45;&gt;DevIL</title>
<path fill="none" stroke="black" d="M392.059,-267.605C406.531,-221.994 444.869,-101.167 462.207,-46.5245"/>
<polygon fill="black" stroke="black" points="465.598,-47.4123 465.286,-36.822 458.925,-45.2952 465.598,-47.4123"/>
</g>
<!-- Freetype -->
<g id="node15" class="node"><title>Freetype</title>
<ellipse fill="lightyellow" stroke="lightyellow" cx="353.681" cy="-88.7931" rx="43.1021" ry="18"/>
<text text-anchor="middle" x="353.681" y="-84.1931" font-family="Times New Roman,serif" font-size="14.00">Freetype</text>
</g>
<!-- CSiege&#45;&gt;Freetype -->
<g id="edge23" class="edge"><title>CSiege&#45;&gt;Freetype</title>
<path fill="none" stroke="black" d="M383.362,-267.351C377.632,-232.878 365.14,-157.731 358.332,-116.772"/>
<polygon fill="black" stroke="black" points="361.784,-116.193 356.691,-106.903 354.878,-117.341 361.784,-116.193"/>
</g>
<!-- SndFile -->
<g id="node16" class="node"><title>SndFile</title>
<ellipse fill="lightyellow" stroke="lightyellow" cx="690.381" cy="-153.641" rx="39.0774" ry="18"/>
<text text-anchor="middle" x="690.381" y="-149.041" font-family="Times New Roman,serif" font-size="14.00">SndFile</text>
</g>
<!-- CSiege&#45;&gt;SndFile -->
<g id="edge25" class="edge"><title>CSiege&#45;&gt;SndFile</title>
<path fill="none" stroke="black" d="M414.164,-273.453C468.842,-249.736 590.476,-196.976 652.471,-170.085"/>
<polygon fill="black" stroke="black" points="654.108,-173.19 661.889,-166 651.322,-166.768 654.108,-173.19"/>
</g>
<!-- Chipmunk -->
<g id="node17" class="node"><title>Chipmunk</title>
<ellipse fill="lightyellow" stroke="lightyellow" cx="599.943" cy="-53.2271" rx="49.1393" ry="18"/>
<text text-anchor="middle" x="599.943" y="-48.6271" font-family="Times New Roman,serif" font-size="14.00">Chipmunk</text>
</g>
<!-- CSiege&#45;&gt;Chipmunk -->
<g id="edge27" class="edge"><title>CSiege&#45;&gt;Chipmunk</title>
<path fill="none" stroke="black" d="M401.739,-268.8C438.884,-228.4 533.723,-125.25 577.355,-77.7945"/>
<polygon fill="black" stroke="black" points="579.955,-80.1376 584.147,-70.4073 574.802,-75.3998 579.955,-80.1376"/>
</g>
<!-- Other modules? -->
<g id="node18" class="node"><title>Other modules?</title>
<ellipse fill="lightyellow" stroke="lightyellow" cx="571.762" cy="-547.82" rx="69.9366" ry="18"/>
<text text-anchor="middle" x="571.762" y="-543.22" font-family="Times New Roman,serif" font-size="14.00">Other modules?</text>
</g>
<!-- CSiege&#45;&gt;Other modules? -->
<g id="edge29" class="edge"><title>CSiege&#45;&gt;Other modules?</title>
<path fill="none" stroke="black" stroke-dasharray="1,5" d="M398.543,-302.716C430.209,-347.523 515.365,-468.018 553.203,-521.56"/>
<polygon fill="black" stroke="black" points="550.436,-523.708 559.065,-529.854 556.152,-519.668 550.436,-523.708"/>
</g>
<!-- DSiege -->
<g id="node8" class="node"><title>DSiege</title>
<ellipse fill="lightgrey" stroke="lightgrey" cx="550.149" cy="-280.946" rx="37.0651" ry="18"/>
<text text-anchor="middle" x="550.149" y="-276.346" font-family="Times New Roman,serif" font-size="14.00">DSiege</text>
</g>
<!-- DSiege&#45;&gt;SDL -->
<g id="edge31" class="edge"><title>DSiege&#45;&gt;SDL</title>
<path fill="none" stroke="black" d="M543.237,-298.746C526.932,-340.729 485.995,-446.142 466.619,-496.036"/>
<polygon fill="black" stroke="black" points="463.294,-494.929 462.937,-505.518 469.819,-497.464 463.294,-494.929"/>
</g>
<!-- DSiege&#45;&gt;GLFW -->
<g id="edge33" class="edge"><title>DSiege&#45;&gt;GLFW</title>
<path fill="none" stroke="black" d="M563.244,-297.81C585.647,-326.663 631.436,-385.636 657.563,-419.286"/>
<polygon fill="black" stroke="black" points="654.859,-421.509 663.756,-427.261 660.388,-417.216 654.859,-421.509"/>
</g>
<!-- DSiege&#45;&gt;OpenGL -->
<g id="edge35" class="edge"><title>DSiege&#45;&gt;OpenGL</title>
<path fill="none" stroke="black" d="M584.067,-288.429C609.392,-294.017 644.376,-301.736 672.751,-307.996"/>
<polygon fill="black" stroke="black" points="672.357,-311.494 682.876,-310.23 673.865,-304.658 672.357,-311.494"/>
</g>
<!-- DSiege&#45;&gt;OpenAL -->
<g id="edge37" class="edge"><title>DSiege&#45;&gt;OpenAL</title>
<path fill="none" stroke="black" d="M531.32,-296.734C498.916,-323.904 432.488,-379.603 395.032,-411.009"/>
<polygon fill="black" stroke="black" points="392.472,-408.587 387.058,-417.695 396.97,-413.951 392.472,-408.587"/>
</g>
<!-- DSiege&#45;&gt;DevIL -->
<g id="edge39" class="edge"><title>DSiege&#45;&gt;DevIL</title>
<path fill="none" stroke="black" d="M544.705,-262.941C531.111,-217.985 495.605,-100.564 479.321,-46.7138"/>
<polygon fill="black" stroke="black" points="482.668,-45.6895 476.423,-37.1306 475.968,-47.7156 482.668,-45.6895"/>
</g>
<!-- DSiege&#45;&gt;Freetype -->
<g id="edge41" class="edge"><title>DSiege&#45;&gt;Freetype</title>
<path fill="none" stroke="black" d="M533.399,-264.563C498.615,-230.543 418.435,-152.125 377.974,-112.552"/>
<polygon fill="black" stroke="black" points="380.265,-109.897 370.668,-105.407 375.37,-114.902 380.265,-109.897"/>
</g>
<!-- DSiege&#45;&gt;SndFile -->
<g id="edge43" class="edge"><title>DSiege&#45;&gt;SndFile</title>
<path fill="none" stroke="black" d="M567.626,-265.08C592.189,-242.781 637.063,-202.045 665.217,-176.486"/>
<polygon fill="black" stroke="black" points="667.633,-179.02 672.684,-169.707 662.927,-173.837 667.633,-179.02"/>
</g>
<!-- DSiege&#45;&gt;Chipmunk -->
<g id="edge45" class="edge"><title>DSiege&#45;&gt;Chipmunk</title>
<path fill="none" stroke="black" d="M554.14,-262.695C562.829,-222.957 583.509,-128.383 593.845,-81.1166"/>
<polygon fill="black" stroke="black" points="597.286,-81.765 596.003,-71.2482 590.447,-80.2697 597.286,-81.765"/>
</g>
<!-- DSiege&#45;&gt;Other modules? -->
<g id="edge47" class="edge"><title>DSiege&#45;&gt;Other modules?</title>
<path fill="none" stroke="black" stroke-dasharray="1,5" d="M551.635,-299.289C555.345,-345.106 565.039,-464.801 569.48,-519.639"/>
<polygon fill="black" stroke="black" points="565.999,-520.016 570.295,-529.701 572.976,-519.451 565.999,-520.016"/>
</g>
</g>
</svg>
