<?xml version="1.0" encoding="UTF-8" standalone="no"?>
<!DOCTYPE svg PUBLIC "-//W3C//DTD SVG 1.1//EN"
 "http://www.w3.org/Graphics/SVG/1.1/DTD/svg11.dtd">
<!-- Generated by graphviz version 2.26.3 (20100126.1600)
 -->
<!-- Title: SIEGE Pages: 1 -->
<svg width="964pt" height="268pt"
 viewBox="0.00 0.00 964.00 268.00" xmlns="http://www.w3.org/2000/svg" xmlns:xlink="http://www.w3.org/1999/xlink">
<g id="graph1" class="graph" transform="scale(1 1) rotate(0) translate(4 264)">
<title>SIEGE</title>
<polygon fill="white" stroke="white" points="-4,5 -4,-264 961,-264 961,5 -4,5"/>
<g id="graph2" class="cluster"><title>clusterBindings</title>
<polygon fill="none" stroke="lightblue" points="217,-176 217,-252 725,-252 725,-176 217,-176"/>
<text text-anchor="middle" x="471" y="-235.4" font-family="Times New Roman,serif" font-size="14.00">Bindings</text>
</g>
<g id="graph3" class="cluster"><title>clusterFrontend</title>
<polygon fill="none" stroke="lightgrey" points="480,-92 480,-168 570,-168 570,-92 480,-92"/>
<text text-anchor="middle" x="525" y="-151.4" font-family="Times New Roman,serif" font-size="14.00">Frontend</text>
</g>
<g id="graph4" class="cluster"><title>clusterModules</title>
<polygon fill="none" stroke="lightyellow" points="8,-8 8,-84 948,-84 948,-8 8,-8"/>
<text text-anchor="middle" x="478" y="-67.4" font-family="Times New Roman,serif" font-size="14.00">Modules</text>
</g>
<!-- C++ -->
<g id="node2" class="node"><title>C++</title>
<ellipse fill="lightblue" stroke="lightblue" cx="688" cy="-202" rx="28.8453" ry="18"/>
<text text-anchor="middle" x="688" y="-197.4" font-family="Times New Roman,serif" font-size="14.00">C++</text>
</g>
<!-- CSiege -->
<g id="node8" class="node"><title>CSiege</title>
<ellipse fill="lightgrey" stroke="lightgrey" cx="525" cy="-118" rx="37.0651" ry="18"/>
<text text-anchor="middle" x="525" y="-113.4" font-family="Times New Roman,serif" font-size="14.00">CSiege</text>
</g>
<!-- C++&#45;&gt;CSiege -->
<g id="edge5" class="edge"><title>C++&#45;&gt;CSiege</title>
<path fill="none" stroke="black" d="M669.066,-188.138C663.098,-184.017 656.392,-179.637 650,-176 621.605,-159.846 587.936,-144.422 562.699,-133.547"/>
<polygon fill="black" stroke="black" points="564.039,-130.313 553.468,-129.609 561.293,-136.752 564.039,-130.313"/>
</g>
<!-- D -->
<g id="node3" class="node"><title>D</title>
<ellipse fill="lightblue" stroke="lightblue" cx="614" cy="-202" rx="27" ry="18"/>
<text text-anchor="middle" x="614" y="-197.4" font-family="Times New Roman,serif" font-size="14.00">D</text>
</g>
<!-- D&#45;&gt;CSiege -->
<g id="edge7" class="edge"><title>D&#45;&gt;CSiege</title>
<path fill="none" stroke="black" d="M598.089,-186.982C584.634,-174.284 565.133,-155.879 549.658,-141.273"/>
<polygon fill="black" stroke="black" points="551.661,-138.35 541.986,-134.032 546.856,-143.441 551.661,-138.35"/>
</g>
<!-- CPython -->
<g id="node4" class="node"><title>CPython</title>
<ellipse fill="lightblue" stroke="lightblue" cx="525" cy="-202" rx="43.7767" ry="18"/>
<text text-anchor="middle" x="525" y="-197.4" font-family="Times New Roman,serif" font-size="14.00">CPython</text>
</g>
<!-- CPython&#45;&gt;CSiege -->
<g id="edge9" class="edge"><title>CPython&#45;&gt;CSiege</title>
<path fill="none" stroke="black" d="M525,-183.773C525,-172.876 525,-158.795 525,-146.459"/>
<polygon fill="black" stroke="black" points="528.5,-146.191 525,-136.191 521.5,-146.191 528.5,-146.191"/>
</g>
<!-- Squirrel -->
<g id="node5" class="node"><title>Squirrel</title>
<ellipse fill="lightblue" stroke="lightblue" cx="423" cy="-202" rx="40.2492" ry="18"/>
<text text-anchor="middle" x="423" y="-197.4" font-family="Times New Roman,serif" font-size="14.00">Squirrel</text>
</g>
<!-- Squirrel&#45;&gt;CSiege -->
<g id="edge11" class="edge"><title>Squirrel&#45;&gt;CSiege</title>
<path fill="none" stroke="black" d="M442.185,-186.2C457.857,-173.294 480.202,-154.893 497.732,-140.456"/>
<polygon fill="black" stroke="black" points="500.406,-142.788 505.901,-133.729 495.956,-137.384 500.406,-142.788"/>
</g>
<!-- Other bindings? -->
<g id="node6" class="node"><title>Other bindings?</title>
<ellipse fill="lightblue" stroke="lightblue" cx="295" cy="-202" rx="69.9366" ry="18"/>
<text text-anchor="middle" x="295" y="-197.4" font-family="Times New Roman,serif" font-size="14.00">Other bindings?</text>
</g>
<!-- Other bindings?&#45;&gt;CSiege -->
<g id="edge13" class="edge"><title>Other bindings?&#45;&gt;CSiege</title>
<path fill="none" stroke="black" stroke-dasharray="1,5" d="M335.326,-187.272C377.668,-171.808 443.803,-147.654 485.74,-132.338"/>
<polygon fill="black" stroke="black" points="487.143,-135.552 495.335,-128.834 484.741,-128.977 487.143,-135.552"/>
</g>
<!-- SDL -->
<g id="node10" class="node"><title>SDL</title>
<ellipse fill="lightyellow" stroke="lightyellow" cx="911" cy="-34" rx="28.8453" ry="18"/>
<text text-anchor="middle" x="911" y="-29.4" font-family="Times New Roman,serif" font-size="14.00">SDL</text>
</g>
<!-- CSiege&#45;&gt;SDL -->
<g id="edge15" class="edge"><title>CSiege&#45;&gt;SDL</title>
<path fill="none" stroke="black" d="M561.971,-116.06C646.031,-111.411 846.299,-98.9059 873,-84 882.956,-78.4421 891.119,-69.0811 897.293,-59.9518"/>
<polygon fill="black" stroke="black" points="900.299,-61.7445 902.596,-51.4016 894.351,-58.0549 900.299,-61.7445"/>
</g>
<!-- GLFW -->
<g id="node11" class="node"><title>GLFW</title>
<ellipse fill="lightyellow" stroke="lightyellow" cx="826" cy="-34" rx="38.2368" ry="18"/>
<text text-anchor="middle" x="826" y="-29.4" font-family="Times New Roman,serif" font-size="14.00">GLFW</text>
</g>
<!-- CSiege&#45;&gt;GLFW -->
<g id="edge17" class="edge"><title>CSiege&#45;&gt;GLFW</title>
<path fill="none" stroke="black" d="M561.857,-116.095C622.89,-112.441 741.902,-103.064 779,-84 790.31,-78.188 800.359,-68.5309 808.233,-59.2452"/>
<polygon fill="black" stroke="black" points="811.078,-61.29 814.569,-51.2866 805.602,-56.93 811.078,-61.29"/>
</g>
<!-- OpenGL -->
<g id="node12" class="node"><title>OpenGL</title>
<ellipse fill="lightyellow" stroke="lightyellow" cx="726" cy="-34" rx="43.7767" ry="18"/>
<text text-anchor="middle" x="726" y="-29.4" font-family="Times New Roman,serif" font-size="14.00">OpenGL</text>
</g>
<!-- CSiege&#45;&gt;OpenGL -->
<g id="edge19" class="edge"><title>CSiege&#45;&gt;OpenGL</title>
<path fill="none" stroke="black" d="M561.552,-115.007C592.711,-111.228 637.895,-102.772 673,-84 684.852,-77.6622 695.996,-67.9724 704.977,-58.8047"/>
<polygon fill="black" stroke="black" points="707.71,-61.0072 711.982,-51.3118 702.596,-56.2271 707.71,-61.0072"/>
</g>
<!-- OpenAL -->
<g id="node13" class="node"><title>OpenAL</title>
<ellipse fill="lightyellow" stroke="lightyellow" cx="621" cy="-34" rx="43.1021" ry="18"/>
<text text-anchor="middle" x="621" y="-29.4" font-family="Times New Roman,serif" font-size="14.00">OpenAL</text>
</g>
<!-- CSiege&#45;&gt;OpenAL -->
<g id="edge21" class="edge"><title>CSiege&#45;&gt;OpenAL</title>
<path fill="none" stroke="black" d="M545.517,-102.875C553.045,-97.1364 561.544,-90.4322 569,-84 578.535,-75.7742 588.601,-66.2968 597.311,-57.82"/>
<polygon fill="black" stroke="black" points="599.891,-60.1915 604.568,-50.6849 594.984,-55.1999 599.891,-60.1915"/>
</g>
<!-- DevIL -->
<g id="node14" class="node"><title>DevIL</title>
<ellipse fill="lightyellow" stroke="lightyellow" cx="525" cy="-34" rx="34.8827" ry="18"/>
<text text-anchor="middle" x="525" y="-29.4" font-family="Times New Roman,serif" font-size="14.00">DevIL</text>
</g>
<!-- CSiege&#45;&gt;DevIL -->
<g id="edge23" class="edge"><title>CSiege&#45;&gt;DevIL</title>
<path fill="none" stroke="black" d="M525,-99.7733C525,-88.8758 525,-74.7946 525,-62.4587"/>
<polygon fill="black" stroke="black" points="528.5,-62.1911 525,-52.1912 521.5,-62.1912 528.5,-62.1911"/>
</g>
<!-- Freetype -->
<g id="node15" class="node"><title>Freetype</title>
<ellipse fill="lightyellow" stroke="lightyellow" cx="429" cy="-34" rx="43.1021" ry="18"/>
<text text-anchor="middle" x="429" y="-29.4" font-family="Times New Roman,serif" font-size="14.00">Freetype</text>
</g>
<!-- CSiege&#45;&gt;Freetype -->
<g id="edge25" class="edge"><title>CSiege&#45;&gt;Freetype</title>
<path fill="none" stroke="black" d="M504.483,-102.875C496.955,-97.1364 488.456,-90.4322 481,-84 471.465,-75.7742 461.399,-66.2968 452.689,-57.82"/>
<polygon fill="black" stroke="black" points="455.016,-55.1999 445.432,-50.6849 450.109,-60.1915 455.016,-55.1999"/>
</g>
<!-- SndFile -->
<g id="node16" class="node"><title>SndFile</title>
<ellipse fill="lightyellow" stroke="lightyellow" cx="329" cy="-34" rx="39.0774" ry="18"/>
<text text-anchor="middle" x="329" y="-29.4" font-family="Times New Roman,serif" font-size="14.00">SndFile</text>
</g>
<!-- CSiege&#45;&gt;SndFile -->
<g id="edge27" class="edge"><title>CSiege&#45;&gt;SndFile</title>
<path fill="none" stroke="black" d="M488.208,-115.442C456.899,-111.936 411.63,-103.635 377,-84 365.989,-77.7569 355.923,-68.2028 347.884,-59.1126"/>
<polygon fill="black" stroke="black" points="350.475,-56.7545 341.369,-51.3385 345.11,-61.2509 350.475,-56.7545"/>
</g>
<!-- Chipmunk -->
<g id="node17" class="node"><title>Chipmunk</title>
<ellipse fill="lightyellow" stroke="lightyellow" cx="223" cy="-34" rx="49.1393" ry="18"/>
<text text-anchor="middle" x="223" y="-29.4" font-family="Times New Roman,serif" font-size="14.00">Chipmunk</text>
</g>
<!-- CSiege&#45;&gt;Chipmunk -->
<g id="edge29" class="edge"><title>CSiege&#45;&gt;Chipmunk</title>
<path fill="none" stroke="black" d="M488.375,-115.442C429.624,-110.917 317.239,-100.399 281,-84 267.68,-77.9725 255.102,-67.8971 245.085,-58.3637"/>
<polygon fill="black" stroke="black" points="247.508,-55.8368 237.955,-51.2551 242.565,-60.7941 247.508,-55.8368"/>
</g>
<!-- Other modules? -->
<g id="node18" class="node"><title>Other modules?</title>
<ellipse fill="lightyellow" stroke="lightyellow" cx="86" cy="-34" rx="69.9366" ry="18"/>
<text text-anchor="middle" x="86" y="-29.4" font-family="Times New Roman,serif" font-size="14.00">Other modules?</text>
</g>
<!-- CSiege&#45;&gt;Other modules? -->
<g id="edge31" class="edge"><title>CSiege&#45;&gt;Other modules?</title>
<path fill="none" stroke="black" stroke-dasharray="1,5" d="M487.897,-116.685C408.393,-113.514 224.035,-104.169 165,-84 147.319,-77.9594 129.567,-67.242 115.381,-57.2749"/>
<polygon fill="black" stroke="black" points="117.189,-54.2623 107.042,-51.2145 113.074,-59.9248 117.189,-54.2623"/>
</g>
</g>
</svg>
