<?xml version="1.0" encoding="UTF-8" standalone="no"?>
<!DOCTYPE svg PUBLIC "-//W3C//DTD SVG 1.1//EN"
 "http://www.w3.org/Graphics/SVG/1.1/DTD/svg11.dtd">
<!-- Generated by graphviz version 2.26.3 (20100126.1600)
 -->
<!-- Title: SIEGE Pages: 1 -->
<svg width="748pt" height="675pt"
 viewBox="0.00 0.00 747.69 674.91" xmlns="http://www.w3.org/2000/svg" xmlns:xlink="http://www.w3.org/1999/xlink">
<g id="graph1" class="graph" transform="scale(1 1) rotate(0) translate(4 670.915)">
<title>SIEGE</title>
<polygon fill="white" stroke="white" points="-4,5 -4,-670.915 744.688,-670.915 744.688,5 -4,5"/>
<!-- C++ -->
<g id="node2" class="node"><title>C++</title>
<ellipse fill="lightblue" stroke="lightblue" cx="176.78" cy="-355.665" rx="28.8453" ry="18"/>
<text text-anchor="middle" x="176.78" y="-351.065" font-family="Times New Roman,serif" font-size="14.00">C++</text>
</g>
<!-- CSiege -->
<g id="node8" class="node"><title>CSiege</title>
<ellipse fill="lightgrey" stroke="lightgrey" cx="362.334" cy="-342.97" rx="37.0651" ry="18"/>
<text text-anchor="middle" x="362.334" y="-338.37" font-family="Times New Roman,serif" font-size="14.00">CSiege</text>
</g>
<!-- C++&#45;&gt;CSiege -->
<g id="edge5" class="edge"><title>C++&#45;&gt;CSiege</title>
<path fill="none" stroke="black" d="M205.773,-353.682C235.055,-351.678 280.767,-348.551 315.252,-346.192"/>
<polygon fill="black" stroke="black" points="315.826,-349.661 325.563,-345.486 315.348,-342.677 315.826,-349.661"/>
</g>
<!-- D -->
<g id="node3" class="node"><title>D</title>
<ellipse fill="lightblue" stroke="lightblue" cx="62.3731" cy="-469.117" rx="27" ry="18"/>
<text text-anchor="middle" x="62.3731" y="-464.517" font-family="Times New Roman,serif" font-size="14.00">D</text>
</g>
<!-- D&#45;&gt;CSiege -->
<g id="edge7" class="edge"><title>D&#45;&gt;CSiege</title>
<path fill="none" stroke="black" d="M85.4124,-459.428C136.849,-437.797 261.457,-385.394 324.484,-358.888"/>
<polygon fill="black" stroke="black" points="326.189,-361.968 334.05,-354.865 323.475,-355.515 326.189,-361.968"/>
</g>
<!-- CPython -->
<g id="node4" class="node"><title>CPython</title>
<ellipse fill="lightblue" stroke="lightblue" cx="179.594" cy="-599.742" rx="43.7767" ry="18"/>
<text text-anchor="middle" x="179.594" y="-595.142" font-family="Times New Roman,serif" font-size="14.00">CPython</text>
</g>
<!-- CPython&#45;&gt;CSiege -->
<g id="edge9" class="edge"><title>CPython&#45;&gt;CSiege</title>
<path fill="none" stroke="black" d="M192.154,-582.093C223.865,-537.536 307.257,-420.36 344.234,-368.402"/>
<polygon fill="black" stroke="black" points="347.22,-370.243 350.167,-360.067 341.517,-366.185 347.22,-370.243"/>
</g>
<!-- Squirrel -->
<g id="node5" class="node"><title>Squirrel</title>
<ellipse fill="lightblue" stroke="lightblue" cx="41" cy="-244.843" rx="40.2492" ry="18"/>
<text text-anchor="middle" x="41" y="-240.243" font-family="Times New Roman,serif" font-size="14.00">Squirrel</text>
</g>
<!-- Squirrel&#45;&gt;CSiege -->
<g id="edge11" class="edge"><title>Squirrel&#45;&gt;CSiege</title>
<path fill="none" stroke="black" d="M74.1781,-254.975C133.235,-273.01 256.431,-310.63 320.934,-330.328"/>
<polygon fill="black" stroke="black" points="320.177,-333.756 330.763,-333.33 322.221,-327.061 320.177,-333.756"/>
</g>
<!-- Other bindings? -->
<g id="node6" class="node"><title>Other bindings?</title>
<ellipse fill="lightblue" stroke="lightblue" cx="152.213" cy="-119.391" rx="69.9366" ry="18"/>
<text text-anchor="middle" x="152.213" y="-114.791" font-family="Times New Roman,serif" font-size="14.00">Other bindings?</text>
</g>
<!-- Other bindings?&#45;&gt;CSiege -->
<g id="edge13" class="edge"><title>Other bindings?&#45;&gt;CSiege</title>
<path fill="none" stroke="black" stroke-dasharray="1,5" d="M168.701,-136.935C206.106,-176.736 297.436,-273.916 339.919,-319.12"/>
<polygon fill="black" stroke="black" points="337.383,-321.532 346.782,-326.422 342.484,-316.738 337.383,-321.532"/>
</g>
<!-- SDL -->
<g id="node10" class="node"><title>SDL</title>
<ellipse fill="lightyellow" stroke="lightyellow" cx="639.193" cy="-418.492" rx="28.8453" ry="18"/>
<text text-anchor="middle" x="639.193" y="-413.892" font-family="Times New Roman,serif" font-size="14.00">SDL</text>
</g>
<!-- CSiege&#45;&gt;SDL -->
<g id="edge15" class="edge"><title>CSiege&#45;&gt;SDL</title>
<path fill="none" stroke="black" d="M394.635,-351.781C446.495,-365.928 548.018,-393.621 602.524,-408.49"/>
<polygon fill="black" stroke="black" points="601.882,-411.942 612.451,-411.197 603.725,-405.189 601.882,-411.942"/>
</g>
<!-- GLFW -->
<g id="node11" class="node"><title>GLFW</title>
<ellipse fill="lightyellow" stroke="lightyellow" cx="571.342" cy="-207.798" rx="38.2368" ry="18"/>
<text text-anchor="middle" x="571.342" y="-203.198" font-family="Times New Roman,serif" font-size="14.00">GLFW</text>
</g>
<!-- CSiege&#45;&gt;GLFW -->
<g id="edge17" class="edge"><title>CSiege&#45;&gt;GLFW</title>
<path fill="none" stroke="black" d="M384.701,-328.505C422.16,-304.279 497.652,-255.456 540.253,-227.904"/>
<polygon fill="black" stroke="black" points="542.323,-230.734 548.819,-222.364 538.522,-224.856 542.323,-230.734"/>
</g>
<!-- OpenGL -->
<g id="node12" class="node"><title>OpenGL</title>
<ellipse fill="lightyellow" stroke="lightyellow" cx="694.188" cy="-272.261" rx="43.7767" ry="18"/>
<text text-anchor="middle" x="694.188" y="-267.661" font-family="Times New Roman,serif" font-size="14.00">OpenGL</text>
</g>
<!-- CSiege&#45;&gt;OpenGL -->
<g id="edge19" class="edge"><title>CSiege&#45;&gt;OpenGL</title>
<path fill="none" stroke="black" d="M396.288,-335.735C455.211,-323.181 576.616,-297.312 644.849,-282.774"/>
<polygon fill="black" stroke="black" points="645.87,-286.135 654.921,-280.627 644.411,-279.288 645.87,-286.135"/>
</g>
<!-- OpenAL -->
<g id="node13" class="node"><title>OpenAL</title>
<ellipse fill="lightyellow" stroke="lightyellow" cx="292.134" cy="-52.9026" rx="43.1021" ry="18"/>
<text text-anchor="middle" x="292.134" y="-48.3026" font-family="Times New Roman,serif" font-size="14.00">OpenAL</text>
</g>
<!-- CSiege&#45;&gt;OpenAL -->
<g id="edge21" class="edge"><title>CSiege&#45;&gt;OpenAL</title>
<path fill="none" stroke="black" d="M357.942,-324.825C346.049,-275.684 313.154,-139.759 298.884,-80.7942"/>
<polygon fill="black" stroke="black" points="302.277,-79.9369 296.523,-71.0408 295.474,-81.5835 302.277,-79.9369"/>
</g>
<!-- DevIL -->
<g id="node14" class="node"><title>DevIL</title>
<ellipse fill="lightyellow" stroke="lightyellow" cx="416.014" cy="-169.3" rx="34.8827" ry="18"/>
<text text-anchor="middle" x="416.014" y="-164.7" font-family="Times New Roman,serif" font-size="14.00">DevIL</text>
</g>
<!-- CSiege&#45;&gt;DevIL -->
<g id="edge23" class="edge"><title>CSiege&#45;&gt;DevIL</title>
<path fill="none" stroke="black" d="M367.876,-325.039C377.263,-294.671 396.349,-232.923 407.461,-196.972"/>
<polygon fill="black" stroke="black" points="410.892,-197.722 410.501,-187.135 404.204,-195.655 410.892,-197.722"/>
</g>
<!-- Freetype -->
<g id="node15" class="node"><title>Freetype</title>
<ellipse fill="lightyellow" stroke="lightyellow" cx="473.907" cy="-19" rx="43.1021" ry="18"/>
<text text-anchor="middle" x="473.907" y="-14.4" font-family="Times New Roman,serif" font-size="14.00">Freetype</text>
</g>
<!-- CSiege&#45;&gt;Freetype -->
<g id="edge25" class="edge"><title>CSiege&#45;&gt;Freetype</title>
<path fill="none" stroke="black" d="M368.491,-325.091C387.008,-271.326 442.27,-110.863 464.496,-46.3272"/>
<polygon fill="black" stroke="black" points="467.822,-47.419 467.769,-36.8243 461.203,-45.1396 467.822,-47.419"/>
</g>
<!-- SndFile -->
<g id="node16" class="node"><title>SndFile</title>
<ellipse fill="lightyellow" stroke="lightyellow" cx="470.701" cy="-647.915" rx="39.0774" ry="18"/>
<text text-anchor="middle" x="470.701" y="-643.315" font-family="Times New Roman,serif" font-size="14.00">SndFile</text>
</g>
<!-- CSiege&#45;&gt;SndFile -->
<g id="edge27" class="edge"><title>CSiege&#45;&gt;SndFile</title>
<path fill="none" stroke="black" d="M368.788,-361.133C387.008,-412.404 438.93,-558.512 460.799,-620.051"/>
<polygon fill="black" stroke="black" points="457.634,-621.597 464.28,-629.847 464.23,-619.253 457.634,-621.597"/>
</g>
<!-- Chipmunk -->
<g id="node17" class="node"><title>Chipmunk</title>
<ellipse fill="lightyellow" stroke="lightyellow" cx="566.389" cy="-538.763" rx="49.1393" ry="18"/>
<text text-anchor="middle" x="566.389" y="-534.163" font-family="Times New Roman,serif" font-size="14.00">Chipmunk</text>
</g>
<!-- CSiege&#45;&gt;Chipmunk -->
<g id="edge29" class="edge"><title>CSiege&#45;&gt;Chipmunk</title>
<path fill="none" stroke="black" d="M379.38,-359.327C415.36,-393.849 499.2,-474.294 541.311,-514.7"/>
<polygon fill="black" stroke="black" points="539.029,-517.361 548.667,-521.759 543.875,-512.31 539.029,-517.361"/>
</g>
<!-- Other modules? -->
<g id="node18" class="node"><title>Other modules?</title>
<ellipse fill="lightyellow" stroke="lightyellow" cx="328.902" cy="-595.079" rx="69.9366" ry="18"/>
<text text-anchor="middle" x="328.902" y="-590.479" font-family="Times New Roman,serif" font-size="14.00">Other modules?</text>
</g>
<!-- CSiege&#45;&gt;Other modules? -->
<g id="edge31" class="edge"><title>CSiege&#45;&gt;Other modules?</title>
<path fill="none" stroke="black" stroke-dasharray="1,5" d="M359.929,-361.101C354.173,-404.514 339.563,-514.683 332.645,-566.857"/>
<polygon fill="black" stroke="black" points="329.175,-566.401 331.33,-576.774 336.114,-567.321 329.175,-566.401"/>
</g>
</g>
</svg>
