<?xml version="1.0" encoding="UTF-8" standalone="no"?>
<!DOCTYPE svg PUBLIC "-//W3C//DTD SVG 1.1//EN"
 "http://www.w3.org/Graphics/SVG/1.1/DTD/svg11.dtd">
<!-- Generated by graphviz version 2.26.3 (20100126.1600)
 -->
<!-- Title: SIEGE Pages: 1 -->
<svg width="790pt" height="548pt"
 viewBox="0.00 0.00 789.66 548.09" xmlns="http://www.w3.org/2000/svg" xmlns:xlink="http://www.w3.org/1999/xlink">
<g id="graph1" class="graph" transform="scale(1 1) rotate(0) translate(4 544.094)">
<title>SIEGE</title>
<polygon fill="white" stroke="white" points="-4,5 -4,-544.094 786.658,-544.094 786.658,5 -4,5"/>
<!-- GameCraft -->
<g id="node2" class="node"><title>GameCraft</title>
<ellipse fill="yellow" stroke="yellow" cx="75.1582" cy="-247.86" rx="51.8257" ry="18"/>
<text text-anchor="middle" x="75.1582" y="-243.26" font-family="Times New Roman,serif" font-size="14.00">GameCraft</text>
</g>
<!-- TinyPy -->
<g id="node6" class="node"><title>TinyPy</title>
<ellipse fill="lightblue" stroke="lightblue" cx="84.6562" cy="-110.026" rx="38.2368" ry="18"/>
<text text-anchor="middle" x="84.6562" y="-105.426" font-family="Times New Roman,serif" font-size="14.00">TinyPy</text>
</g>
<!-- GameCraft&#45;&gt;TinyPy -->
<g id="edge6" class="edge"><title>GameCraft&#45;&gt;TinyPy</title>
<path fill="none" stroke="black" stroke-dasharray="5,2" d="M76.3999,-229.84C78.0069,-206.52 80.8244,-165.632 82.7152,-138.193"/>
<polygon fill="black" stroke="black" points="86.2184,-138.266 83.4142,-128.05 79.235,-137.785 86.2184,-138.266"/>
<text text-anchor="middle" x="61.5576" y="-178.417" font-family="Times New Roman,serif" font-size="14.00">One of...</text>
</g>
<!-- Other bindings? -->
<g id="node7" class="node"><title>Other bindings?</title>
<ellipse fill="lightblue" stroke="lightblue" cx="71.5" cy="-385.179" rx="69.9366" ry="18"/>
<text text-anchor="middle" x="71.5" y="-380.579" font-family="Times New Roman,serif" font-size="14.00">Other bindings?</text>
</g>
<!-- GameCraft&#45;&gt;Other bindings? -->
<g id="edge8" class="edge"><title>GameCraft&#45;&gt;Other bindings?</title>
<path fill="none" stroke="black" stroke-dasharray="5,2" d="M74.6724,-266.095C74.0547,-289.281 72.9815,-329.566 72.2563,-356.789"/>
<polygon fill="black" stroke="black" points="68.7554,-356.779 71.9878,-366.869 75.7529,-356.965 68.7554,-356.779"/>
</g>
<!-- CSiege -->
<g id="node9" class="node"><title>CSiege</title>
<ellipse fill="lightgrey" stroke="lightgrey" cx="405.14" cy="-263.224" rx="37.0651" ry="18"/>
<text text-anchor="middle" x="405.14" y="-258.624" font-family="Times New Roman,serif" font-size="14.00">CSiege</text>
</g>
<!-- GameCraft&#45;&gt;CSiege -->
<g id="edge10" class="edge"><title>GameCraft&#45;&gt;CSiege</title>
<path fill="none" stroke="black" stroke-dasharray="1,5" d="M126.718,-250.26C190.118,-253.212 296.829,-258.181 358.089,-261.034"/>
<polygon fill="black" stroke="black" points="358.096,-264.538 368.248,-261.507 358.421,-257.545 358.096,-264.538"/>
<text text-anchor="middle" x="242.404" y="-242.047" font-family="Times New Roman,serif" font-size="14.00">GUI</text>
</g>
<!-- C++ -->
<g id="node4" class="node"><title>C++</title>
<ellipse fill="lightblue" stroke="lightblue" cx="231.657" cy="-70.4399" rx="28.8453" ry="18"/>
<text text-anchor="middle" x="231.657" y="-65.8399" font-family="Times New Roman,serif" font-size="14.00">C++</text>
</g>
<!-- C++&#45;&gt;CSiege -->
<g id="edge12" class="edge"><title>C++&#45;&gt;CSiege</title>
<path fill="none" stroke="black" d="M245.854,-86.2162C276.2,-119.939 347.542,-199.218 383.548,-239.23"/>
<polygon fill="black" stroke="black" points="380.965,-241.591 390.256,-246.684 386.168,-236.909 380.965,-241.591"/>
</g>
<!-- D -->
<g id="node5" class="node"><title>D</title>
<ellipse fill="lightblue" stroke="lightblue" cx="185.844" cy="-483.225" rx="27" ry="18"/>
<text text-anchor="middle" x="185.844" y="-478.625" font-family="Times New Roman,serif" font-size="14.00">D</text>
</g>
<!-- D&#45;&gt;CSiege -->
<g id="edge14" class="edge"><title>D&#45;&gt;CSiege</title>
<path fill="none" stroke="black" d="M200.917,-468.103C238.422,-430.478 336.172,-332.414 381.466,-286.975"/>
<polygon fill="black" stroke="black" points="384.197,-289.193 388.778,-279.639 379.239,-284.251 384.197,-289.193"/>
</g>
<!-- TinyPy&#45;&gt;CSiege -->
<g id="edge16" class="edge"><title>TinyPy&#45;&gt;CSiege</title>
<path fill="none" stroke="black" d="M111.429,-122.824C168.953,-150.322 304.371,-215.054 369.254,-246.07"/>
<polygon fill="black" stroke="black" points="368.137,-249.415 378.669,-250.57 371.156,-243.1 368.137,-249.415"/>
</g>
<!-- Other bindings?&#45;&gt;CSiege -->
<g id="edge18" class="edge"><title>Other bindings?&#45;&gt;CSiege</title>
<path fill="none" stroke="black" stroke-dasharray="1,5" d="M112.077,-370.347C176.532,-346.787 301.536,-301.095 365.438,-277.737"/>
<polygon fill="black" stroke="black" points="366.96,-280.907 375.15,-274.187 364.557,-274.332 366.96,-280.907"/>
</g>
<!-- SDL -->
<g id="node12" class="node"><title>SDL</title>
<ellipse fill="lightyellow" stroke="lightyellow" cx="602.406" cy="-480.647" rx="28.8453" ry="18"/>
<text text-anchor="middle" x="602.406" y="-476.047" font-family="Times New Roman,serif" font-size="14.00">SDL</text>
</g>
<!-- CSiege&#45;&gt;SDL -->
<g id="edge20" class="edge"><title>CSiege&#45;&gt;SDL</title>
<path fill="none" stroke="black" d="M420.292,-279.924C455.114,-318.305 540.931,-412.89 581.066,-457.127"/>
<polygon fill="black" stroke="black" points="578.695,-459.722 588.006,-464.776 583.879,-455.018 578.695,-459.722"/>
</g>
<!-- GLFW -->
<g id="node13" class="node"><title>GLFW</title>
<ellipse fill="lightyellow" stroke="lightyellow" cx="742.658" cy="-280.618" rx="38.2368" ry="18"/>
<text text-anchor="middle" x="742.658" y="-276.018" font-family="Times New Roman,serif" font-size="14.00">GLFW</text>
</g>
<!-- CSiege&#45;&gt;GLFW -->
<g id="edge22" class="edge"><title>CSiege&#45;&gt;GLFW</title>
<path fill="none" stroke="black" d="M442.226,-265.136C503.715,-268.305 626.72,-274.644 694.716,-278.148"/>
<polygon fill="black" stroke="black" points="694.57,-281.645 704.737,-278.664 694.93,-274.654 694.57,-281.645"/>
</g>
<!-- OpenGL -->
<g id="node14" class="node"><title>OpenGL</title>
<ellipse fill="lightyellow" stroke="lightyellow" cx="521.367" cy="-19" rx="43.7767" ry="18"/>
<text text-anchor="middle" x="521.367" y="-14.4" font-family="Times New Roman,serif" font-size="14.00">OpenGL</text>
</g>
<!-- CSiege&#45;&gt;OpenGL -->
<g id="edge24" class="edge"><title>CSiege&#45;&gt;OpenGL</title>
<path fill="none" stroke="black" d="M413.499,-245.66C433.555,-203.518 484.515,-96.4358 508.507,-46.0238"/>
<polygon fill="black" stroke="black" points="511.791,-47.2667 512.928,-36.733 505.47,-44.2586 511.791,-47.2667"/>
</g>
<!-- OpenAL -->
<g id="node15" class="node"><title>OpenAL</title>
<ellipse fill="lightyellow" stroke="lightyellow" cx="698.618" cy="-408.053" rx="43.1021" ry="18"/>
<text text-anchor="middle" x="698.618" y="-403.453" font-family="Times New Roman,serif" font-size="14.00">OpenAL</text>
</g>
<!-- CSiege&#45;&gt;OpenAL -->
<g id="edge26" class="edge"><title>CSiege&#45;&gt;OpenAL</title>
<path fill="none" stroke="black" d="M431.185,-276.077C483.383,-301.836 600.959,-359.859 661.318,-389.645"/>
<polygon fill="black" stroke="black" points="659.978,-392.887 670.495,-394.174 663.076,-386.61 659.978,-392.887"/>
</g>
<!-- DevIL -->
<g id="node16" class="node"><title>DevIL</title>
<ellipse fill="lightyellow" stroke="lightyellow" cx="488.782" cy="-521.094" rx="34.8827" ry="18"/>
<text text-anchor="middle" x="488.782" y="-516.494" font-family="Times New Roman,serif" font-size="14.00">DevIL</text>
</g>
<!-- CSiege&#45;&gt;DevIL -->
<g id="edge28" class="edge"><title>CSiege&#45;&gt;DevIL</title>
<path fill="none" stroke="black" d="M411.022,-281.357C425.454,-325.853 462.691,-440.653 479.864,-493.599"/>
<polygon fill="black" stroke="black" points="476.604,-494.892 483.018,-503.324 483.262,-492.732 476.604,-494.892"/>
</g>
<!-- Freetype -->
<g id="node17" class="node"><title>Freetype</title>
<ellipse fill="lightyellow" stroke="lightyellow" cx="713.272" cy="-148.228" rx="43.1021" ry="18"/>
<text text-anchor="middle" x="713.272" y="-143.628" font-family="Times New Roman,serif" font-size="14.00">Freetype</text>
</g>
<!-- CSiege&#45;&gt;Freetype -->
<g id="edge30" class="edge"><title>CSiege&#45;&gt;Freetype</title>
<path fill="none" stroke="black" d="M434.685,-252.198C489.733,-231.654 608.128,-187.468 671.395,-163.856"/>
<polygon fill="black" stroke="black" points="672.913,-167.026 681.058,-160.25 670.465,-160.468 672.913,-167.026"/>
</g>
<!-- SndFile -->
<g id="node18" class="node"><title>SndFile</title>
<ellipse fill="lightyellow" stroke="lightyellow" cx="396.458" cy="-434.315" rx="39.0774" ry="18"/>
<text text-anchor="middle" x="396.458" y="-429.715" font-family="Times New Roman,serif" font-size="14.00">SndFile</text>
</g>
<!-- CSiege&#45;&gt;SndFile -->
<g id="edge32" class="edge"><title>CSiege&#45;&gt;SndFile</title>
<path fill="none" stroke="black" d="M404.211,-281.534C402.697,-311.377 399.686,-370.711 397.894,-406.012"/>
<polygon fill="black" stroke="black" points="394.392,-405.972 397.38,-416.137 401.383,-406.327 394.392,-405.972"/>
</g>
<!-- Chipmunk -->
<g id="node19" class="node"><title>Chipmunk</title>
<ellipse fill="lightyellow" stroke="lightyellow" cx="404.21" cy="-51.2388" rx="49.1393" ry="18"/>
<text text-anchor="middle" x="404.21" y="-46.6388" font-family="Times New Roman,serif" font-size="14.00">Chipmunk</text>
</g>
<!-- CSiege&#45;&gt;Chipmunk -->
<g id="edge34" class="edge"><title>CSiege&#45;&gt;Chipmunk</title>
<path fill="none" stroke="black" d="M405.061,-245.151C404.899,-208.151 404.528,-123.549 404.334,-79.3315"/>
<polygon fill="black" stroke="black" points="407.833,-79.2514 404.289,-69.2668 400.834,-79.2821 407.833,-79.2514"/>
</g>
<!-- Other modules? -->
<g id="node20" class="node"><title>Other modules?</title>
<ellipse fill="lightyellow" stroke="lightyellow" cx="630.627" cy="-57.3552" rx="69.9366" ry="18"/>
<text text-anchor="middle" x="630.627" y="-52.7552" font-family="Times New Roman,serif" font-size="14.00">Other modules?</text>
</g>
<!-- CSiege&#45;&gt;Other modules? -->
<g id="edge36" class="edge"><title>CSiege&#45;&gt;Other modules?</title>
<path fill="none" stroke="black" stroke-dasharray="1,5" d="M422.834,-247.07C462.19,-211.139 557.172,-124.42 603.839,-81.8131"/>
<polygon fill="black" stroke="black" points="606.408,-84.207 611.433,-74.8797 601.688,-79.0375 606.408,-84.207"/>
</g>
<!-- DSiege -->
<g id="node10" class="node"><title>DSiege</title>
<ellipse fill="lightgrey" stroke="lightgrey" cx="574.878" cy="-265.105" rx="37.0651" ry="18"/>
<text text-anchor="middle" x="574.878" y="-260.505" font-family="Times New Roman,serif" font-size="14.00">DSiege</text>
</g>
<!-- DSiege&#45;&gt;SDL -->
<g id="edge38" class="edge"><title>DSiege&#45;&gt;SDL</title>
<path fill="none" stroke="black" d="M577.178,-283.111C581.975,-320.672 593.079,-407.615 598.821,-452.582"/>
<polygon fill="black" stroke="black" points="595.355,-453.064 600.093,-462.54 602.298,-452.177 595.355,-453.064"/>
</g>
<!-- DSiege&#45;&gt;GLFW -->
<g id="edge40" class="edge"><title>DSiege&#45;&gt;GLFW</title>
<path fill="none" stroke="black" d="M611.284,-268.471C635.788,-270.737 668.352,-273.748 694.928,-276.205"/>
<polygon fill="black" stroke="black" points="694.882,-279.716 705.162,-277.151 695.527,-272.745 694.882,-279.716"/>
</g>
<!-- DSiege&#45;&gt;OpenGL -->
<g id="edge42" class="edge"><title>DSiege&#45;&gt;OpenGL</title>
<path fill="none" stroke="black" d="M570.944,-247.008C561.705,-204.518 538.571,-98.123 527.482,-47.1224"/>
<polygon fill="black" stroke="black" points="530.853,-46.1512 525.308,-37.1232 524.012,-47.6385 530.853,-46.1512"/>
</g>
<!-- DSiege&#45;&gt;OpenAL -->
<g id="edge44" class="edge"><title>DSiege&#45;&gt;OpenAL</title>
<path fill="none" stroke="black" d="M589.315,-281.782C610.993,-306.825 652.086,-354.298 677.245,-383.363"/>
<polygon fill="black" stroke="black" points="674.699,-385.768 683.89,-391.038 679.991,-381.187 674.699,-385.768"/>
</g>
<!-- DSiege&#45;&gt;DevIL -->
<g id="edge46" class="edge"><title>DSiege&#45;&gt;DevIL</title>
<path fill="none" stroke="black" d="M568.824,-283.105C554.004,-327.17 515.825,-440.689 498.091,-493.417"/>
<polygon fill="black" stroke="black" points="494.7,-492.52 494.83,-503.114 501.335,-494.751 494.7,-492.52"/>
</g>
<!-- DSiege&#45;&gt;Freetype -->
<g id="edge48" class="edge"><title>DSiege&#45;&gt;Freetype</title>
<path fill="none" stroke="black" d="M593.543,-249.342C617.449,-229.153 659.048,-194.022 686.372,-170.946"/>
<polygon fill="black" stroke="black" points="688.633,-173.617 694.015,-164.49 684.117,-168.269 688.633,-173.617"/>
</g>
<!-- DSiege&#45;&gt;SndFile -->
<g id="edge50" class="edge"><title>DSiege&#45;&gt;SndFile</title>
<path fill="none" stroke="black" d="M557.771,-281.329C526.013,-311.447 457.845,-376.096 421.113,-410.932"/>
<polygon fill="black" stroke="black" points="418.623,-408.47 413.776,-417.891 423.44,-413.549 418.623,-408.47"/>
</g>
<!-- DSiege&#45;&gt;Chipmunk -->
<g id="edge52" class="edge"><title>DSiege&#45;&gt;Chipmunk</title>
<path fill="none" stroke="black" d="M561.486,-248.323C531.662,-210.95 459.63,-120.686 424.355,-76.4827"/>
<polygon fill="black" stroke="black" points="426.987,-74.1698 418.014,-68.5366 421.516,-78.536 426.987,-74.1698"/>
</g>
<!-- DSiege&#45;&gt;Other modules? -->
<g id="edge54" class="edge"><title>DSiege&#45;&gt;Other modules?</title>
<path fill="none" stroke="black" stroke-dasharray="1,5" d="M579.728,-247.032C589.468,-210.734 611.468,-128.751 623.097,-85.4176"/>
<polygon fill="black" stroke="black" points="626.538,-86.0998 625.749,-75.5343 619.777,-84.2855 626.538,-86.0998"/>
</g>
</g>
</svg>
