<?xml version="1.0" encoding="UTF-8" standalone="no"?>
<!DOCTYPE svg PUBLIC "-//W3C//DTD SVG 1.1//EN"
 "http://www.w3.org/Graphics/SVG/1.1/DTD/svg11.dtd">
<!-- Generated by graphviz version 2.26.3 (20100126.1600)
 -->
<!-- Title: SIEGE Pages: 1 -->
<svg width="964pt" height="268pt"
 viewBox="0.00 0.00 964.00 268.00" xmlns="http://www.w3.org/2000/svg" xmlns:xlink="http://www.w3.org/1999/xlink">
<g id="graph1" class="graph" transform="scale(1 1) rotate(0) translate(4 264)">
<title>SIEGE</title>
<polygon fill="white" stroke="white" points="-4,5 -4,-264 961,-264 961,5 -4,5"/>
<g id="graph2" class="cluster"><title>clusterBindings</title>
<polygon fill="none" stroke="lightblue" points="306,-176 306,-252 704,-252 704,-176 306,-176"/>
<text text-anchor="middle" x="505" y="-235.4" font-family="Times New Roman,serif" font-size="14.00">Bindings</text>
</g>
<g id="graph3" class="cluster"><title>clusterFrontend</title>
<polygon fill="none" stroke="lightgrey" points="414,-92 414,-168 596,-168 596,-92 414,-92"/>
<text text-anchor="middle" x="505" y="-151.4" font-family="Times New Roman,serif" font-size="14.00">Frontend</text>
</g>
<g id="graph4" class="cluster"><title>clusterModules</title>
<polygon fill="none" stroke="lightyellow" points="8,-8 8,-84 948,-84 948,-8 8,-8"/>
<text text-anchor="middle" x="478" y="-67.4" font-family="Times New Roman,serif" font-size="14.00">Modules</text>
</g>
<!-- C++ -->
<g id="node2" class="node"><title>C++</title>
<ellipse fill="lightblue" stroke="lightblue" cx="667" cy="-202" rx="28.8453" ry="18"/>
<text text-anchor="middle" x="667" y="-197.4" font-family="Times New Roman,serif" font-size="14.00">C++</text>
</g>
<!-- CSiege -->
<g id="node7" class="node"><title>CSiege</title>
<ellipse fill="lightgrey" stroke="lightgrey" cx="551" cy="-118" rx="37.0651" ry="18"/>
<text text-anchor="middle" x="551" y="-113.4" font-family="Times New Roman,serif" font-size="14.00">CSiege</text>
</g>
<!-- C++&#45;&gt;CSiege -->
<g id="edge5" class="edge"><title>C++&#45;&gt;CSiege</title>
<path fill="none" stroke="black" d="M648.104,-188.317C629.71,-174.997 601.493,-154.564 580.208,-139.15"/>
<polygon fill="black" stroke="black" points="582.001,-136.127 571.848,-133.097 577.895,-141.797 582.001,-136.127"/>
</g>
<!-- D -->
<g id="node3" class="node"><title>D</title>
<ellipse fill="lightblue" stroke="lightblue" cx="593" cy="-202" rx="27" ry="18"/>
<text text-anchor="middle" x="593" y="-197.4" font-family="Times New Roman,serif" font-size="14.00">D</text>
</g>
<!-- D&#45;&gt;CSiege -->
<g id="edge7" class="edge"><title>D&#45;&gt;CSiege</title>
<path fill="none" stroke="black" d="M584.298,-184.595C578.536,-173.072 570.867,-157.734 564.342,-144.683"/>
<polygon fill="black" stroke="black" points="567.438,-143.051 559.836,-135.672 561.177,-146.181 567.438,-143.051"/>
</g>
<!-- TinyPy -->
<g id="node4" class="node"><title>TinyPy</title>
<ellipse fill="lightblue" stroke="lightblue" cx="510" cy="-202" rx="38.2368" ry="18"/>
<text text-anchor="middle" x="510" y="-197.4" font-family="Times New Roman,serif" font-size="14.00">TinyPy</text>
</g>
<!-- TinyPy&#45;&gt;CSiege -->
<g id="edge9" class="edge"><title>TinyPy&#45;&gt;CSiege</title>
<path fill="none" stroke="black" d="M518.695,-184.186C524.24,-172.826 531.532,-157.886 537.785,-145.075"/>
<polygon fill="black" stroke="black" points="541.076,-146.31 542.317,-135.789 534.786,-143.24 541.076,-146.31"/>
</g>
<!-- Other bindings? -->
<g id="node5" class="node"><title>Other bindings?</title>
<ellipse fill="lightblue" stroke="lightblue" cx="384" cy="-202" rx="69.9366" ry="18"/>
<text text-anchor="middle" x="384" y="-197.4" font-family="Times New Roman,serif" font-size="14.00">Other bindings?</text>
</g>
<!-- Other bindings?&#45;&gt;CSiege -->
<g id="edge11" class="edge"><title>Other bindings?&#45;&gt;CSiege</title>
<path fill="none" stroke="black" stroke-dasharray="1,5" d="M425.111,-187.35C437.22,-183.341 450.559,-179.218 463,-176 481.397,-171.242 488.394,-177.237 505,-168 515.733,-162.03 525.345,-152.644 532.972,-143.61"/>
<polygon fill="black" stroke="black" points="535.919,-145.528 539.394,-135.519 530.436,-141.176 535.919,-145.528"/>
</g>
<!-- SDL -->
<g id="node10" class="node"><title>SDL</title>
<ellipse fill="lightyellow" stroke="lightyellow" cx="45" cy="-34" rx="28.8453" ry="18"/>
<text text-anchor="middle" x="45" y="-29.4" font-family="Times New Roman,serif" font-size="14.00">SDL</text>
</g>
<!-- CSiege&#45;&gt;SDL -->
<g id="edge13" class="edge"><title>CSiege&#45;&gt;SDL</title>
<path fill="none" stroke="black" d="M529.51,-102.946C522.088,-98.5575 513.495,-94.321 505,-92 482.38,-85.82 103.907,-94.6183 83,-84 72.8339,-78.8367 64.6323,-69.548 58.4866,-60.366"/>
<polygon fill="black" stroke="black" points="61.4192,-58.4524 53.2273,-51.7335 55.4413,-62.0944 61.4192,-58.4524"/>
</g>
<!-- GLFW -->
<g id="node11" class="node"><title>GLFW</title>
<ellipse fill="lightyellow" stroke="lightyellow" cx="902" cy="-34" rx="38.2368" ry="18"/>
<text text-anchor="middle" x="902" y="-29.4" font-family="Times New Roman,serif" font-size="14.00">GLFW</text>
</g>
<!-- CSiege&#45;&gt;GLFW -->
<g id="edge15" class="edge"><title>CSiege&#45;&gt;GLFW</title>
<path fill="none" stroke="black" d="M588.022,-117.029C658.492,-114.669 808.989,-107.017 855,-84 866.372,-78.311 876.432,-68.6743 884.296,-59.3706"/>
<polygon fill="black" stroke="black" points="887.154,-61.3998 890.62,-51.388 881.667,-57.0529 887.154,-61.3998"/>
</g>
<!-- OpenGL -->
<g id="node12" class="node"><title>OpenGL</title>
<ellipse fill="lightyellow" stroke="lightyellow" cx="802" cy="-34" rx="43.7767" ry="18"/>
<text text-anchor="middle" x="802" y="-29.4" font-family="Times New Roman,serif" font-size="14.00">OpenGL</text>
</g>
<!-- CSiege&#45;&gt;OpenGL -->
<g id="edge17" class="edge"><title>CSiege&#45;&gt;OpenGL</title>
<path fill="none" stroke="black" d="M587.623,-114.271C636.828,-108.827 721.307,-97.83 749,-84 761.024,-77.995 772.197,-68.3618 781.154,-59.1464"/>
<polygon fill="black" stroke="black" points="783.916,-61.3147 788.127,-51.5926 778.772,-56.5667 783.916,-61.3147"/>
</g>
<!-- OpenAL -->
<g id="node13" class="node"><title>OpenAL</title>
<ellipse fill="lightyellow" stroke="lightyellow" cx="697" cy="-34" rx="43.1021" ry="18"/>
<text text-anchor="middle" x="697" y="-29.4" font-family="Times New Roman,serif" font-size="14.00">OpenAL</text>
</g>
<!-- CSiege&#45;&gt;OpenAL -->
<g id="edge19" class="edge"><title>CSiege&#45;&gt;OpenAL</title>
<path fill="none" stroke="black" d="M584.294,-109.668C603.005,-104.099 626.285,-95.6404 645,-84 656.133,-77.0753 666.857,-67.4527 675.644,-58.4967"/>
<polygon fill="black" stroke="black" points="678.211,-60.8761 682.536,-51.2044 673.124,-56.0679 678.211,-60.8761"/>
</g>
<!-- DevIL -->
<g id="node14" class="node"><title>DevIL</title>
<ellipse fill="lightyellow" stroke="lightyellow" cx="601" cy="-34" rx="34.8827" ry="18"/>
<text text-anchor="middle" x="601" y="-29.4" font-family="Times New Roman,serif" font-size="14.00">DevIL</text>
</g>
<!-- CSiege&#45;&gt;DevIL -->
<g id="edge21" class="edge"><title>CSiege&#45;&gt;DevIL</title>
<path fill="none" stroke="black" d="M561.36,-100.595C568.332,-88.8818 577.65,-73.2277 585.5,-60.0398"/>
<polygon fill="black" stroke="black" points="588.546,-61.7657 590.653,-51.3826 582.531,-58.1853 588.546,-61.7657"/>
</g>
<!-- Freetype -->
<g id="node15" class="node"><title>Freetype</title>
<ellipse fill="lightyellow" stroke="lightyellow" cx="505" cy="-34" rx="43.1021" ry="18"/>
<text text-anchor="middle" x="505" y="-29.4" font-family="Times New Roman,serif" font-size="14.00">Freetype</text>
</g>
<!-- CSiege&#45;&gt;Freetype -->
<g id="edge23" class="edge"><title>CSiege&#45;&gt;Freetype</title>
<path fill="none" stroke="black" d="M541.469,-100.595C535.158,-89.0717 526.759,-73.7344 519.612,-60.6834"/>
<polygon fill="black" stroke="black" points="522.55,-58.7614 514.677,-51.6716 516.411,-62.1237 522.55,-58.7614"/>
</g>
<!-- SndFile -->
<g id="node16" class="node"><title>SndFile</title>
<ellipse fill="lightyellow" stroke="lightyellow" cx="405" cy="-34" rx="39.0774" ry="18"/>
<text text-anchor="middle" x="405" y="-29.4" font-family="Times New Roman,serif" font-size="14.00">SndFile</text>
</g>
<!-- CSiege&#45;&gt;SndFile -->
<g id="edge25" class="edge"><title>CSiege&#45;&gt;SndFile</title>
<path fill="none" stroke="black" d="M528.84,-103.334C521.514,-99.0786 513.148,-94.8232 505,-92 482.906,-84.3444 473.749,-94.7817 453,-84 441.603,-78.078 431.366,-68.4025 423.302,-59.1329"/>
<polygon fill="black" stroke="black" points="425.845,-56.7142 416.801,-51.1959 420.43,-61.1499 425.845,-56.7142"/>
</g>
<!-- Chipmunk -->
<g id="node17" class="node"><title>Chipmunk</title>
<ellipse fill="lightyellow" stroke="lightyellow" cx="299" cy="-34" rx="49.1393" ry="18"/>
<text text-anchor="middle" x="299" y="-29.4" font-family="Times New Roman,serif" font-size="14.00">Chipmunk</text>
</g>
<!-- CSiege&#45;&gt;Chipmunk -->
<g id="edge27" class="edge"><title>CSiege&#45;&gt;Chipmunk</title>
<path fill="none" stroke="black" d="M529.461,-103.12C522.035,-98.7431 513.453,-94.4695 505,-92 473.385,-82.764 387.554,-96.3004 357,-84 343.438,-78.5401 330.825,-68.5447 320.848,-58.9178"/>
<polygon fill="black" stroke="black" points="323.267,-56.3861 313.761,-51.7091 318.276,-61.2937 323.267,-56.3861"/>
</g>
<!-- Other modules? -->
<g id="node18" class="node"><title>Other modules?</title>
<ellipse fill="lightyellow" stroke="lightyellow" cx="162" cy="-34" rx="69.9366" ry="18"/>
<text text-anchor="middle" x="162" y="-29.4" font-family="Times New Roman,serif" font-size="14.00">Other modules?</text>
</g>
<!-- CSiege&#45;&gt;Other modules? -->
<g id="edge29" class="edge"><title>CSiege&#45;&gt;Other modules?</title>
<path fill="none" stroke="black" stroke-dasharray="1,5" d="M529.494,-103.003C522.071,-98.6176 513.482,-94.3691 505,-92 448.47,-76.2104 297.119,-101.193 241,-84 223.007,-78.4877 205.108,-67.7132 190.909,-57.5733"/>
<polygon fill="black" stroke="black" points="192.695,-54.5405 182.578,-51.3946 188.525,-60.1629 192.695,-54.5405"/>
</g>
<!-- DSiege -->
<g id="node8" class="node"><title>DSiege</title>
<ellipse fill="lightgrey" stroke="lightgrey" cx="459" cy="-118" rx="37.0651" ry="18"/>
<text text-anchor="middle" x="459" y="-113.4" font-family="Times New Roman,serif" font-size="14.00">DSiege</text>
</g>
<!-- DSiege&#45;&gt;SDL -->
<g id="edge31" class="edge"><title>DSiege&#45;&gt;SDL</title>
<path fill="none" stroke="black" d="M422.055,-116.35C333.102,-112.138 112.21,-100.169 83,-84 73.0242,-78.478 64.8574,-69.1237 58.6863,-59.9895"/>
<polygon fill="black" stroke="black" points="61.6276,-58.0913 53.3874,-51.4318 55.6762,-61.7765 61.6276,-58.0913"/>
</g>
<!-- DSiege&#45;&gt;GLFW -->
<g id="edge33" class="edge"><title>DSiege&#45;&gt;GLFW</title>
<path fill="none" stroke="black" d="M480.495,-102.966C487.918,-98.5782 496.509,-94.3375 505,-92 542.504,-81.6749 819.475,-99.8467 855,-84 866.781,-78.7447 877.005,-68.9898 884.881,-59.4819"/>
<polygon fill="black" stroke="black" points="887.847,-61.367 891.178,-51.3094 882.302,-57.0945 887.847,-61.367"/>
</g>
<!-- DSiege&#45;&gt;OpenGL -->
<g id="edge35" class="edge"><title>DSiege&#45;&gt;OpenGL</title>
<path fill="none" stroke="black" d="M480.509,-103.015C487.933,-98.6308 496.521,-94.3796 505,-92 531.117,-84.6703 723.958,-94.4264 749,-84 761.901,-78.6288 773.537,-68.5827 782.597,-58.8965"/>
<polygon fill="black" stroke="black" points="785.303,-61.1194 789.286,-51.3017 780.05,-56.4927 785.303,-61.1194"/>
</g>
<!-- DSiege&#45;&gt;OpenAL -->
<g id="edge37" class="edge"><title>DSiege&#45;&gt;OpenAL</title>
<path fill="none" stroke="black" d="M480.544,-103.136C487.969,-98.7594 496.551,-94.4825 505,-92 534.898,-83.2157 616.439,-96.4625 645,-84 657.376,-78.6 668.55,-68.8803 677.341,-59.437"/>
<polygon fill="black" stroke="black" points="680.185,-61.5008 684.138,-51.6706 674.918,-56.8907 680.185,-61.5008"/>
</g>
<!-- DSiege&#45;&gt;DevIL -->
<g id="edge39" class="edge"><title>DSiege&#45;&gt;DevIL</title>
<path fill="none" stroke="black" d="M481.16,-103.334C488.486,-99.0786 496.852,-94.8232 505,-92 527.094,-84.3444 536.49,-95.2288 557,-84 567.716,-78.1332 577.082,-68.5922 584.386,-59.4092"/>
<polygon fill="black" stroke="black" points="587.337,-61.3057 590.494,-51.1921 581.719,-57.1296 587.337,-61.3057"/>
</g>
<!-- DSiege&#45;&gt;Freetype -->
<g id="edge41" class="edge"><title>DSiege&#45;&gt;Freetype</title>
<path fill="none" stroke="black" d="M468.531,-100.595C474.842,-89.0717 483.241,-73.7344 490.388,-60.6834"/>
<polygon fill="black" stroke="black" points="493.589,-62.1237 495.323,-51.6716 487.45,-58.7614 493.589,-62.1237"/>
</g>
<!-- DSiege&#45;&gt;SndFile -->
<g id="edge43" class="edge"><title>DSiege&#45;&gt;SndFile</title>
<path fill="none" stroke="black" d="M447.811,-100.595C440.281,-88.8818 430.218,-73.2277 421.74,-60.0398"/>
<polygon fill="black" stroke="black" points="424.526,-57.9017 416.175,-51.3826 418.638,-61.687 424.526,-57.9017"/>
</g>
<!-- DSiege&#45;&gt;Chipmunk -->
<g id="edge45" class="edge"><title>DSiege&#45;&gt;Chipmunk</title>
<path fill="none" stroke="black" d="M425.469,-110.363C404.873,-104.829 378.424,-96.1702 357,-84 344.777,-77.0568 332.757,-67.3196 322.857,-58.2808"/>
<polygon fill="black" stroke="black" points="325.083,-55.5685 315.409,-51.2482 320.277,-60.6583 325.083,-55.5685"/>
</g>
<!-- DSiege&#45;&gt;Other modules? -->
<g id="edge47" class="edge"><title>DSiege&#45;&gt;Other modules?</title>
<path fill="none" stroke="black" stroke-dasharray="1,5" d="M422.626,-114.145C369.519,-108.208 273.539,-96.2291 241,-84 223.762,-77.5216 206.287,-66.9651 192.171,-57.2175"/>
<polygon fill="black" stroke="black" points="194.025,-54.2412 183.847,-51.2964 189.967,-59.9452 194.025,-54.2412"/>
</g>
</g>
</svg>
