<?xml version="1.0" encoding="UTF-8" standalone="no"?>
<!DOCTYPE svg PUBLIC "-//W3C//DTD SVG 1.1//EN"
 "http://www.w3.org/Graphics/SVG/1.1/DTD/svg11.dtd">
<!-- Generated by graphviz version 2.26.3 (20100126.1600)
 -->
<!-- Title: SIEGE Pages: 1 -->
<svg width="1159pt" height="782pt"
 viewBox="0.00 0.00 1159.11 782.45" xmlns="http://www.w3.org/2000/svg" xmlns:xlink="http://www.w3.org/1999/xlink">
<g id="graph1" class="graph" transform="scale(1 1) rotate(0) translate(4 778.448)">
<title>SIEGE</title>
<polygon fill="white" stroke="white" points="-4,5 -4,-778.448 1156.11,-778.448 1156.11,5 -4,5"/>
<!-- C++ -->
<g id="node2" class="node"><title>C++</title>
<ellipse fill="lightblue" stroke="lightblue" cx="30" cy="-390.393" rx="28.8453" ry="18"/>
<text text-anchor="middle" x="30" y="-385.793" font-family="Times New Roman,serif" font-size="14.00">C++</text>
</g>
<!-- CSiege -->
<g id="node7" class="node"><title>CSiege</title>
<ellipse fill="lightgrey" stroke="lightgrey" cx="344.384" cy="-412.664" rx="37.0651" ry="18"/>
<text text-anchor="middle" x="344.384" y="-408.064" font-family="Times New Roman,serif" font-size="14.00">CSiege</text>
</g>
<!-- C++&#45;&gt;CSiege -->
<g id="edge5" class="edge"><title>C++&#45;&gt;CSiege</title>
<path fill="none" stroke="black" d="M59.0129,-392.449C113.482,-396.307 231.486,-404.666 297.414,-409.337"/>
<polygon fill="black" stroke="black" points="297.308,-412.838 307.531,-410.053 297.803,-405.855 297.308,-412.838"/>
</g>
<!-- D -->
<g id="node3" class="node"><title>D</title>
<ellipse fill="lightblue" stroke="lightblue" cx="244.084" cy="-595.976" rx="27" ry="18"/>
<text text-anchor="middle" x="244.084" y="-591.376" font-family="Times New Roman,serif" font-size="14.00">D</text>
</g>
<!-- D&#45;&gt;CSiege -->
<g id="edge7" class="edge"><title>D&#45;&gt;CSiege</title>
<path fill="none" stroke="black" d="M253.34,-579.059C270.866,-547.029 309.007,-477.32 329.931,-439.077"/>
<polygon fill="black" stroke="black" points="333.128,-440.527 334.857,-430.075 326.987,-437.167 333.128,-440.527"/>
</g>
<!-- TinyPy -->
<g id="node4" class="node"><title>TinyPy</title>
<ellipse fill="lightblue" stroke="lightblue" cx="206.622" cy="-464.373" rx="38.2368" ry="18"/>
<text text-anchor="middle" x="206.622" y="-459.773" font-family="Times New Roman,serif" font-size="14.00">TinyPy</text>
</g>
<!-- TinyPy&#45;&gt;CSiege -->
<g id="edge9" class="edge"><title>TinyPy&#45;&gt;CSiege</title>
<path fill="none" stroke="black" d="M236.514,-453.153C256.689,-445.58 283.519,-435.509 305.374,-427.306"/>
<polygon fill="black" stroke="black" points="306.891,-430.475 315.023,-423.684 304.431,-423.922 306.891,-430.475"/>
</g>
<!-- Other bindings? -->
<g id="node5" class="node"><title>Other bindings?</title>
<ellipse fill="lightblue" stroke="lightblue" cx="212.239" cy="-284.713" rx="69.9366" ry="18"/>
<text text-anchor="middle" x="212.239" y="-280.113" font-family="Times New Roman,serif" font-size="14.00">Other bindings?</text>
</g>
<!-- Other bindings?&#45;&gt;CSiege -->
<g id="edge11" class="edge"><title>Other bindings?&#45;&gt;CSiege</title>
<path fill="none" stroke="black" stroke-dasharray="1,5" d="M230.336,-302.236C253.754,-324.91 294.617,-364.477 320.544,-389.581"/>
<polygon fill="black" stroke="black" points="318.135,-392.12 327.754,-396.562 323.004,-387.091 318.135,-392.12"/>
</g>
<!-- SDL -->
<g id="node10" class="node"><title>SDL</title>
<ellipse fill="lightyellow" stroke="lightyellow" cx="747.293" cy="-19" rx="28.8453" ry="18"/>
<text text-anchor="middle" x="747.293" y="-14.4" font-family="Times New Roman,serif" font-size="14.00">SDL</text>
</g>
<!-- CSiege&#45;&gt;SDL -->
<g id="edge13" class="edge"><title>CSiege&#45;&gt;SDL</title>
<path fill="none" stroke="black" d="M360.929,-396.498C424.223,-334.657 651.103,-112.983 724.33,-41.4359"/>
<polygon fill="black" stroke="black" points="727,-43.72 731.707,-34.228 722.108,-38.7131 727,-43.72"/>
</g>
<!-- GLFW -->
<g id="node11" class="node"><title>GLFW</title>
<ellipse fill="lightyellow" stroke="lightyellow" cx="943.178" cy="-94.6625" rx="38.2368" ry="18"/>
<text text-anchor="middle" x="943.178" y="-90.0625" font-family="Times New Roman,serif" font-size="14.00">GLFW</text>
</g>
<!-- CSiege&#45;&gt;GLFW -->
<g id="edge15" class="edge"><title>CSiege&#45;&gt;GLFW</title>
<path fill="none" stroke="black" d="M369.731,-399.203C464.793,-348.718 800.224,-170.581 908.911,-112.861"/>
<polygon fill="black" stroke="black" points="910.635,-115.908 917.825,-108.127 907.351,-109.726 910.635,-115.908"/>
</g>
<!-- OpenGL -->
<g id="node12" class="node"><title>OpenGL</title>
<ellipse fill="lightyellow" stroke="lightyellow" cx="541.597" cy="-61.2522" rx="43.7767" ry="18"/>
<text text-anchor="middle" x="541.597" y="-56.6522" font-family="Times New Roman,serif" font-size="14.00">OpenGL</text>
</g>
<!-- CSiege&#45;&gt;OpenGL -->
<g id="edge17" class="edge"><title>CSiege&#45;&gt;OpenGL</title>
<path fill="none" stroke="black" d="M354.163,-395.237C386.157,-338.229 487.861,-157.004 526.503,-88.1483"/>
<polygon fill="black" stroke="black" points="529.682,-89.6363 531.523,-79.2028 523.577,-86.2104 529.682,-89.6363"/>
</g>
<!-- OpenAL -->
<g id="node13" class="node"><title>OpenAL</title>
<ellipse fill="lightyellow" stroke="lightyellow" cx="391.399" cy="-208.004" rx="43.1021" ry="18"/>
<text text-anchor="middle" x="391.399" y="-203.404" font-family="Times New Roman,serif" font-size="14.00">OpenAL</text>
</g>
<!-- CSiege&#45;&gt;OpenAL -->
<g id="edge19" class="edge"><title>CSiege&#45;&gt;OpenAL</title>
<path fill="none" stroke="black" d="M348.556,-394.502C356.781,-358.698 375.138,-278.788 384.939,-236.121"/>
<polygon fill="black" stroke="black" points="388.408,-236.656 387.236,-226.126 381.586,-235.088 388.408,-236.656"/>
</g>
<!-- DevIL -->
<g id="node14" class="node"><title>DevIL</title>
<ellipse fill="lightyellow" stroke="lightyellow" cx="415.479" cy="-610.252" rx="34.8827" ry="18"/>
<text text-anchor="middle" x="415.479" y="-605.652" font-family="Times New Roman,serif" font-size="14.00">DevIL</text>
</g>
<!-- CSiege&#45;&gt;DevIL -->
<g id="edge21" class="edge"><title>CSiege&#45;&gt;DevIL</title>
<path fill="none" stroke="black" d="M350.818,-430.547C363.297,-465.227 390.853,-541.812 405.642,-582.914"/>
<polygon fill="black" stroke="black" points="402.431,-584.328 409.11,-592.552 409.018,-581.958 402.431,-584.328"/>
</g>
<!-- Freetype -->
<g id="node15" class="node"><title>Freetype</title>
<ellipse fill="lightyellow" stroke="lightyellow" cx="582.113" cy="-738.037" rx="43.1021" ry="18"/>
<text text-anchor="middle" x="582.113" y="-733.437" font-family="Times New Roman,serif" font-size="14.00">Freetype</text>
</g>
<!-- CSiege&#45;&gt;Freetype -->
<g id="edge23" class="edge"><title>CSiege&#45;&gt;Freetype</title>
<path fill="none" stroke="black" d="M356.83,-429.699C395.974,-483.274 516.74,-648.563 563.424,-712.457"/>
<polygon fill="black" stroke="black" points="560.777,-714.768 569.503,-720.778 566.43,-710.639 560.777,-714.768"/>
</g>
<!-- SndFile -->
<g id="node16" class="node"><title>SndFile</title>
<ellipse fill="lightyellow" stroke="lightyellow" cx="791.38" cy="-755.448" rx="39.0774" ry="18"/>
<text text-anchor="middle" x="791.38" y="-750.848" font-family="Times New Roman,serif" font-size="14.00">SndFile</text>
</g>
<!-- CSiege&#45;&gt;SndFile -->
<g id="edge25" class="edge"><title>CSiege&#45;&gt;SndFile</title>
<path fill="none" stroke="black" d="M364.458,-428.058C436.148,-483.035 679.693,-669.799 763.093,-733.755"/>
<polygon fill="black" stroke="black" points="761.04,-736.592 771.106,-739.9 765.3,-731.037 761.04,-736.592"/>
</g>
<!-- Chipmunk -->
<g id="node17" class="node"><title>Chipmunk</title>
<ellipse fill="lightyellow" stroke="lightyellow" cx="976.84" cy="-656.956" rx="49.1393" ry="18"/>
<text text-anchor="middle" x="976.84" y="-652.356" font-family="Times New Roman,serif" font-size="14.00">Chipmunk</text>
</g>
<!-- CSiege&#45;&gt;Chipmunk -->
<g id="edge27" class="edge"><title>CSiege&#45;&gt;Chipmunk</title>
<path fill="none" stroke="black" d="M373.62,-423.957C475.109,-463.158 812.57,-593.505 933.365,-640.163"/>
<polygon fill="black" stroke="black" points="932.44,-643.558 943.029,-643.896 934.962,-637.028 932.44,-643.558"/>
</g>
<!-- Other modules? -->
<g id="node18" class="node"><title>Other modules?</title>
<ellipse fill="lightyellow" stroke="lightyellow" cx="1079.61" cy="-473.832" rx="69.9366" ry="18"/>
<text text-anchor="middle" x="1079.61" y="-469.232" font-family="Times New Roman,serif" font-size="14.00">Other modules?</text>
</g>
<!-- CSiege&#45;&gt;Other modules? -->
<g id="edge29" class="edge"><title>CSiege&#45;&gt;Other modules?</title>
<path fill="none" stroke="black" stroke-dasharray="1,5" d="M381.095,-415.718C495.357,-425.224 846.356,-454.426 1002.88,-467.449"/>
<polygon fill="black" stroke="black" points="1002.65,-470.942 1012.91,-468.283 1003.23,-463.966 1002.65,-470.942"/>
</g>
<!-- DSiege -->
<g id="node8" class="node"><title>DSiege</title>
<ellipse fill="lightgrey" stroke="lightgrey" cx="1067.06" cy="-264.217" rx="37.0651" ry="18"/>
<text text-anchor="middle" x="1067.06" y="-259.617" font-family="Times New Roman,serif" font-size="14.00">DSiege</text>
</g>
<!-- DSiege&#45;&gt;SDL -->
<g id="edge31" class="edge"><title>DSiege&#45;&gt;SDL</title>
<path fill="none" stroke="black" d="M1047.06,-248.878C991.689,-206.418 836.384,-87.3206 773.863,-39.3758"/>
<polygon fill="black" stroke="black" points="775.742,-36.4062 765.677,-33.0982 771.483,-41.9609 775.742,-36.4062"/>
</g>
<!-- DSiege&#45;&gt;GLFW -->
<g id="edge33" class="edge"><title>DSiege&#45;&gt;GLFW</title>
<path fill="none" stroke="black" d="M1054.5,-247.027C1032.61,-217.068 987.376,-155.155 961.819,-120.176"/>
<polygon fill="black" stroke="black" points="964.497,-117.909 955.772,-111.899 958.845,-122.038 964.497,-117.909"/>
</g>
<!-- DSiege&#45;&gt;OpenGL -->
<g id="edge35" class="edge"><title>DSiege&#45;&gt;OpenGL</title>
<path fill="none" stroke="black" d="M1038.06,-253.016C950.105,-219.042 686.092,-117.065 583.247,-77.3398"/>
<polygon fill="black" stroke="black" points="584.398,-74.0325 573.809,-73.6942 581.876,-80.5623 584.398,-74.0325"/>
</g>
<!-- DSiege&#45;&gt;OpenAL -->
<g id="edge37" class="edge"><title>DSiege&#45;&gt;OpenAL</title>
<path fill="none" stroke="black" d="M1030.25,-261.155C917.376,-251.764 575.769,-223.344 444.015,-212.382"/>
<polygon fill="black" stroke="black" points="444.037,-208.872 433.781,-211.531 443.457,-215.848 444.037,-208.872"/>
</g>
<!-- DSiege&#45;&gt;DevIL -->
<g id="edge39" class="edge"><title>DSiege&#45;&gt;DevIL</title>
<path fill="none" stroke="black" d="M1041.92,-277.57C940.801,-331.27 563.771,-531.499 448.906,-592.501"/>
<polygon fill="black" stroke="black" points="447.042,-589.528 439.852,-597.309 450.325,-595.71 447.042,-589.528"/>
</g>
<!-- DSiege&#45;&gt;Freetype -->
<g id="edge41" class="edge"><title>DSiege&#45;&gt;Freetype</title>
<path fill="none" stroke="black" d="M1050.37,-280.527C978.102,-351.136 692.02,-630.653 606.429,-714.28"/>
<polygon fill="black" stroke="black" points="603.945,-711.813 599.238,-721.305 608.837,-716.82 603.945,-711.813"/>
</g>
<!-- DSiege&#45;&gt;SndFile -->
<g id="edge43" class="edge"><title>DSiege&#45;&gt;SndFile</title>
<path fill="none" stroke="black" d="M1057.25,-281.701C1015.93,-355.33 855.915,-640.455 806.202,-729.038"/>
<polygon fill="black" stroke="black" points="803.06,-727.485 801.218,-737.918 809.164,-730.911 803.06,-727.485"/>
</g>
<!-- DSiege&#45;&gt;Chipmunk -->
<g id="edge45" class="edge"><title>DSiege&#45;&gt;Chipmunk</title>
<path fill="none" stroke="black" d="M1062.95,-282.113C1048.6,-344.601 1000.63,-553.393 983.222,-629.174"/>
<polygon fill="black" stroke="black" points="979.803,-628.425 980.975,-638.955 986.625,-629.993 979.803,-628.425"/>
</g>
<!-- DSiege&#45;&gt;Other modules? -->
<g id="edge47" class="edge"><title>DSiege&#45;&gt;Other modules?</title>
<path fill="none" stroke="black" stroke-dasharray="1,5" d="M1068.15,-282.453C1070.35,-319.09 1075.3,-401.861 1077.92,-445.57"/>
<polygon fill="black" stroke="black" points="1074.44,-446.016 1078.53,-455.789 1081.43,-445.597 1074.44,-446.016"/>
</g>
</g>
</svg>
