<?xml version="1.0" encoding="UTF-8" standalone="no"?>
<!DOCTYPE svg PUBLIC "-//W3C//DTD SVG 1.1//EN"
 "http://www.w3.org/Graphics/SVG/1.1/DTD/svg11.dtd">
<!-- Generated by graphviz version 2.26.3 (20100126.1600)
 -->
<!-- Title: SIEGE Pages: 1 -->
<svg width="1236pt" height="784pt"
 viewBox="0.00 0.00 1235.81 783.76" xmlns="http://www.w3.org/2000/svg" xmlns:xlink="http://www.w3.org/1999/xlink">
<g id="graph1" class="graph" transform="scale(1 1) rotate(0) translate(4 779.761)">
<title>SIEGE</title>
<polygon fill="white" stroke="white" points="-4,5 -4,-779.761 1232.81,-779.761 1232.81,5 -4,5"/>
<!-- GameCraft -->
<g id="node2" class="node"><title>GameCraft</title>
<ellipse fill="yellow" stroke="yellow" cx="71.5" cy="-476.109" rx="51.8257" ry="18"/>
<text text-anchor="middle" x="71.5" y="-471.509" font-family="Times New Roman,serif" font-size="14.00">GameCraft</text>
</g>
<!-- TinyPy -->
<g id="node6" class="node"><title>TinyPy</title>
<ellipse fill="lightblue" stroke="lightblue" cx="223.959" cy="-388.087" rx="38.2368" ry="18"/>
<text text-anchor="middle" x="223.959" y="-383.487" font-family="Times New Roman,serif" font-size="14.00">TinyPy</text>
</g>
<!-- GameCraft&#45;&gt;TinyPy -->
<g id="edge6" class="edge"><title>GameCraft&#45;&gt;TinyPy</title>
<path fill="none" stroke="black" stroke-dasharray="5,2" d="M98.4056,-460.575C124.211,-445.676 163.232,-423.147 190.915,-407.165"/>
<polygon fill="black" stroke="black" points="192.922,-410.047 199.833,-402.016 189.422,-403.985 192.922,-410.047"/>
<text text-anchor="middle" x="136.66" y="-415.27" font-family="Times New Roman,serif" font-size="14.00">One of...</text>
</g>
<!-- Other bindings? -->
<g id="node7" class="node"><title>Other bindings?</title>
<ellipse fill="lightblue" stroke="lightblue" cx="71.5" cy="-300.065" rx="69.9366" ry="18"/>
<text text-anchor="middle" x="71.5" y="-295.465" font-family="Times New Roman,serif" font-size="14.00">Other bindings?</text>
</g>
<!-- GameCraft&#45;&gt;Other bindings? -->
<g id="edge8" class="edge"><title>GameCraft&#45;&gt;Other bindings?</title>
<path fill="none" stroke="black" stroke-dasharray="5,2" d="M71.5,-457.932C71.5,-427.281 71.5,-365.094 71.5,-328.585"/>
<polygon fill="black" stroke="black" points="75.0001,-328.143 71.5,-318.143 68.0001,-328.143 75.0001,-328.143"/>
</g>
<!-- CSiege -->
<g id="node9" class="node"><title>CSiege</title>
<ellipse fill="lightgrey" stroke="lightgrey" cx="425.652" cy="-389.539" rx="37.0651" ry="18"/>
<text text-anchor="middle" x="425.652" y="-384.939" font-family="Times New Roman,serif" font-size="14.00">CSiege</text>
</g>
<!-- GameCraft&#45;&gt;CSiege -->
<g id="edge10" class="edge"><title>GameCraft&#45;&gt;CSiege</title>
<path fill="none" stroke="black" stroke-dasharray="1,5" d="M114.219,-465.667C182.115,-449.07 313.941,-416.846 382.258,-400.147"/>
<polygon fill="black" stroke="black" points="383.377,-403.476 392.259,-397.702 381.714,-396.677 383.377,-403.476"/>
<text text-anchor="middle" x="246.238" y="-417.307" font-family="Times New Roman,serif" font-size="14.00">GUI</text>
</g>
<!-- C++ -->
<g id="node4" class="node"><title>C++</title>
<ellipse fill="lightblue" stroke="lightblue" cx="329.237" cy="-452.73" rx="28.8453" ry="18"/>
<text text-anchor="middle" x="329.237" y="-448.13" font-family="Times New Roman,serif" font-size="14.00">C++</text>
</g>
<!-- C++&#45;&gt;CSiege -->
<g id="edge12" class="edge"><title>C++&#45;&gt;CSiege</title>
<path fill="none" stroke="black" d="M349.214,-439.637C362.401,-430.994 379.939,-419.499 394.89,-409.701"/>
<polygon fill="black" stroke="black" points="396.896,-412.571 403.341,-404.162 393.059,-406.716 396.896,-412.571"/>
</g>
<!-- D -->
<g id="node5" class="node"><title>D</title>
<ellipse fill="lightblue" stroke="lightblue" cx="328.989" cy="-325.273" rx="27" ry="18"/>
<text text-anchor="middle" x="328.989" y="-320.673" font-family="Times New Roman,serif" font-size="14.00">D</text>
</g>
<!-- D&#45;&gt;CSiege -->
<g id="edge14" class="edge"><title>D&#45;&gt;CSiege</title>
<path fill="none" stroke="black" d="M348.55,-338.278C361.923,-347.169 379.918,-359.133 395.159,-369.266"/>
<polygon fill="black" stroke="black" points="393.494,-372.362 403.759,-374.984 397.369,-366.533 393.494,-372.362"/>
</g>
<!-- TinyPy&#45;&gt;CSiege -->
<g id="edge16" class="edge"><title>TinyPy&#45;&gt;CSiege</title>
<path fill="none" stroke="black" d="M262.37,-388.364C295.347,-388.601 343.008,-388.944 378.332,-389.199"/>
<polygon fill="black" stroke="black" points="378.381,-392.699 388.406,-389.271 378.431,-385.699 378.381,-392.699"/>
</g>
<!-- Other bindings?&#45;&gt;CSiege -->
<g id="edge18" class="edge"><title>Other bindings?&#45;&gt;CSiege</title>
<path fill="none" stroke="black" stroke-dasharray="1,5" d="M121.49,-312.695C191.17,-330.299 316.339,-361.922 382.285,-378.583"/>
<polygon fill="black" stroke="black" points="381.79,-382.068 392.343,-381.124 383.505,-375.281 381.79,-382.068"/>
</g>
<!-- SDL -->
<g id="node12" class="node"><title>SDL</title>
<ellipse fill="lightyellow" stroke="lightyellow" cx="849.925" cy="-19" rx="28.8453" ry="18"/>
<text text-anchor="middle" x="849.925" y="-14.4" font-family="Times New Roman,serif" font-size="14.00">SDL</text>
</g>
<!-- CSiege&#45;&gt;SDL -->
<g id="edge20" class="edge"><title>CSiege&#45;&gt;SDL</title>
<path fill="none" stroke="black" d="M443.882,-373.618C511.371,-314.677 747.116,-108.788 824.849,-40.8999"/>
<polygon fill="black" stroke="black" points="827.472,-43.2565 832.701,-34.0423 822.867,-37.9842 827.472,-43.2565"/>
</g>
<!-- GLFW -->
<g id="node13" class="node"><title>GLFW</title>
<ellipse fill="lightyellow" stroke="lightyellow" cx="1041.28" cy="-105.488" rx="38.2368" ry="18"/>
<text text-anchor="middle" x="1041.28" y="-100.888" font-family="Times New Roman,serif" font-size="14.00">GLFW</text>
</g>
<!-- CSiege&#45;&gt;GLFW -->
<g id="edge22" class="edge"><title>CSiege&#45;&gt;GLFW</title>
<path fill="none" stroke="black" d="M452.5,-377.151C550.882,-331.758 891.787,-174.463 1004.66,-122.383"/>
<polygon fill="black" stroke="black" points="1006.32,-125.47 1013.94,-118.102 1003.39,-119.114 1006.32,-125.47"/>
</g>
<!-- OpenGL -->
<g id="node14" class="node"><title>OpenGL</title>
<ellipse fill="lightyellow" stroke="lightyellow" cx="642.19" cy="-49.6945" rx="43.7767" ry="18"/>
<text text-anchor="middle" x="642.19" y="-45.0945" font-family="Times New Roman,serif" font-size="14.00">OpenGL</text>
</g>
<!-- CSiege&#45;&gt;OpenGL -->
<g id="edge24" class="edge"><title>CSiege&#45;&gt;OpenGL</title>
<path fill="none" stroke="black" d="M436.688,-372.219C472.082,-316.67 582.914,-142.725 625.392,-76.0587"/>
<polygon fill="black" stroke="black" points="628.495,-77.7016 630.917,-67.3873 622.592,-73.9401 628.495,-77.7016"/>
</g>
<!-- OpenAL -->
<g id="node15" class="node"><title>OpenAL</title>
<ellipse fill="lightyellow" stroke="lightyellow" cx="484.027" cy="-187.826" rx="43.1021" ry="18"/>
<text text-anchor="middle" x="484.027" y="-183.226" font-family="Times New Roman,serif" font-size="14.00">OpenAL</text>
</g>
<!-- CSiege&#45;&gt;OpenAL -->
<g id="edge26" class="edge"><title>CSiege&#45;&gt;OpenAL</title>
<path fill="none" stroke="black" d="M430.832,-371.639C441.041,-336.365 463.819,-257.655 475.993,-215.59"/>
<polygon fill="black" stroke="black" points="479.357,-216.556 478.775,-205.977 472.633,-214.61 479.357,-216.556"/>
</g>
<!-- DevIL -->
<g id="node16" class="node"><title>DevIL</title>
<ellipse fill="lightyellow" stroke="lightyellow" cx="485.598" cy="-590.791" rx="34.8827" ry="18"/>
<text text-anchor="middle" x="485.598" y="-586.191" font-family="Times New Roman,serif" font-size="14.00">DevIL</text>
</g>
<!-- CSiege&#45;&gt;DevIL -->
<g id="edge28" class="edge"><title>CSiege&#45;&gt;DevIL</title>
<path fill="none" stroke="black" d="M430.972,-407.399C441.459,-442.606 464.865,-521.186 477.362,-563.142"/>
<polygon fill="black" stroke="black" points="474.081,-564.387 480.29,-572.972 480.789,-562.389 474.081,-564.387"/>
</g>
<!-- Freetype -->
<g id="node17" class="node"><title>Freetype</title>
<ellipse fill="lightyellow" stroke="lightyellow" cx="644.832" cy="-727.686" rx="43.1021" ry="18"/>
<text text-anchor="middle" x="644.832" y="-723.086" font-family="Times New Roman,serif" font-size="14.00">Freetype</text>
</g>
<!-- CSiege&#45;&gt;Freetype -->
<g id="edge30" class="edge"><title>CSiege&#45;&gt;Freetype</title>
<path fill="none" stroke="black" d="M436.822,-406.773C472.649,-462.045 584.833,-635.12 627.829,-701.454"/>
<polygon fill="black" stroke="black" points="625.045,-703.594 633.422,-710.082 630.919,-699.787 625.045,-703.594"/>
</g>
<!-- SndFile -->
<g id="node18" class="node"><title>SndFile</title>
<ellipse fill="lightyellow" stroke="lightyellow" cx="852.8" cy="-756.761" rx="39.0774" ry="18"/>
<text text-anchor="middle" x="852.8" y="-752.161" font-family="Times New Roman,serif" font-size="14.00">SndFile</text>
</g>
<!-- CSiege&#45;&gt;SndFile -->
<g id="edge32" class="edge"><title>CSiege&#45;&gt;SndFile</title>
<path fill="none" stroke="black" d="M444.006,-405.318C511.626,-463.451 747.023,-665.824 826.418,-734.08"/>
<polygon fill="black" stroke="black" points="824.169,-736.762 834.033,-740.627 828.732,-731.454 824.169,-736.762"/>
</g>
<!-- Chipmunk -->
<g id="node19" class="node"><title>Chipmunk</title>
<ellipse fill="lightyellow" stroke="lightyellow" cx="1043.47" cy="-668.784" rx="49.1393" ry="18"/>
<text text-anchor="middle" x="1043.47" y="-664.184" font-family="Times New Roman,serif" font-size="14.00">Chipmunk</text>
</g>
<!-- CSiege&#45;&gt;Chipmunk -->
<g id="edge34" class="edge"><title>CSiege&#45;&gt;Chipmunk</title>
<path fill="none" stroke="black" d="M452.996,-401.898C551.236,-446.301 886.657,-597.906 1003.19,-650.577"/>
<polygon fill="black" stroke="black" points="1001.94,-653.851 1012.49,-654.78 1004.82,-647.472 1001.94,-653.851"/>
</g>
<!-- Other modules? -->
<g id="node20" class="node"><title>Other modules?</title>
<ellipse fill="lightyellow" stroke="lightyellow" cx="1156.31" cy="-491.688" rx="69.9366" ry="18"/>
<text text-anchor="middle" x="1156.31" y="-487.088" font-family="Times New Roman,serif" font-size="14.00">Other modules?</text>
</g>
<!-- CSiege&#45;&gt;Other modules? -->
<g id="edge36" class="edge"><title>CSiege&#45;&gt;Other modules?</title>
<path fill="none" stroke="black" stroke-dasharray="1,5" d="M461.388,-394.535C575.239,-410.452 930.956,-460.182 1084.53,-481.652"/>
<polygon fill="black" stroke="black" points="1084.4,-485.169 1094.79,-483.087 1085.37,-478.236 1084.4,-485.169"/>
</g>
<!-- DSiege -->
<g id="node10" class="node"><title>DSiege</title>
<ellipse fill="lightgrey" stroke="lightgrey" cx="1155.49" cy="-281.699" rx="37.0651" ry="18"/>
<text text-anchor="middle" x="1155.49" y="-277.099" font-family="Times New Roman,serif" font-size="14.00">DSiege</text>
</g>
<!-- DSiege&#45;&gt;SDL -->
<g id="edge38" class="edge"><title>DSiege&#45;&gt;SDL</title>
<path fill="none" stroke="black" d="M1136.84,-265.662C1084.24,-220.444 934.712,-91.892 875.002,-40.5587"/>
<polygon fill="black" stroke="black" points="877.057,-37.7097 867.192,-33.8446 872.493,-43.0178 877.057,-37.7097"/>
</g>
<!-- DSiege&#45;&gt;GLFW -->
<g id="edge40" class="edge"><title>DSiege&#45;&gt;GLFW</title>
<path fill="none" stroke="black" d="M1144.33,-264.483C1124.2,-233.427 1081.72,-167.876 1058.06,-131.387"/>
<polygon fill="black" stroke="black" points="1060.86,-129.262 1052.48,-122.775 1054.98,-133.07 1060.86,-129.262"/>
</g>
<!-- DSiege&#45;&gt;OpenGL -->
<g id="edge42" class="edge"><title>DSiege&#45;&gt;OpenGL</title>
<path fill="none" stroke="black" d="M1128.26,-269.389C1043.01,-230.859 781.05,-112.457 681.306,-67.3742"/>
<polygon fill="black" stroke="black" points="682.448,-64.0495 671.894,-63.1201 679.565,-70.4282 682.448,-64.0495"/>
</g>
<!-- DSiege&#45;&gt;OpenAL -->
<g id="edge44" class="edge"><title>DSiege&#45;&gt;OpenAL</title>
<path fill="none" stroke="black" d="M1119.87,-276.719C1008.34,-261.126 665.58,-213.208 535.143,-194.972"/>
<polygon fill="black" stroke="black" points="535.41,-191.476 525.021,-193.557 534.44,-198.408 535.41,-191.476"/>
</g>
<!-- DSiege&#45;&gt;DevIL -->
<g id="edge46" class="edge"><title>DSiege&#45;&gt;DevIL</title>
<path fill="none" stroke="black" d="M1128.4,-294.199C1023.05,-342.809 640.583,-519.281 521.348,-574.296"/>
<polygon fill="black" stroke="black" points="519.541,-571.275 511.928,-578.643 522.474,-577.631 519.541,-571.275"/>
</g>
<!-- DSiege&#45;&gt;Freetype -->
<g id="edge48" class="edge"><title>DSiege&#45;&gt;Freetype</title>
<path fill="none" stroke="black" d="M1137.32,-297.572C1060.48,-364.676 762.107,-625.265 671.241,-704.622"/>
<polygon fill="black" stroke="black" points="668.822,-702.088 663.592,-711.302 673.427,-707.36 668.822,-702.088"/>
</g>
<!-- DSiege&#45;&gt;SndFile -->
<g id="edge50" class="edge"><title>DSiege&#45;&gt;SndFile</title>
<path fill="none" stroke="black" d="M1144.36,-299.17C1098.52,-371.124 924.153,-644.776 869.373,-730.75"/>
<polygon fill="black" stroke="black" points="866.295,-729.068 863.873,-739.382 872.199,-732.829 866.295,-729.068"/>
</g>
<!-- DSiege&#45;&gt;Chipmunk -->
<g id="edge52" class="edge"><title>DSiege&#45;&gt;Chipmunk</title>
<path fill="none" stroke="black" d="M1150.32,-299.593C1132.44,-361.366 1073.22,-565.979 1051.53,-640.944"/>
<polygon fill="black" stroke="black" points="1048.14,-640.055 1048.73,-650.634 1054.87,-642.001 1048.14,-640.055"/>
</g>
<!-- DSiege&#45;&gt;Other modules? -->
<g id="edge54" class="edge"><title>DSiege&#45;&gt;Other modules?</title>
<path fill="none" stroke="black" stroke-dasharray="1,5" d="M1155.57,-299.967C1155.71,-336.67 1156.03,-419.588 1156.2,-463.375"/>
<polygon fill="black" stroke="black" points="1152.7,-463.626 1156.24,-473.612 1159.7,-463.598 1152.7,-463.626"/>
</g>
</g>
</svg>
