<?xml version="1.0" encoding="UTF-8" standalone="no"?>
<!DOCTYPE svg PUBLIC "-//W3C//DTD SVG 1.1//EN"
 "http://www.w3.org/Graphics/SVG/1.1/DTD/svg11.dtd">
<!-- Generated by graphviz version 2.26.3 (20100126.1600)
 -->
<!-- Title: Widgets Pages: 1 -->
<svg width="1007pt" height="924pt"
 viewBox="0.00 0.00 1007.24 924.26" xmlns="http://www.w3.org/2000/svg" xmlns:xlink="http://www.w3.org/1999/xlink">
<g id="graph1" class="graph" transform="scale(1 1) rotate(0) translate(4 920.261)">
<title>Widgets</title>
<polygon fill="white" stroke="white" points="-4,5 -4,-920.261 1004.24,-920.261 1004.24,5 -4,5"/>
<!-- Widget -->
<g id="node1" class="node"><title>Widget</title>
<ellipse fill="none" stroke="lightgrey" cx="633.737" cy="-532.196" rx="38.2368" ry="18"/>
<text text-anchor="middle" x="633.737" y="-527.596" font-family="Times New Roman,serif" font-size="14.00">Widget</text>
</g>
<!-- Bar -->
<g id="node2" class="node"><title>Bar</title>
<ellipse fill="none" stroke="lightgrey" cx="363.425" cy="-495.141" rx="27" ry="18"/>
<text text-anchor="middle" x="363.425" y="-490.541" font-family="Times New Roman,serif" font-size="14.00">Bar</text>
</g>
<!-- Widget&#45;&gt;Bar -->
<g id="edge14" class="edge"><title>Widget&#45;&gt;Bar</title>
<path fill="none" stroke="black" d="M597,-527.16C545.277,-520.07 451.551,-507.222 399.945,-500.147"/>
<polygon fill="black" stroke="black" points="400.289,-496.662 389.907,-498.771 399.339,-503.597 400.289,-496.662"/>
</g>
<!-- Frame -->
<g id="node5" class="node"><title>Frame</title>
<ellipse fill="none" stroke="black" cx="625.656" cy="-327.22" rx="34.8827" ry="18"/>
<text text-anchor="middle" x="625.656" y="-322.62" font-family="Times New Roman,serif" font-size="14.00">Frame</text>
</g>
<!-- Widget&#45;&gt;Frame -->
<g id="edge2" class="edge"><title>Widget&#45;&gt;Frame</title>
<path fill="none" stroke="black" d="M633.02,-514.006C631.606,-478.147 628.451,-398.113 626.766,-355.38"/>
<polygon fill="black" stroke="black" points="630.262,-355.224 626.371,-345.369 623.268,-355.499 630.262,-355.224"/>
</g>
<!-- Viewport -->
<g id="node11" class="node"><title>Viewport</title>
<ellipse fill="none" stroke="black" cx="757.174" cy="-547.722" rx="45.1145" ry="18"/>
<text text-anchor="middle" x="757.174" y="-543.122" font-family="Times New Roman,serif" font-size="14.00">Viewport</text>
</g>
<!-- Widget&#45;&gt;Viewport -->
<g id="edge8" class="edge"><title>Widget&#45;&gt;Viewport</title>
<path fill="none" stroke="black" d="M670.772,-536.854C681.211,-538.167 692.778,-539.622 703.965,-541.029"/>
<polygon fill="black" stroke="black" points="703.73,-544.527 714.088,-542.303 704.603,-537.582 703.73,-544.527"/>
</g>
<!-- MenuItem -->
<g id="node13" class="node"><title>MenuItem</title>
<ellipse fill="none" stroke="black" cx="572.635" cy="-678.666" rx="48.9699" ry="18"/>
<text text-anchor="middle" x="572.635" y="-674.066" font-family="Times New Roman,serif" font-size="14.00">MenuItem</text>
</g>
<!-- Widget&#45;&gt;MenuItem -->
<g id="edge10" class="edge"><title>Widget&#45;&gt;MenuItem</title>
<path fill="none" stroke="black" d="M626.367,-549.864C615.872,-575.02 596.526,-621.397 584.136,-651.098"/>
<polygon fill="black" stroke="black" points="580.843,-649.9 580.223,-660.477 587.304,-652.595 580.843,-649.9"/>
</g>
<!-- TextBox -->
<g id="node33" class="node"><title>TextBox</title>
<ellipse fill="none" stroke="black" cx="799.677" cy="-403.563" rx="43.1021" ry="18"/>
<text text-anchor="middle" x="799.677" y="-398.963" font-family="Times New Roman,serif" font-size="14.00">TextBox</text>
</g>
<!-- Widget&#45;&gt;TextBox -->
<g id="edge32" class="edge"><title>Widget&#45;&gt;TextBox</title>
<path fill="none" stroke="black" d="M653.753,-516.68C682.997,-494.011 737.553,-451.72 771.039,-425.763"/>
<polygon fill="black" stroke="black" points="773.31,-428.43 779.07,-419.538 769.022,-422.898 773.31,-428.43"/>
</g>
<!-- Button -->
<g id="node41" class="node"><title>Button</title>
<ellipse fill="none" stroke="black" cx="782.97" cy="-746.076" rx="36.2243" ry="18"/>
<text text-anchor="middle" x="782.97" y="-741.476" font-family="Times New Roman,serif" font-size="14.00">Button</text>
</g>
<!-- Widget&#45;&gt;Button -->
<g id="edge40" class="edge"><title>Widget&#45;&gt;Button</title>
<path fill="none" stroke="black" d="M645.697,-549.337C671.839,-586.803 734.191,-676.166 765.047,-720.388"/>
<polygon fill="black" stroke="black" points="762.361,-722.655 770.953,-728.853 768.101,-718.65 762.361,-722.655"/>
</g>
<!-- ScrollBar -->
<g id="node3" class="node"><title>ScrollBar</title>
<ellipse fill="none" stroke="lightgrey" cx="160.075" cy="-496.47" rx="45.7889" ry="18"/>
<text text-anchor="middle" x="160.075" y="-491.87" font-family="Times New Roman,serif" font-size="14.00">ScrollBar</text>
</g>
<!-- Bar&#45;&gt;ScrollBar -->
<g id="edge20" class="edge"><title>Bar&#45;&gt;ScrollBar</title>
<path fill="none" stroke="black" d="M336.422,-495.318C305.975,-495.517 255.619,-495.846 216.494,-496.101"/>
<polygon fill="black" stroke="black" points="216.274,-492.602 206.297,-496.168 216.32,-499.602 216.274,-492.602"/>
</g>
<!-- TabBar -->
<g id="node18" class="node"><title>TabBar</title>
<ellipse fill="none" stroke="black" cx="256.966" cy="-431.226" rx="39.0774" ry="18"/>
<text text-anchor="middle" x="256.966" y="-426.626" font-family="Times New Roman,serif" font-size="14.00">TabBar</text>
</g>
<!-- Bar&#45;&gt;TabBar -->
<g id="edge16" class="edge"><title>Bar&#45;&gt;TabBar</title>
<path fill="none" stroke="black" d="M342.898,-482.818C327.771,-473.736 306.891,-461.2 289.501,-450.759"/>
<polygon fill="black" stroke="black" points="291.149,-447.667 280.774,-445.52 287.546,-453.668 291.149,-447.667"/>
</g>
<!-- TitleBar -->
<g id="node20" class="node"><title>TitleBar</title>
<ellipse fill="none" stroke="black" cx="370.406" cy="-633.63" rx="40.92" ry="18"/>
<text text-anchor="middle" x="370.406" y="-629.03" font-family="Times New Roman,serif" font-size="14.00">TitleBar</text>
</g>
<!-- Bar&#45;&gt;TitleBar -->
<g id="edge18" class="edge"><title>Bar&#45;&gt;TitleBar</title>
<path fill="none" stroke="black" d="M364.337,-513.246C365.519,-536.677 367.59,-577.759 368.98,-605.329"/>
<polygon fill="black" stroke="black" points="365.494,-605.709 369.494,-615.521 372.485,-605.357 365.494,-605.709"/>
</g>
<!-- StatusBar -->
<g id="node27" class="node"><title>StatusBar</title>
<ellipse fill="none" stroke="black" cx="251.225" cy="-622.793" rx="47.1269" ry="18"/>
<text text-anchor="middle" x="251.225" y="-618.193" font-family="Times New Roman,serif" font-size="14.00">StatusBar</text>
</g>
<!-- Bar&#45;&gt;StatusBar -->
<g id="edge26" class="edge"><title>Bar&#45;&gt;StatusBar</title>
<path fill="none" stroke="black" d="M349.667,-510.794C330.576,-532.514 295.844,-572.029 273.155,-597.842"/>
<polygon fill="black" stroke="black" points="270.505,-595.556 266.532,-605.378 275.762,-600.178 270.505,-595.556"/>
</g>
<!-- ToolBar -->
<g id="node29" class="node"><title>ToolBar</title>
<ellipse fill="none" stroke="black" cx="297.789" cy="-323.133" rx="41.7645" ry="18"/>
<text text-anchor="middle" x="297.789" y="-318.533" font-family="Times New Roman,serif" font-size="14.00">ToolBar</text>
</g>
<!-- Bar&#45;&gt;ToolBar -->
<g id="edge28" class="edge"><title>Bar&#45;&gt;ToolBar</title>
<path fill="none" stroke="black" d="M356.648,-477.381C345.201,-447.381 321.955,-386.464 308.353,-350.817"/>
<polygon fill="black" stroke="black" points="311.463,-349.149 304.628,-341.054 304.923,-351.644 311.463,-349.149"/>
</g>
<!-- MenuBar -->
<g id="node31" class="node"><title>MenuBar</title>
<ellipse fill="none" stroke="black" cx="414.29" cy="-372.222" rx="45.1145" ry="18"/>
<text text-anchor="middle" x="414.29" y="-367.622" font-family="Times New Roman,serif" font-size="14.00">MenuBar</text>
</g>
<!-- Bar&#45;&gt;MenuBar -->
<g id="edge30" class="edge"><title>Bar&#45;&gt;MenuBar</title>
<path fill="none" stroke="black" d="M370.712,-477.53C379.125,-457.2 393.065,-423.514 402.909,-399.723"/>
<polygon fill="black" stroke="black" points="406.26,-400.778 406.85,-390.2 399.792,-398.102 406.26,-400.778"/>
</g>
<!-- HScrollBar -->
<g id="node23" class="node"><title>HScrollBar</title>
<ellipse fill="none" stroke="black" cx="94.4497" cy="-387.498" rx="52.9948" ry="18"/>
<text text-anchor="middle" x="94.4497" y="-382.898" font-family="Times New Roman,serif" font-size="14.00">HScrollBar</text>
</g>
<!-- ScrollBar&#45;&gt;HScrollBar -->
<g id="edge22" class="edge"><title>ScrollBar&#45;&gt;HScrollBar</title>
<path fill="none" stroke="black" d="M149.239,-478.475C138.631,-460.861 122.353,-433.831 110.293,-413.806"/>
<polygon fill="black" stroke="black" points="113.242,-411.919 105.085,-405.158 107.246,-415.53 113.242,-411.919"/>
</g>
<!-- VScrollBar -->
<g id="node25" class="node"><title>VScrollBar</title>
<ellipse fill="none" stroke="black" cx="54" cy="-561.767" rx="52.9948" ry="18"/>
<text text-anchor="middle" x="54" y="-557.167" font-family="Times New Roman,serif" font-size="14.00">VScrollBar</text>
</g>
<!-- ScrollBar&#45;&gt;VScrollBar -->
<g id="edge24" class="edge"><title>ScrollBar&#45;&gt;VScrollBar</title>
<path fill="none" stroke="black" d="M135.205,-511.779C121.282,-520.35 103.71,-531.167 88.4759,-540.544"/>
<polygon fill="black" stroke="black" points="86.5029,-537.649 79.8218,-545.872 90.1724,-543.61 86.5029,-537.649"/>
</g>
<!-- Window -->
<g id="node7" class="node"><title>Window</title>
<ellipse fill="none" stroke="black" cx="676.966" cy="-184.986" rx="43.1021" ry="18"/>
<text text-anchor="middle" x="676.966" y="-180.386" font-family="Times New Roman,serif" font-size="14.00">Window</text>
</g>
<!-- Frame&#45;&gt;Window -->
<g id="edge4" class="edge"><title>Frame&#45;&gt;Window</title>
<path fill="none" stroke="black" d="M632.05,-309.493C640.846,-285.112 656.759,-241.002 667.09,-212.363"/>
<polygon fill="black" stroke="black" points="670.39,-213.53 670.491,-202.936 663.805,-211.155 670.39,-213.53"/>
</g>
<!-- TabFrame -->
<g id="node9" class="node"><title>TabFrame</title>
<ellipse fill="none" stroke="black" cx="539.802" cy="-211.172" rx="49.1393" ry="18"/>
<text text-anchor="middle" x="539.802" y="-206.572" font-family="Times New Roman,serif" font-size="14.00">TabFrame</text>
</g>
<!-- Frame&#45;&gt;TabFrame -->
<g id="edge6" class="edge"><title>Frame&#45;&gt;TabFrame</title>
<path fill="none" stroke="black" d="M612.988,-310.096C598.74,-290.838 575.445,-259.349 558.968,-237.078"/>
<polygon fill="black" stroke="black" points="561.565,-234.703 552.804,-228.746 555.937,-238.866 561.565,-234.703"/>
</g>
<!-- MenuSeparator -->
<g id="node15" class="node"><title>MenuSeparator</title>
<ellipse fill="none" stroke="black" cx="499.091" cy="-789.755" rx="67.9242" ry="18"/>
<text text-anchor="middle" x="499.091" y="-785.155" font-family="Times New Roman,serif" font-size="14.00">MenuSeparator</text>
</g>
<!-- MenuItem&#45;&gt;MenuSeparator -->
<g id="edge12" class="edge"><title>MenuItem&#45;&gt;MenuSeparator</title>
<path fill="none" stroke="black" d="M560.819,-696.515C548.864,-714.573 530.246,-742.696 516.581,-763.336"/>
<polygon fill="black" stroke="black" points="513.48,-761.68 510.878,-771.951 519.317,-765.545 513.48,-761.68"/>
</g>
<!-- TextArea -->
<g id="node35" class="node"><title>TextArea</title>
<ellipse fill="none" stroke="black" cx="918.037" cy="-280.534" rx="45.1145" ry="18"/>
<text text-anchor="middle" x="918.037" y="-275.934" font-family="Times New Roman,serif" font-size="14.00">TextArea</text>
</g>
<!-- TextBox&#45;&gt;TextArea -->
<g id="edge34" class="edge"><title>TextBox&#45;&gt;TextArea</title>
<path fill="none" stroke="black" d="M815.887,-386.714C836.225,-365.574 871.253,-329.164 894.532,-304.966"/>
<polygon fill="black" stroke="black" points="897.233,-307.207 901.644,-297.574 892.189,-302.354 897.233,-307.207"/>
</g>
<!-- Label -->
<g id="node37" class="node"><title>Label</title>
<ellipse fill="none" stroke="black" cx="942.487" cy="-141.391" rx="31.0281" ry="18"/>
<text text-anchor="middle" x="942.487" y="-136.791" font-family="Times New Roman,serif" font-size="14.00">Label</text>
</g>
<!-- TextArea&#45;&gt;Label -->
<g id="edge36" class="edge"><title>TextArea&#45;&gt;Label</title>
<path fill="none" stroke="black" d="M921.234,-262.343C925.389,-238.698 932.688,-197.161 937.555,-169.459"/>
<polygon fill="black" stroke="black" points="941.007,-170.041 939.29,-159.586 934.112,-168.83 941.007,-170.041"/>
</g>
<!-- FadingLabel -->
<g id="node39" class="node"><title>FadingLabel</title>
<ellipse fill="none" stroke="black" cx="906.178" cy="-19" rx="57.1889" ry="18"/>
<text text-anchor="middle" x="906.178" y="-14.4" font-family="Times New Roman,serif" font-size="14.00">FadingLabel</text>
</g>
<!-- Label&#45;&gt;FadingLabel -->
<g id="edge38" class="edge"><title>Label&#45;&gt;FadingLabel</title>
<path fill="none" stroke="black" d="M937.208,-123.595C931.245,-103.497 921.466,-70.5322 914.48,-46.9821"/>
<polygon fill="black" stroke="black" points="917.783,-45.8094 911.583,-37.2179 911.072,-47.8004 917.783,-45.8094"/>
</g>
<!-- TitleButton -->
<g id="node43" class="node"><title>TitleButton</title>
<ellipse fill="none" stroke="black" cx="889.278" cy="-677.646" rx="52.9948" ry="18"/>
<text text-anchor="middle" x="889.278" y="-673.046" font-family="Times New Roman,serif" font-size="14.00">TitleButton</text>
</g>
<!-- Button&#45;&gt;TitleButton -->
<g id="edge42" class="edge"><title>Button&#45;&gt;TitleButton</title>
<path fill="none" stroke="black" d="M805.256,-731.731C819.846,-722.34 839.183,-709.892 855.629,-699.306"/>
<polygon fill="black" stroke="black" points="857.905,-702.003 864.419,-693.648 854.116,-696.117 857.905,-702.003"/>
</g>
<!-- ToggleButton -->
<g id="node45" class="node"><title>ToggleButton</title>
<ellipse fill="none" stroke="black" cx="842.714" cy="-897.261" rx="61.8872" ry="18"/>
<text text-anchor="middle" x="842.714" y="-892.661" font-family="Times New Roman,serif" font-size="14.00">ToggleButton</text>
</g>
<!-- Button&#45;&gt;ToggleButton -->
<g id="edge44" class="edge"><title>Button&#45;&gt;ToggleButton</title>
<path fill="none" stroke="black" d="M790.058,-764.013C800.389,-790.155 819.67,-838.946 831.814,-869.677"/>
<polygon fill="black" stroke="black" points="828.705,-871.334 835.636,-879.348 835.215,-868.762 828.705,-871.334"/>
</g>
<!-- RadioButton -->
<g id="node47" class="node"><title>RadioButton</title>
<ellipse fill="none" stroke="black" cx="939.237" cy="-806.357" rx="59.0322" ry="18"/>
<text text-anchor="middle" x="939.237" y="-801.757" font-family="Times New Roman,serif" font-size="14.00">RadioButton</text>
</g>
<!-- Button&#45;&gt;RadioButton -->
<g id="edge46" class="edge"><title>Button&#45;&gt;RadioButton</title>
<path fill="none" stroke="black" d="M811.632,-757.133C834.389,-765.912 866.659,-778.36 893.052,-788.541"/>
<polygon fill="black" stroke="black" points="891.892,-791.845 902.482,-792.179 894.412,-785.314 891.892,-791.845"/>
</g>
<!-- TabButton -->
<g id="node49" class="node"><title>TabButton</title>
<ellipse fill="none" stroke="black" cx="720.787" cy="-891.124" rx="51.1517" ry="18"/>
<text text-anchor="middle" x="720.787" y="-886.524" font-family="Times New Roman,serif" font-size="14.00">TabButton</text>
</g>
<!-- Button&#45;&gt;TabButton -->
<g id="edge48" class="edge"><title>Button&#45;&gt;TabButton</title>
<path fill="none" stroke="black" d="M775.345,-763.862C764.623,-788.873 744.998,-834.65 732.439,-863.944"/>
<polygon fill="black" stroke="black" points="729.198,-862.623 728.474,-873.193 735.632,-865.381 729.198,-862.623"/>
</g>
</g>
</svg>
