<?xml version="1.0" encoding="UTF-8" standalone="no"?>
<!DOCTYPE svg PUBLIC "-//W3C//DTD SVG 1.1//EN"
 "http://www.w3.org/Graphics/SVG/1.1/DTD/svg11.dtd">
<!-- Generated by graphviz version 2.26.3 (20100126.1600)
 -->
<!-- Title: Widgets Pages: 1 -->
<svg width="1691pt" height="332pt"
 viewBox="0.00 0.00 1691.00 332.00" xmlns="http://www.w3.org/2000/svg" xmlns:xlink="http://www.w3.org/1999/xlink">
<g id="graph1" class="graph" transform="scale(1 1) rotate(0) translate(4 328)">
<title>Widgets</title>
<polygon fill="white" stroke="white" points="-4,5 -4,-328 1688,-328 1688,5 -4,5"/>
<!-- Widget -->
<g id="node1" class="node"><title>Widget</title>
<ellipse fill="none" stroke="lightgrey" cx="934" cy="-306" rx="38.2368" ry="18"/>
<text text-anchor="middle" x="934" y="-301.4" font-family="Times New Roman,serif" font-size="14.00">Widget</text>
</g>
<!-- Bar -->
<g id="node2" class="node"><title>Bar</title>
<ellipse fill="none" stroke="lightgrey" cx="422" cy="-234" rx="27" ry="18"/>
<text text-anchor="middle" x="422" y="-229.4" font-family="Times New Roman,serif" font-size="14.00">Bar</text>
</g>
<!-- Widget&#45;&gt;Bar -->
<g id="edge14" class="edge"><title>Widget&#45;&gt;Bar</title>
<path fill="none" stroke="black" d="M897.178,-300.822C802.698,-287.536 552.524,-252.355 458.452,-239.126"/>
<polygon fill="black" stroke="black" points="458.937,-235.66 448.547,-237.733 457.962,-242.592 458.937,-235.66"/>
</g>
<!-- Frame -->
<g id="node5" class="node"><title>Frame</title>
<ellipse fill="none" stroke="black" cx="780" cy="-234" rx="34.8827" ry="18"/>
<text text-anchor="middle" x="780" y="-229.4" font-family="Times New Roman,serif" font-size="14.00">Frame</text>
</g>
<!-- Widget&#45;&gt;Frame -->
<g id="edge2" class="edge"><title>Widget&#45;&gt;Frame</title>
<path fill="none" stroke="black" d="M906.822,-293.294C881.41,-281.412 843.31,-263.599 815.504,-250.599"/>
<polygon fill="black" stroke="black" points="816.677,-247.284 806.136,-246.219 813.712,-253.625 816.677,-247.284"/>
</g>
<!-- Viewport -->
<g id="node11" class="node"><title>Viewport</title>
<ellipse fill="none" stroke="black" cx="878" cy="-234" rx="45.1145" ry="18"/>
<text text-anchor="middle" x="878" y="-229.4" font-family="Times New Roman,serif" font-size="14.00">Viewport</text>
</g>
<!-- Widget&#45;&gt;Viewport -->
<g id="edge8" class="edge"><title>Widget&#45;&gt;Viewport</title>
<path fill="none" stroke="black" d="M920.729,-288.937C913.924,-280.189 905.498,-269.354 897.931,-259.626"/>
<polygon fill="black" stroke="black" points="900.467,-257.185 891.565,-251.441 894.942,-261.483 900.467,-257.185"/>
</g>
<!-- MenuItem -->
<g id="node13" class="node"><title>MenuItem</title>
<ellipse fill="none" stroke="black" cx="990" cy="-234" rx="48.9699" ry="18"/>
<text text-anchor="middle" x="990" y="-229.4" font-family="Times New Roman,serif" font-size="14.00">MenuItem</text>
</g>
<!-- Widget&#45;&gt;MenuItem -->
<g id="edge10" class="edge"><title>Widget&#45;&gt;MenuItem</title>
<path fill="none" stroke="black" d="M947.271,-288.937C954.076,-280.189 962.502,-269.354 970.069,-259.626"/>
<polygon fill="black" stroke="black" points="973.058,-261.483 976.435,-251.441 967.533,-257.185 973.058,-261.483"/>
</g>
<!-- TextBox -->
<g id="node33" class="node"><title>TextBox</title>
<ellipse fill="none" stroke="black" cx="1110" cy="-234" rx="43.1021" ry="18"/>
<text text-anchor="middle" x="1110" y="-229.4" font-family="Times New Roman,serif" font-size="14.00">TextBox</text>
</g>
<!-- Widget&#45;&gt;TextBox -->
<g id="edge32" class="edge"><title>Widget&#45;&gt;TextBox</title>
<path fill="none" stroke="black" d="M963.063,-294.111C992.085,-282.238 1036.93,-263.89 1069.45,-250.588"/>
<polygon fill="black" stroke="black" points="1071.19,-253.66 1079.12,-246.634 1068.54,-247.181 1071.19,-253.66"/>
</g>
<!-- Button -->
<g id="node41" class="node"><title>Button</title>
<ellipse fill="none" stroke="black" cx="1365" cy="-234" rx="36.2243" ry="18"/>
<text text-anchor="middle" x="1365" y="-229.4" font-family="Times New Roman,serif" font-size="14.00">Button</text>
</g>
<!-- Widget&#45;&gt;Button -->
<g id="edge40" class="edge"><title>Widget&#45;&gt;Button</title>
<path fill="none" stroke="black" d="M970.005,-299.985C1048.55,-286.864 1235.08,-255.704 1320.68,-241.405"/>
<polygon fill="black" stroke="black" points="1321.31,-244.847 1330.6,-239.747 1320.16,-237.942 1321.31,-244.847"/>
</g>
<!-- ScrollBar -->
<g id="node3" class="node"><title>ScrollBar</title>
<ellipse fill="none" stroke="lightgrey" cx="115" cy="-162" rx="45.7889" ry="18"/>
<text text-anchor="middle" x="115" y="-157.4" font-family="Times New Roman,serif" font-size="14.00">ScrollBar</text>
</g>
<!-- Bar&#45;&gt;ScrollBar -->
<g id="edge20" class="edge"><title>Bar&#45;&gt;ScrollBar</title>
<path fill="none" stroke="black" d="M395.662,-229.302C349.568,-220.87 251.426,-201.983 170,-180 166.599,-179.082 163.098,-178.077 159.588,-177.028"/>
<polygon fill="black" stroke="black" points="160.336,-173.596 149.748,-173.984 158.267,-180.283 160.336,-173.596"/>
</g>
<!-- TabBar -->
<g id="node18" class="node"><title>TabBar</title>
<ellipse fill="none" stroke="black" cx="218" cy="-162" rx="39.0774" ry="18"/>
<text text-anchor="middle" x="218" y="-157.4" font-family="Times New Roman,serif" font-size="14.00">TabBar</text>
</g>
<!-- Bar&#45;&gt;TabBar -->
<g id="edge16" class="edge"><title>Bar&#45;&gt;TabBar</title>
<path fill="none" stroke="black" d="M397.881,-225.864C367.17,-215.456 312.509,-196.767 266,-180 263.292,-179.024 260.502,-178.007 257.694,-176.975"/>
<polygon fill="black" stroke="black" points="258.764,-173.639 248.171,-173.448 256.333,-180.203 258.764,-173.639"/>
</g>
<!-- TitleBar -->
<g id="node20" class="node"><title>TitleBar</title>
<ellipse fill="none" stroke="black" cx="316" cy="-162" rx="40.92" ry="18"/>
<text text-anchor="middle" x="316" y="-157.4" font-family="Times New Roman,serif" font-size="14.00">TitleBar</text>
</g>
<!-- Bar&#45;&gt;TitleBar -->
<g id="edge18" class="edge"><title>Bar&#45;&gt;TitleBar</title>
<path fill="none" stroke="black" d="M403.049,-221.128C387.492,-210.561 365.147,-195.383 346.992,-183.051"/>
<polygon fill="black" stroke="black" points="348.702,-179.982 338.464,-177.258 344.769,-185.772 348.702,-179.982"/>
</g>
<!-- StatusBar -->
<g id="node27" class="node"><title>StatusBar</title>
<ellipse fill="none" stroke="black" cx="422" cy="-162" rx="47.1269" ry="18"/>
<text text-anchor="middle" x="422" y="-157.4" font-family="Times New Roman,serif" font-size="14.00">StatusBar</text>
</g>
<!-- Bar&#45;&gt;StatusBar -->
<g id="edge26" class="edge"><title>Bar&#45;&gt;StatusBar</title>
<path fill="none" stroke="black" d="M422,-215.831C422,-208.131 422,-198.974 422,-190.417"/>
<polygon fill="black" stroke="black" points="425.5,-190.413 422,-180.413 418.5,-190.413 425.5,-190.413"/>
</g>
<!-- ToolBar -->
<g id="node29" class="node"><title>ToolBar</title>
<ellipse fill="none" stroke="black" cx="529" cy="-162" rx="41.7645" ry="18"/>
<text text-anchor="middle" x="529" y="-157.4" font-family="Times New Roman,serif" font-size="14.00">ToolBar</text>
</g>
<!-- Bar&#45;&gt;ToolBar -->
<g id="edge28" class="edge"><title>Bar&#45;&gt;ToolBar</title>
<path fill="none" stroke="black" d="M441.129,-221.128C456.834,-210.561 479.389,-195.383 497.716,-183.051"/>
<polygon fill="black" stroke="black" points="499.982,-185.745 506.324,-177.258 496.074,-179.937 499.982,-185.745"/>
</g>
<!-- MenuBar -->
<g id="node31" class="node"><title>MenuBar</title>
<ellipse fill="none" stroke="black" cx="634" cy="-162" rx="45.1145" ry="18"/>
<text text-anchor="middle" x="634" y="-157.4" font-family="Times New Roman,serif" font-size="14.00">MenuBar</text>
</g>
<!-- Bar&#45;&gt;MenuBar -->
<g id="edge30" class="edge"><title>Bar&#45;&gt;MenuBar</title>
<path fill="none" stroke="black" d="M446.319,-225.741C481.304,-213.859 546.411,-191.747 589.98,-176.95"/>
<polygon fill="black" stroke="black" points="591.131,-180.256 599.474,-173.726 588.88,-173.628 591.131,-180.256"/>
</g>
<!-- HScrollBar -->
<g id="node23" class="node"><title>HScrollBar</title>
<ellipse fill="none" stroke="black" cx="53" cy="-90" rx="52.9948" ry="18"/>
<text text-anchor="middle" x="53" y="-85.4" font-family="Times New Roman,serif" font-size="14.00">HScrollBar</text>
</g>
<!-- ScrollBar&#45;&gt;HScrollBar -->
<g id="edge22" class="edge"><title>ScrollBar&#45;&gt;HScrollBar</title>
<path fill="none" stroke="black" d="M100.307,-144.937C92.6213,-136.012 83.0665,-124.916 74.5599,-115.037"/>
<polygon fill="black" stroke="black" points="77.1958,-112.735 68.0184,-107.441 71.8914,-117.302 77.1958,-112.735"/>
</g>
<!-- VScrollBar -->
<g id="node25" class="node"><title>VScrollBar</title>
<ellipse fill="none" stroke="black" cx="177" cy="-90" rx="52.9948" ry="18"/>
<text text-anchor="middle" x="177" y="-85.4" font-family="Times New Roman,serif" font-size="14.00">VScrollBar</text>
</g>
<!-- ScrollBar&#45;&gt;VScrollBar -->
<g id="edge24" class="edge"><title>ScrollBar&#45;&gt;VScrollBar</title>
<path fill="none" stroke="black" d="M129.693,-144.937C137.379,-136.012 146.934,-124.916 155.44,-115.037"/>
<polygon fill="black" stroke="black" points="158.109,-117.302 161.982,-107.441 152.804,-112.735 158.109,-117.302"/>
</g>
<!-- Window -->
<g id="node7" class="node"><title>Window</title>
<ellipse fill="none" stroke="black" cx="740" cy="-162" rx="43.1021" ry="18"/>
<text text-anchor="middle" x="740" y="-157.4" font-family="Times New Roman,serif" font-size="14.00">Window</text>
</g>
<!-- Frame&#45;&gt;Window -->
<g id="edge4" class="edge"><title>Frame&#45;&gt;Window</title>
<path fill="none" stroke="black" d="M770.317,-216.571C765.67,-208.206 759.999,-197.998 754.824,-188.684"/>
<polygon fill="black" stroke="black" points="757.788,-186.811 749.872,-179.769 751.669,-190.21 757.788,-186.811"/>
</g>
<!-- TabFrame -->
<g id="node9" class="node"><title>TabFrame</title>
<ellipse fill="none" stroke="black" cx="850" cy="-162" rx="49.1393" ry="18"/>
<text text-anchor="middle" x="850" y="-157.4" font-family="Times New Roman,serif" font-size="14.00">TabFrame</text>
</g>
<!-- Frame&#45;&gt;TabFrame -->
<g id="edge6" class="edge"><title>Frame&#45;&gt;TabFrame</title>
<path fill="none" stroke="black" d="M795.884,-217.662C804.908,-208.381 816.377,-196.584 826.432,-186.241"/>
<polygon fill="black" stroke="black" points="828.987,-188.634 833.448,-179.025 823.968,-183.755 828.987,-188.634"/>
</g>
<!-- MenuSeparator -->
<g id="node15" class="node"><title>MenuSeparator</title>
<ellipse fill="none" stroke="black" cx="985" cy="-162" rx="67.9242" ry="18"/>
<text text-anchor="middle" x="985" y="-157.4" font-family="Times New Roman,serif" font-size="14.00">MenuSeparator</text>
</g>
<!-- MenuItem&#45;&gt;MenuSeparator -->
<g id="edge12" class="edge"><title>MenuItem&#45;&gt;MenuSeparator</title>
<path fill="none" stroke="black" d="M988.738,-215.831C988.204,-208.131 987.568,-198.974 986.973,-190.417"/>
<polygon fill="black" stroke="black" points="990.463,-190.147 986.279,-180.413 983.48,-190.632 990.463,-190.147"/>
</g>
<!-- TextArea -->
<g id="node35" class="node"><title>TextArea</title>
<ellipse fill="none" stroke="black" cx="1116" cy="-162" rx="45.1145" ry="18"/>
<text text-anchor="middle" x="1116" y="-157.4" font-family="Times New Roman,serif" font-size="14.00">TextArea</text>
</g>
<!-- TextBox&#45;&gt;TextArea -->
<g id="edge34" class="edge"><title>TextBox&#45;&gt;TextArea</title>
<path fill="none" stroke="black" d="M1111.51,-215.831C1112.16,-208.131 1112.92,-198.974 1113.63,-190.417"/>
<polygon fill="black" stroke="black" points="1117.12,-190.669 1114.47,-180.413 1110.15,-190.088 1117.12,-190.669"/>
</g>
<!-- Label -->
<g id="node37" class="node"><title>Label</title>
<ellipse fill="none" stroke="black" cx="1116" cy="-90" rx="31.0281" ry="18"/>
<text text-anchor="middle" x="1116" y="-85.4" font-family="Times New Roman,serif" font-size="14.00">Label</text>
</g>
<!-- TextArea&#45;&gt;Label -->
<g id="edge36" class="edge"><title>TextArea&#45;&gt;Label</title>
<path fill="none" stroke="black" d="M1116,-143.831C1116,-136.131 1116,-126.974 1116,-118.417"/>
<polygon fill="black" stroke="black" points="1119.5,-118.413 1116,-108.413 1112.5,-118.413 1119.5,-118.413"/>
</g>
<!-- FadingLabel -->
<g id="node39" class="node"><title>FadingLabel</title>
<ellipse fill="none" stroke="black" cx="1116" cy="-18" rx="57.1889" ry="18"/>
<text text-anchor="middle" x="1116" y="-13.4" font-family="Times New Roman,serif" font-size="14.00">FadingLabel</text>
</g>
<!-- Label&#45;&gt;FadingLabel -->
<g id="edge38" class="edge"><title>Label&#45;&gt;FadingLabel</title>
<path fill="none" stroke="black" d="M1116,-71.8314C1116,-64.131 1116,-54.9743 1116,-46.4166"/>
<polygon fill="black" stroke="black" points="1119.5,-46.4132 1116,-36.4133 1112.5,-46.4133 1119.5,-46.4132"/>
</g>
<!-- TitleButton -->
<g id="node43" class="node"><title>TitleButton</title>
<ellipse fill="none" stroke="black" cx="1232" cy="-162" rx="52.9948" ry="18"/>
<text text-anchor="middle" x="1232" y="-157.4" font-family="Times New Roman,serif" font-size="14.00">TitleButton</text>
</g>
<!-- Button&#45;&gt;TitleButton -->
<g id="edge42" class="edge"><title>Button&#45;&gt;TitleButton</title>
<path fill="none" stroke="black" d="M1340.3,-220.626C1320.36,-209.832 1291.99,-194.473 1269.28,-182.184"/>
<polygon fill="black" stroke="black" points="1270.72,-178.982 1260.26,-177.299 1267.39,-185.138 1270.72,-178.982"/>
</g>
<!-- ToggleButton -->
<g id="node45" class="node"><title>ToggleButton</title>
<ellipse fill="none" stroke="black" cx="1365" cy="-162" rx="61.8872" ry="18"/>
<text text-anchor="middle" x="1365" y="-157.4" font-family="Times New Roman,serif" font-size="14.00">ToggleButton</text>
</g>
<!-- Button&#45;&gt;ToggleButton -->
<g id="edge44" class="edge"><title>Button&#45;&gt;ToggleButton</title>
<path fill="none" stroke="black" d="M1365,-215.831C1365,-208.131 1365,-198.974 1365,-190.417"/>
<polygon fill="black" stroke="black" points="1368.5,-190.413 1365,-180.413 1361.5,-190.413 1368.5,-190.413"/>
</g>
<!-- RadioButton -->
<g id="node47" class="node"><title>RadioButton</title>
<ellipse fill="none" stroke="black" cx="1504" cy="-162" rx="59.0322" ry="18"/>
<text text-anchor="middle" x="1504" y="-157.4" font-family="Times New Roman,serif" font-size="14.00">RadioButton</text>
</g>
<!-- Button&#45;&gt;RadioButton -->
<g id="edge46" class="edge"><title>Button&#45;&gt;RadioButton</title>
<path fill="none" stroke="black" d="M1390.17,-220.961C1410.89,-210.229 1440.63,-194.823 1464.52,-182.451"/>
<polygon fill="black" stroke="black" points="1466.42,-185.409 1473.69,-177.702 1463.2,-179.194 1466.42,-185.409"/>
</g>
<!-- TabButton -->
<g id="node49" class="node"><title>TabButton</title>
<ellipse fill="none" stroke="black" cx="1632" cy="-162" rx="51.1517" ry="18"/>
<text text-anchor="middle" x="1632" y="-157.4" font-family="Times New Roman,serif" font-size="14.00">TabButton</text>
</g>
<!-- Button&#45;&gt;TabButton -->
<g id="edge48" class="edge"><title>Button&#45;&gt;TabButton</title>
<path fill="none" stroke="black" d="M1397.37,-225.943C1438.19,-215.692 1510.49,-197.243 1572,-180 1575.78,-178.94 1579.69,-177.822 1583.61,-176.682"/>
<polygon fill="black" stroke="black" points="1584.72,-180.003 1593.33,-173.826 1582.75,-173.287 1584.72,-180.003"/>
</g>
</g>
</svg>
