<?xml version="1.0" encoding="UTF-8" standalone="no"?>
<!DOCTYPE svg PUBLIC "-//W3C//DTD SVG 1.1//EN"
 "http://www.w3.org/Graphics/SVG/1.1/DTD/svg11.dtd">
<!-- Generated by graphviz version 2.26.3 (20100126.1600)
 -->
<!-- Title: Widgets Pages: 1 -->
<svg width="1834pt" height="1503pt"
 viewBox="0.00 0.00 1834.31 1502.63" xmlns="http://www.w3.org/2000/svg" xmlns:xlink="http://www.w3.org/1999/xlink">
<g id="graph1" class="graph" transform="scale(1 1) rotate(0) translate(4 1498.63)">
<title>Widgets</title>
<polygon fill="white" stroke="white" points="-4,5 -4,-1498.63 1831.31,-1498.63 1831.31,5 -4,5"/>
<!-- Widget -->
<g id="node1" class="node"><title>Widget</title>
<ellipse fill="none" stroke="lightgrey" cx="808.238" cy="-803.551" rx="38.2368" ry="18"/>
<text text-anchor="middle" x="808.238" y="-798.951" font-family="Times New Roman,serif" font-size="14.00">Widget</text>
</g>
<!-- Bar -->
<g id="node2" class="node"><title>Bar</title>
<ellipse fill="none" stroke="lightgrey" cx="1466.03" cy="-803.551" rx="27" ry="18"/>
<text text-anchor="middle" x="1466.03" y="-798.951" font-family="Times New Roman,serif" font-size="14.00">Bar</text>
</g>
<!-- Widget&#45;&gt;Bar -->
<g id="edge14" class="edge"><title>Widget&#45;&gt;Bar</title>
<path fill="none" stroke="black" d="M846.447,-803.551C963.042,-803.551 1313.33,-803.551 1428.72,-803.551"/>
<polygon fill="black" stroke="black" points="1428.82,-807.051 1438.82,-803.551 1428.82,-800.051 1428.82,-807.051"/>
</g>
<!-- Frame -->
<g id="node5" class="node"><title>Frame</title>
<ellipse fill="none" stroke="black" cx="889.452" cy="-1456.31" rx="34.8827" ry="18"/>
<text text-anchor="middle" x="889.452" y="-1451.71" font-family="Times New Roman,serif" font-size="14.00">Frame</text>
</g>
<!-- Widget&#45;&gt;Frame -->
<g id="edge2" class="edge"><title>Widget&#45;&gt;Frame</title>
<path fill="none" stroke="black" d="M810.495,-821.691C821.788,-912.459 872.165,-1317.36 885.953,-1428.18"/>
<polygon fill="black" stroke="black" points="882.498,-1428.76 887.206,-1438.26 889.445,-1427.9 882.498,-1428.76"/>
</g>
<!-- Viewport -->
<g id="node11" class="node"><title>Viewport</title>
<ellipse fill="none" stroke="black" cx="458.735" cy="-1360.81" rx="45.1145" ry="18"/>
<text text-anchor="middle" x="458.735" y="-1356.21" font-family="Times New Roman,serif" font-size="14.00">Viewport</text>
</g>
<!-- Widget&#45;&gt;Viewport -->
<g id="edge8" class="edge"><title>Widget&#45;&gt;Viewport</title>
<path fill="none" stroke="black" d="M797.395,-820.84C747.055,-901.103 536.025,-1237.58 475.205,-1334.55"/>
<polygon fill="black" stroke="black" points="472.147,-1332.84 469.798,-1343.17 478.077,-1336.56 472.147,-1332.84"/>
</g>
<!-- MenuItem -->
<g id="node13" class="node"><title>MenuItem</title>
<ellipse fill="none" stroke="black" cx="300.054" cy="-1022.55" rx="48.9699" ry="18"/>
<text text-anchor="middle" x="300.054" y="-1017.95" font-family="Times New Roman,serif" font-size="14.00">MenuItem</text>
</g>
<!-- Widget&#45;&gt;MenuItem -->
<g id="edge10" class="edge"><title>Widget&#45;&gt;MenuItem</title>
<path fill="none" stroke="black" d="M779.827,-815.795C694.679,-852.49 441.318,-961.676 341.313,-1004.77"/>
<polygon fill="black" stroke="black" points="339.923,-1001.56 332.124,-1008.73 342.693,-1007.99 339.923,-1001.56"/>
</g>
<!-- TextBox -->
<g id="node33" class="node"><title>TextBox</title>
<ellipse fill="none" stroke="black" cx="457.314" cy="-582.103" rx="43.1021" ry="18"/>
<text text-anchor="middle" x="457.314" y="-577.503" font-family="Times New Roman,serif" font-size="14.00">TextBox</text>
</g>
<!-- Widget&#45;&gt;TextBox -->
<g id="edge32" class="edge"><title>Widget&#45;&gt;TextBox</title>
<path fill="none" stroke="black" d="M785.213,-789.021C724.528,-750.726 560.068,-646.945 489.828,-602.62"/>
<polygon fill="black" stroke="black" points="491.673,-599.646 481.348,-597.269 487.937,-605.566 491.673,-599.646"/>
</g>
<!-- Button -->
<g id="node41" class="node"><title>Button</title>
<ellipse fill="none" stroke="black" cx="862.764" cy="-148.025" rx="36.2243" ry="18"/>
<text text-anchor="middle" x="862.764" y="-143.425" font-family="Times New Roman,serif" font-size="14.00">Button</text>
</g>
<!-- Widget&#45;&gt;Button -->
<g id="edge40" class="edge"><title>Widget&#45;&gt;Button</title>
<path fill="none" stroke="black" d="M809.754,-785.334C817.336,-694.181 851.158,-287.563 860.415,-176.267"/>
<polygon fill="black" stroke="black" points="863.915,-176.41 861.256,-166.154 856.939,-175.83 863.915,-176.41"/>
</g>
<!-- ScrollBar -->
<g id="node3" class="node"><title>ScrollBar</title>
<ellipse fill="none" stroke="lightgrey" cx="1221.72" cy="-591.839" rx="45.7889" ry="18"/>
<text text-anchor="middle" x="1221.72" y="-587.239" font-family="Times New Roman,serif" font-size="14.00">ScrollBar</text>
</g>
<!-- Bar&#45;&gt;ScrollBar -->
<g id="edge20" class="edge"><title>Bar&#45;&gt;ScrollBar</title>
<path fill="none" stroke="black" d="M1449.24,-788.999C1407.59,-752.907 1299.25,-659.029 1248.58,-615.119"/>
<polygon fill="black" stroke="black" points="1250.82,-612.421 1240.97,-608.517 1246.23,-617.711 1250.82,-612.421"/>
</g>
<!-- TabBar -->
<g id="node18" class="node"><title>TabBar</title>
<ellipse fill="none" stroke="black" cx="1635.73" cy="-528.4" rx="39.0774" ry="18"/>
<text text-anchor="middle" x="1635.73" y="-523.8" font-family="Times New Roman,serif" font-size="14.00">TabBar</text>
</g>
<!-- Bar&#45;&gt;TabBar -->
<g id="edge16" class="edge"><title>Bar&#45;&gt;TabBar</title>
<path fill="none" stroke="black" d="M1476.39,-786.753C1504.95,-740.443 1584.99,-610.677 1619.53,-554.676"/>
<polygon fill="black" stroke="black" points="1622.58,-556.385 1624.85,-546.036 1616.63,-552.71 1622.58,-556.385"/>
</g>
<!-- TitleBar -->
<g id="node20" class="node"><title>TitleBar</title>
<ellipse fill="none" stroke="black" cx="1784.31" cy="-746.975" rx="40.92" ry="18"/>
<text text-anchor="middle" x="1784.31" y="-742.375" font-family="Times New Roman,serif" font-size="14.00">TitleBar</text>
</g>
<!-- Bar&#45;&gt;TitleBar -->
<g id="edge18" class="edge"><title>Bar&#45;&gt;TitleBar</title>
<path fill="none" stroke="black" d="M1492.35,-798.873C1545.82,-789.367 1667.89,-767.67 1736.04,-755.556"/>
<polygon fill="black" stroke="black" points="1736.86,-758.965 1746.1,-753.769 1735.64,-752.073 1736.86,-758.965"/>
</g>
<!-- StatusBar -->
<g id="node27" class="node"><title>StatusBar</title>
<ellipse fill="none" stroke="black" cx="1715.1" cy="-1009.63" rx="47.1269" ry="18"/>
<text text-anchor="middle" x="1715.1" y="-1005.03" font-family="Times New Roman,serif" font-size="14.00">StatusBar</text>
</g>
<!-- Bar&#45;&gt;StatusBar -->
<g id="edge26" class="edge"><title>Bar&#45;&gt;StatusBar</title>
<path fill="none" stroke="black" d="M1483.15,-817.716C1525.5,-852.761 1635.51,-943.781 1687.33,-986.655"/>
<polygon fill="black" stroke="black" points="1685.19,-989.429 1695.13,-993.107 1689.66,-984.036 1685.19,-989.429"/>
</g>
<!-- ToolBar -->
<g id="node29" class="node"><title>ToolBar</title>
<ellipse fill="none" stroke="black" cx="1468.71" cy="-1126.82" rx="41.7645" ry="18"/>
<text text-anchor="middle" x="1468.71" y="-1122.22" font-family="Times New Roman,serif" font-size="14.00">ToolBar</text>
</g>
<!-- Bar&#45;&gt;ToolBar -->
<g id="edge28" class="edge"><title>Bar&#45;&gt;ToolBar</title>
<path fill="none" stroke="black" d="M1466.18,-821.857C1466.63,-875.644 1467.94,-1033.48 1468.48,-1098.41"/>
<polygon fill="black" stroke="black" points="1464.98,-1098.74 1468.56,-1108.71 1471.98,-1098.68 1464.98,-1098.74"/>
</g>
<!-- MenuBar -->
<g id="node31" class="node"><title>MenuBar</title>
<ellipse fill="none" stroke="black" cx="1221.72" cy="-1015.26" rx="45.1145" ry="18"/>
<text text-anchor="middle" x="1221.72" y="-1010.66" font-family="Times New Roman,serif" font-size="14.00">MenuBar</text>
</g>
<!-- Bar&#45;&gt;MenuBar -->
<g id="edge30" class="edge"><title>Bar&#45;&gt;MenuBar</title>
<path fill="none" stroke="black" d="M1449.24,-818.103C1407.48,-854.283 1298.72,-948.535 1248.21,-992.306"/>
<polygon fill="black" stroke="black" points="1245.89,-989.687 1240.62,-998.881 1250.47,-994.977 1245.89,-989.687"/>
</g>
<!-- HScrollBar -->
<g id="node23" class="node"><title>HScrollBar</title>
<ellipse fill="none" stroke="black" cx="1109.55" cy="-721.28" rx="52.9948" ry="18"/>
<text text-anchor="middle" x="1109.55" y="-716.68" font-family="Times New Roman,serif" font-size="14.00">HScrollBar</text>
</g>
<!-- ScrollBar&#45;&gt;HScrollBar -->
<g id="edge22" class="edge"><title>ScrollBar&#45;&gt;HScrollBar</title>
<path fill="none" stroke="black" d="M1206.83,-609.028C1187.57,-631.243 1153.89,-670.111 1131.65,-695.775"/>
<polygon fill="black" stroke="black" points="1128.77,-693.756 1124.87,-703.605 1134.06,-698.34 1128.77,-693.756"/>
</g>
<!-- VScrollBar -->
<g id="node25" class="node"><title>VScrollBar</title>
<ellipse fill="none" stroke="black" cx="1333.89" cy="-462.398" rx="52.9948" ry="18"/>
<text text-anchor="middle" x="1333.89" y="-457.798" font-family="Times New Roman,serif" font-size="14.00">VScrollBar</text>
</g>
<!-- ScrollBar&#45;&gt;VScrollBar -->
<g id="edge24" class="edge"><title>ScrollBar&#45;&gt;VScrollBar</title>
<path fill="none" stroke="black" d="M1236.62,-574.65C1255.87,-552.435 1289.55,-513.567 1311.79,-487.904"/>
<polygon fill="black" stroke="black" points="1314.67,-489.923 1318.58,-480.073 1309.38,-485.338 1314.67,-489.923"/>
</g>
<!-- Window -->
<g id="node7" class="node"><title>Window</title>
<ellipse fill="none" stroke="black" cx="1044.78" cy="-1436.98" rx="43.1021" ry="18"/>
<text text-anchor="middle" x="1044.78" y="-1432.38" font-family="Times New Roman,serif" font-size="14.00">Window</text>
</g>
<!-- Frame&#45;&gt;Window -->
<g id="edge4" class="edge"><title>Frame&#45;&gt;Window</title>
<path fill="none" stroke="black" d="M923.539,-1452.07C943.998,-1449.52 970.422,-1446.23 993.377,-1443.38"/>
<polygon fill="black" stroke="black" points="993.817,-1446.85 1003.31,-1442.14 992.953,-1439.9 993.817,-1446.85"/>
</g>
<!-- TabFrame -->
<g id="node9" class="node"><title>TabFrame</title>
<ellipse fill="none" stroke="black" cx="734.126" cy="-1475.63" rx="49.1393" ry="18"/>
<text text-anchor="middle" x="734.126" y="-1471.03" font-family="Times New Roman,serif" font-size="14.00">TabFrame</text>
</g>
<!-- Frame&#45;&gt;TabFrame -->
<g id="edge6" class="edge"><title>Frame&#45;&gt;TabFrame</title>
<path fill="none" stroke="black" d="M855.365,-1460.55C836.477,-1462.9 812.505,-1465.88 790.873,-1468.57"/>
<polygon fill="black" stroke="black" points="790.292,-1465.12 780.801,-1469.83 791.156,-1472.06 790.292,-1465.12"/>
</g>
<!-- MenuSeparator -->
<g id="node15" class="node"><title>MenuSeparator</title>
<ellipse fill="none" stroke="black" cx="126.124" cy="-1097.51" rx="67.9242" ry="18"/>
<text text-anchor="middle" x="126.124" y="-1092.91" font-family="Times New Roman,serif" font-size="14.00">MenuSeparator</text>
</g>
<!-- MenuItem&#45;&gt;MenuSeparator -->
<g id="edge12" class="edge"><title>MenuItem&#45;&gt;MenuSeparator</title>
<path fill="none" stroke="black" d="M268.153,-1036.3C240.985,-1048.01 201.639,-1064.97 171.245,-1078.06"/>
<polygon fill="black" stroke="black" points="169.517,-1075 161.718,-1082.17 172.287,-1081.43 169.517,-1075"/>
</g>
<!-- TextArea -->
<g id="node35" class="node"><title>TextArea</title>
<ellipse fill="none" stroke="black" cx="320.972" cy="-496.065" rx="45.1145" ry="18"/>
<text text-anchor="middle" x="320.972" y="-491.465" font-family="Times New Roman,serif" font-size="14.00">TextArea</text>
</g>
<!-- TextBox&#45;&gt;TextArea -->
<g id="edge34" class="edge"><title>TextBox&#45;&gt;TextArea</title>
<path fill="none" stroke="black" d="M433.253,-566.919C411.193,-552.998 378.334,-532.263 353.855,-516.816"/>
<polygon fill="black" stroke="black" points="355.577,-513.763 345.252,-511.386 351.841,-519.683 355.577,-513.763"/>
</g>
<!-- Label -->
<g id="node37" class="node"><title>Label</title>
<ellipse fill="none" stroke="black" cx="194.842" cy="-416.471" rx="31.0281" ry="18"/>
<text text-anchor="middle" x="194.842" y="-411.871" font-family="Times New Roman,serif" font-size="14.00">Label</text>
</g>
<!-- TextArea&#45;&gt;Label -->
<g id="edge36" class="edge"><title>TextArea&#45;&gt;Label</title>
<path fill="none" stroke="black" d="M296.653,-480.718C276.142,-467.775 246.703,-449.198 224.753,-435.346"/>
<polygon fill="black" stroke="black" points="226.474,-432.294 216.149,-429.917 222.738,-438.214 226.474,-432.294"/>
</g>
<!-- FadingLabel -->
<g id="node39" class="node"><title>FadingLabel</title>
<ellipse fill="none" stroke="black" cx="58.5" cy="-330.434" rx="57.1889" ry="18"/>
<text text-anchor="middle" x="58.5" y="-325.834" font-family="Times New Roman,serif" font-size="14.00">FadingLabel</text>
</g>
<!-- Label&#45;&gt;FadingLabel -->
<g id="edge38" class="edge"><title>Label&#45;&gt;FadingLabel</title>
<path fill="none" stroke="black" d="M173.837,-403.216C152.322,-389.639 118.511,-368.303 93.0487,-352.235"/>
<polygon fill="black" stroke="black" points="94.7492,-349.17 84.4243,-346.793 91.0134,-355.09 94.7492,-349.17"/>
</g>
<!-- TitleButton -->
<g id="node43" class="node"><title>TitleButton</title>
<ellipse fill="none" stroke="black" cx="735.287" cy="-261.417" rx="52.9948" ry="18"/>
<text text-anchor="middle" x="735.287" y="-256.817" font-family="Times New Roman,serif" font-size="14.00">TitleButton</text>
</g>
<!-- Button&#45;&gt;TitleButton -->
<g id="edge42" class="edge"><title>Button&#45;&gt;TitleButton</title>
<path fill="none" stroke="black" d="M845.039,-163.792C823.557,-182.901 787.142,-215.292 762.191,-237.485"/>
<polygon fill="black" stroke="black" points="759.673,-235.041 754.527,-244.303 764.325,-240.272 759.673,-235.041"/>
</g>
<!-- ToggleButton -->
<g id="node45" class="node"><title>ToggleButton</title>
<ellipse fill="none" stroke="black" cx="751.138" cy="-19" rx="61.8872" ry="18"/>
<text text-anchor="middle" x="751.138" y="-14.4" font-family="Times New Roman,serif" font-size="14.00">ToggleButton</text>
</g>
<!-- Button&#45;&gt;ToggleButton -->
<g id="edge44" class="edge"><title>Button&#45;&gt;ToggleButton</title>
<path fill="none" stroke="black" d="M848.4,-131.422C829.378,-109.435 795.641,-70.44 773.33,-44.6513"/>
<polygon fill="black" stroke="black" points="775.711,-42.0533 766.521,-36.7807 770.417,-46.6332 775.711,-42.0533"/>
</g>
<!-- RadioButton -->
<g id="node47" class="node"><title>RadioButton</title>
<ellipse fill="none" stroke="black" cx="997.118" cy="-42.873" rx="59.0322" ry="18"/>
<text text-anchor="middle" x="997.118" y="-38.273" font-family="Times New Roman,serif" font-size="14.00">RadioButton</text>
</g>
<!-- Button&#45;&gt;RadioButton -->
<g id="edge46" class="edge"><title>Button&#45;&gt;RadioButton</title>
<path fill="none" stroke="black" d="M882.301,-132.735C904.629,-115.26 941.424,-86.462 967.332,-66.1853"/>
<polygon fill="black" stroke="black" points="969.611,-68.846 975.329,-59.9265 965.297,-63.3336 969.611,-68.846"/>
</g>
<!-- TabButton -->
<g id="node49" class="node"><title>TabButton</title>
<ellipse fill="none" stroke="black" cx="969.756" cy="-280.919" rx="51.1517" ry="18"/>
<text text-anchor="middle" x="969.756" y="-276.319" font-family="Times New Roman,serif" font-size="14.00">TabButton</text>
</g>
<!-- Button&#45;&gt;TabButton -->
<g id="edge48" class="edge"><title>Button&#45;&gt;TabButton</title>
<path fill="none" stroke="black" d="M876.315,-164.857C894.682,-187.671 927.646,-228.615 949.106,-255.27"/>
<polygon fill="black" stroke="black" points="946.639,-257.787 955.636,-263.381 952.091,-253.397 946.639,-257.787"/>
</g>
</g>
</svg>
